<?xml version="1.0" standalone="no"?>
<!DOCTYPE svg PUBLIC "-//W3C//DTD SVG 1.1//EN" "http://www.w3.org/Graphics/SVG/1.1/DTD/svg11.dtd" >
<svg xmlns="http://www.w3.org/2000/svg">
<metadata></metadata>
<defs>
<font id="din_round_probold" horiz-adv-x="1112" >
<font-face units-per-em="2048" ascent="1565" descent="-483" />
<missing-glyph horiz-adv-x="475" />
<glyph horiz-adv-x="0" />
<glyph horiz-adv-x="0" />
<glyph horiz-adv-x="682" />
<glyph unicode="&#xd;" horiz-adv-x="475" />
<glyph unicode=" "  horiz-adv-x="475" />
<glyph unicode="&#x09;" horiz-adv-x="475" />
<glyph unicode="&#xa0;" horiz-adv-x="475" />
<glyph unicode="!" horiz-adv-x="710" d="M232 154q0 66 47 113.5t113 47.5t114 -47.5t48 -113.5t-48 -113t-114 -47t-113 47t-47 113zM249 642v632q0 52 3.5 76t15.5 49q17 31 50 49t74 18t74 -18t50 -49q13 -26 16.5 -50t3.5 -75v-632q0 -51 -3.5 -75t-16.5 -50q-17 -31 -50 -49t-74 -18t-74 18t-50 49 q-12 25 -15.5 49t-3.5 76z" />
<glyph unicode="&#x22;" horiz-adv-x="935" d="M119 1082v206q0 84 17 119q31 63 116 63t116 -63q17 -35 17 -119v-206q0 -83 -17 -118q-14 -30 -45 -47t-71 -17t-71 17t-45 47q-17 35 -17 118zM551 1082v206q0 84 17 119q31 63 116 63t116 -63q17 -35 17 -119v-206q0 -83 -17 -118q-14 -30 -45 -47t-71 -17t-71 17 t-45 47q-17 35 -17 118z" />
<glyph unicode="#" horiz-adv-x="1503" d="M94 508q0 75 59 105q32 16 109 16h86l48 240h-61q-78 0 -110 16q-58 30 -58 105q0 76 58 106q30 15 110 15h109l45 223q9 47 19 71.5t32 45.5q29 28 78 28q56 0 94 -36q30 -29 32.5 -74.5t-9.5 -83.5l-35 -174h247l45 223q10 49 19 72.5t31 44.5q29 28 79 28q55 0 93 -36 q21 -20 28 -49t5 -51t-9 -58l-35 -174h38q80 0 110 -15q58 -30 58 -106q0 -75 -58 -105q-32 -16 -110 -16h-86l-48 -240h61q78 0 110 -16q58 -30 58 -105q0 -76 -58 -106q-30 -15 -110 -15h-109l-50 -251q-9 -47 -19 -71.5t-32 -45.5q-28 -27 -78 -27q-56 0 -94 36 q-30 29 -32.5 74t9.5 83l40 202h-247l-50 -251q-10 -49 -19 -72.5t-31 -44.5q-28 -27 -79 -27q-55 0 -93 36q-30 29 -33 74t9 83l40 202h-38q-79 0 -109 15q-59 30 -59 106zM604 629h247l48 240h-247z" />
<glyph unicode="$" horiz-adv-x="1214" d="M67 229q0 56 38 94q31 31 80 31q43 0 116 -39q79 -41 138.5 -58t138.5 -17q125 0 192 48t67 135q0 79 -44 122q-38 37 -131 50l-175 26q-185 27 -282 121q-105 102 -105 286q0 167 100 282.5t277 148.5v48q0 68 16 100q28 52 96 52t96 -52q15 -30 15 -100v-41 q121 -12 238 -66q54 -25 85.5 -62t31.5 -81q0 -47 -33 -88q-33 -39 -85 -39q-41 0 -107 33q-110 58 -230 58q-108 0 -166 -51t-58 -126q0 -72 42 -111q48 -43 135 -56l171 -25q188 -27 280 -114q112 -105 112 -308q0 -177 -114 -290t-302 -142v-87q0 -70 -15 -99 q-28 -53 -96 -53t-96 53q-16 31 -16 99v80q-142 11 -265 71q-76 36 -110.5 72.5t-34.5 94.5z" />
<glyph unicode="%" horiz-adv-x="1737" d="M106 987v202q0 133 85.5 207t212.5 74t212 -74t85 -207v-202q0 -134 -85 -207.5t-212 -73.5t-212.5 74t-85.5 207zM300 994q0 -116 104 -116t104 116v188q0 116 -104 116t-104 -116v-188zM452 85q0 22 25 75l615 1222q26 53 49 69q23 15 49 15q22 0 44 -11q51 -25 51 -82 q0 -22 -25 -75l-615 -1222q-26 -53 -49 -69q-22 -15 -49 -15q-22 0 -44 11q-51 25 -51 82zM1036 269v202q0 133 85.5 207.5t212.5 74.5t212 -74.5t85 -207.5v-202q0 -134 -85 -207.5t-212 -73.5t-212.5 74t-85.5 207zM1230 276q0 -116 104 -116t104 116v188q0 117 -104 117 t-104 -117v-188z" />
<glyph unicode="&#x26;" horiz-adv-x="1454" d="M122 430q0 67 22 127t62.5 108t82 84t95.5 72q-30 35 -49 59.5t-44.5 66t-38.5 88t-13 95.5q0 152 104.5 246t284.5 94q170 0 272 -96t102 -248q0 -80 -38.5 -140t-112.5 -114l-105 -75l246 -291q55 75 69 193q7 51 21 76q31 59 104 59q36 0 65 -17t43 -44q17 -31 17 -84 q0 -100 -48 -215q-39 -93 -99 -161l56 -65q37 -44 50 -69t13 -54q0 -59 -51 -101q-39 -33 -87 -33q-36 0 -62.5 18.5t-67.5 67.5l-39 46q-38 -30 -63.5 -47t-73 -41t-106.5 -35.5t-130 -11.5q-237 0 -359 116t-122 326zM380 434q0 -90 63.5 -147.5t157.5 -57.5q118 0 217 86 l-291 342q-49 -34 -78.5 -62.5t-49 -69.5t-19.5 -91zM507 1124q0 -25 15.5 -55t31 -49t49.5 -59l62 40q84 59 84 123q0 52 -32.5 85.5t-88.5 33.5q-58 0 -89.5 -33t-31.5 -86z" />
<glyph unicode="'" horiz-adv-x="503" d="M119 1082v206q0 84 17 119q31 63 116 63t116 -63q17 -35 17 -119v-206q0 -83 -17 -118q-14 -30 -45 -47t-71 -17t-71 17t-45 47q-17 35 -17 118z" />
<glyph unicode="(" horiz-adv-x="687" d="M164 284v891q0 164 41 250q38 77 129 169q42 43 70 57.5t60 14.5q57 0 96 -39q26 -26 34 -61t-1 -61q-11 -42 -67 -96q-37 -37 -62 -83q-34 -62 -34 -165v-864q0 -103 34 -165q25 -46 62 -83q56 -54 67 -96q9 -26 1 -61t-34 -61q-39 -39 -96 -39q-32 0 -60 14.5t-70 57.5 q-91 92 -129 169q-41 86 -41 251z" />
<glyph unicode=")" horiz-adv-x="687" d="M93 -108q-8 35 1 61q11 42 67 96q37 37 62 83q34 62 34 165v864q0 103 -34 165q-25 46 -62 83q-56 54 -67 96q-9 26 -1 61t34 61q39 39 96 39q32 0 60 -14.5t70 -57.5q91 -92 129 -169q41 -86 41 -250v-891q0 -165 -41 -251q-38 -77 -129 -169q-42 -43 -70 -57.5 t-60 -14.5q-57 0 -96 39q-26 26 -34 61z" />
<glyph unicode="*" horiz-adv-x="978" d="M132 944q14 23 65 54l104 63l-104 62q-50 30 -65 55q-26 43 3 92q28 49 80 46q31 -3 78 -31l103 -62v118q0 57 13 83q23 46 80 46q58 0 81 -46q13 -26 13 -83v-118l103 62q47 28 78 31q52 3 80 -46q29 -49 3 -92q-15 -25 -65 -55l-104 -62l104 -63q51 -31 65 -54 q26 -43 -3 -92q-28 -49 -80 -46q-31 3 -78 31l-103 62v-119q0 -57 -13 -83q-23 -46 -81 -46q-57 0 -80 46q-13 26 -13 83v119l-103 -62q-47 -28 -78 -31q-52 -3 -80 46q-29 49 -3 92z" />
<glyph unicode="+" d="M95 587q0 75 59 105q32 16 109 16h172v172q0 77 16 109q30 59 105 59q76 0 106 -59q15 -30 15 -109v-172h172q77 0 109 -16q59 -30 59 -105q0 -76 -59 -106q-30 -15 -109 -15h-172v-172q0 -80 -15 -110q-30 -58 -106 -58q-75 0 -105 58q-16 32 -16 110v172h-172 q-79 0 -109 15q-59 30 -59 106z" />
<glyph unicode="," horiz-adv-x="565" d="M61 -171q-6 38 20 117l89 269q15 45 25.5 65.5t28.5 38.5q33 33 84 33q44 0 86.5 -27t49.5 -78q6 -40 -19 -117l-89 -269q-15 -45 -25.5 -66t-28.5 -39q-32 -32 -84 -32q-44 0 -87 27.5t-50 77.5z" />
<glyph unicode="-" horiz-adv-x="872" d="M113 585q0 75 58 105q32 16 110 16h311q77 0 109 -16q59 -30 59 -105q0 -76 -59 -106q-30 -15 -109 -15h-311q-80 0 -110 15q-58 30 -58 106z" />
<glyph unicode="." horiz-adv-x="583" d="M113 172q0 74 52.5 126t125.5 52q74 0 127 -52.5t53 -125.5t-53 -125.5t-127 -52.5q-73 0 -125.5 52t-52.5 126z" />
<glyph unicode="/" horiz-adv-x="826" d="M38 -77q-13 39 15 124l484 1443q11 31 18.5 48.5t22 39t36 31t51.5 9.5q43 0 77 -23.5t46 -59.5q13 -39 -15 -124l-483 -1443q-11 -31 -18.5 -48.5t-22 -39t-36 -31t-51.5 -9.5q-43 0 -77.5 23.5t-46.5 59.5z" />
<glyph unicode="0" d="M112 423v612q0 102 36 185.5t97 137.5t141 83t170 29t170 -29t141 -83t97 -137.5t36 -185.5v-612q0 -102 -36 -185.5t-97 -137.5t-141 -83t-170 -29t-170 29t-141 83t-97 137.5t-36 185.5zM380 421q0 -90 48.5 -141.5t127.5 -51.5t127.5 51.5t48.5 141.5v616 q0 90 -48.5 141.5t-127.5 51.5t-127.5 -51.5t-48.5 -141.5v-616z" />
<glyph unicode="1" d="M146 1025q7 21 20 39t46 51l283 283q68 68 143 68q60 0 98 -38q24 -25 31.5 -56.5t7.5 -78.5v-1119q0 -84 -17 -119q-31 -63 -116 -63t-116 63q-17 35 -17 119v884l-120 -120q-33 -33 -50.5 -46t-38.5 -20q-62 -21 -119 35q-55 55 -35 118z" />
<glyph unicode="2" d="M112 134q0 39 17.5 72t52.5 75l453 548q54 65 78 116t24 116q0 74 -46 121t-129 47q-69 0 -112.5 -32.5t-72.5 -105.5q-20 -50 -52 -76q-29 -23 -76 -23q-62 0 -95 40q-32 39 -32 95q0 61 33 128t90 113q123 102 312 102q205 0 326.5 -105.5t121.5 -297.5q0 -61 -10 -108 t-37.5 -96.5t-56 -87.5t-85.5 -107l-354 -426h387q77 0 109 -16q59 -30 59 -105q0 -76 -59 -106q-30 -15 -109 -15h-560q-35 0 -54.5 1.5t-44.5 10.5t-42 27q-36 36 -36 95z" />
<glyph unicode="3" d="M109 315q0 65 34 100q37 40 98 40q52 0 82 -27q31 -26 50 -82q22 -62 62 -89.5t119 -27.5q83 0 138.5 53.5t55.5 147.5q0 92 -51 144t-146 56q-49 2 -76 16q-55 28 -55 100t55 100q30 14 76 16q86 3 135 51t49 134t-50 134t-129 48q-64 0 -101.5 -26t-61.5 -84 q-23 -59 -50 -81q-28 -25 -81 -25t-88.5 34t-35.5 92q0 47 20 100q28 76 86 128q117 103 314 103q193 0 319.5 -109.5t126.5 -299.5q0 -212 -178 -307q190 -97 190 -338q0 -200 -130 -314t-330 -114q-117 0 -195.5 24t-143.5 80q-108 94 -108 223z" />
<glyph unicode="4" d="M36 352q0 42 36 112l445 893q21 41 33.5 59.5t30.5 30.5q26 19 63 19q50 0 90 -34t40 -82q0 -38 -34 -105l-392 -786h255v122q0 81 18 118q31 64 115 64q40 0 71 -17t45 -47q17 -35 17 -118v-122h39q78 0 110 -16q58 -30 58 -105q0 -76 -58 -106q-30 -15 -110 -15h-39 v-43q0 -84 -17 -119q-31 -63 -116 -63q-84 0 -115 63q-18 37 -18 119v43h-379q-54 0 -86 7t-57 28q-45 39 -45 100z" />
<glyph unicode="5" d="M129 312q0 62 37 101q34 36 93 36q53 0 83 -27q29 -23 51 -82q24 -61 62 -86t103 -25q84 0 130 46q56 56 56 218q0 130 -42 195.5t-138 65.5q-102 0 -161 -65q-25 -28 -53 -45q-28 -16 -71 -16q-59 0 -94 35q-39 39 -39 113v520q0 27 1 43t10 40.5t26 41.5t41.5 26 t40.5 10t43 1h512q80 0 110 -15q58 -30 58 -106q0 -75 -58 -105q-30 -15 -110 -15h-432v-310q80 72 221 72q175 0 272 -97q78 -78 104.5 -172.5t26.5 -216.5q0 -135 -26.5 -223t-102.5 -164q-118 -118 -325 -118q-200 0 -319 101q-49 42 -79.5 100.5t-30.5 122.5z" />
<glyph unicode="6" d="M99 438q0 90 31 177.5t92 211.5l264 530q21 41 33.5 59.5t30.5 30.5q26 19 63 19q50 0 90 -34t40 -82q0 -40 -33 -105l-195 -389q48 18 111 18q155 0 269 -119t114 -313q0 -210 -128 -332t-327 -122q-200 0 -327.5 119.5t-127.5 330.5zM366 440q0 -98 52.5 -154.5 t135.5 -56.5t135.5 56.5t52.5 154.5q0 97 -51.5 155t-136.5 58q-84 0 -136 -57t-52 -156z" />
<glyph unicode="7" d="M100 1163v133q0 27 1 43t10 40.5t26 41.5t41.5 26t40.5 10t43 1h594q58 0 88 -7t56 -31q41 -36 41 -97q0 -32 -28 -109l-413 -1099q-16 -43 -27 -63.5t-27 -34.5q-27 -25 -73 -25q-47 0 -86.5 29t-43.5 72q-4 39 23 110l379 1014h-378v-54q0 -82 -18 -119 q-31 -63 -116 -63q-84 0 -115 63q-18 37 -18 119z" />
<glyph unicode="8" d="M88 424q0 206 184 329q-164 112 -164 301q0 188 129.5 302t318.5 114t319 -114t130 -302q0 -189 -165 -301q184 -123 184 -329q0 -204 -133 -320t-335 -116t-335 116t-133 320zM354 430q0 -85 59 -143.5t143 -58.5t143 58.5t59 143.5q0 84 -59 142.5t-143 58.5 t-143 -58.5t-59 -142.5zM374 1047q0 -79 52.5 -132t129.5 -53t129.5 53t52.5 132q0 78 -52 130.5t-130 52.5t-130 -52.5t-52 -130.5z" />
<glyph unicode="9" d="M103 1016q0 210 128 332t327 122q200 0 327.5 -119.5t127.5 -330.5q0 -90 -31 -177.5t-92 -211.5l-264 -530q-21 -41 -33.5 -59.5t-30.5 -30.5q-26 -19 -63 -19q-50 0 -90 34.5t-40 82.5q0 39 33 104l195 389q-48 -18 -111 -18q-155 0 -269 119t-114 313zM370 1018 q0 -97 51.5 -155t136.5 -58q84 0 136 57t52 156q0 98 -52.5 154.5t-135.5 56.5t-135.5 -56.5t-52.5 -154.5z" />
<glyph unicode=":" horiz-adv-x="634" d="M163 172q0 74 52.5 126t125.5 52q74 0 127 -52.5t53 -125.5t-53 -125.5t-127 -52.5q-73 0 -125.5 52t-52.5 126zM163 716q0 74 52.5 126t125.5 52q74 0 127 -52.5t53 -125.5t-53 -125.5t-127 -52.5q-73 0 -125.5 52t-52.5 126z" />
<glyph unicode=";" horiz-adv-x="634" d="M119 -171q-6 40 19 117l89 269q14 44 25 64.5t30 39.5q33 33 84 33q44 0 86.5 -27t49.5 -78q6 -38 -20 -117l-89 -269q-15 -45 -25.5 -66t-28.5 -39q-32 -32 -84 -32q-44 0 -86.5 27t-49.5 78zM193 715q0 73 52.5 125.5t125.5 52.5q74 0 127 -52.5t53 -125.5t-53 -125.5 t-127 -52.5q-73 0 -125.5 52.5t-52.5 125.5z" />
<glyph unicode="&#x3c;" d="M129 585q0 31 9.5 54.5t30.5 41.5t37 28t45 25l487 239q67 34 105 34q48 0 82 -40t34 -90q0 -38 -19 -64q-12 -17 -30 -29.5t-60 -33.5l-331 -165l331 -165q41 -21 59.5 -33.5t30.5 -30.5q19 -26 19 -63q0 -50 -34 -90t-82 -40q-36 0 -105 34l-487 237q-29 15 -45 25 t-37 28.5t-30.5 42.5t-9.5 55z" />
<glyph unicode="=" d="M94 356q0 76 59 106q30 15 109 15h588q79 0 109 -15q59 -30 59 -106q0 -75 -59 -105q-30 -15 -109 -15h-588q-79 0 -109 15q-59 30 -59 105zM94 813q0 76 59 106q30 15 109 15h588q79 0 109 -15q59 -30 59 -106q0 -75 -59 -105q-32 -16 -109 -16h-588q-77 0 -109 16 q-59 30 -59 105z" />
<glyph unicode="&#x3e;" d="M153 293q0 37 19 63q12 18 30.5 30.5t59.5 33.5l331 165l-331 165q-42 21 -60 33.5t-30 29.5q-19 26 -19 64q0 50 34 90t82 40q38 0 105 -34l487 -239q29 -15 45 -25t37 -28t30.5 -41.5t9.5 -54.5t-9.5 -55t-30.5 -42.5t-37 -28.5t-45 -25l-487 -237q-69 -34 -105 -34 q-48 0 -82 40t-34 90z" />
<glyph unicode="?" horiz-adv-x="1071" d="M141 1114q0 55 30 122.5t88 120.5q122 113 307 113q120 0 217 -46.5t155.5 -138.5t58.5 -214q0 -79 -23 -133.5t-76 -124.5l-123 -161q-42 -55 -58 -118q-13 -47 -41 -77q-38 -39 -99 -39t-100 41q-32 33 -32 91q0 93 74 186l153 193q59 73 59 142t-45 114.5t-117 45.5 q-80 0 -126 -49q-31 -33 -51 -98q-11 -37 -37 -67q-32 -33 -93 -33q-55 0 -89 36q-32 33 -32 94zM416 155q0 66 47.5 113t113.5 47t113 -47t47 -113t-47 -113.5t-113 -47.5t-113.5 47.5t-47.5 113.5z" />
<glyph unicode="@" horiz-adv-x="1551" d="M117 342v613q0 131 28.5 224t96.5 162q69 69 163 97t222 28h298q128 0 222 -28t163 -97q68 -69 96.5 -162t28.5 -224v-794q0 -75 -17 -110q-14 -27 -43 -43t-66 -16q-41 0 -72 21t-40 54q-5 15 -6 32q-51 -58 -109.5 -85t-142.5 -27q-159 0 -257 103q-60 63 -78 146 t-18 236q0 152 17.5 235.5t75.5 145.5q93 104 258 104q151 0 243 -101v89q0 138 -72 210t-206 72h-253q-134 0 -206 -72q-40 -40 -55.5 -90t-15.5 -120v-589q0 -64 11 -96t44 -71q26 -30 34.5 -49.5t8.5 -45.5q0 -55 -46 -95q-37 -33 -87 -33q-36 0 -62 18.5t-63 60.5 q-51 59 -73 123.5t-22 173.5zM841 472q0 -130 38 -196t132 -66q93 0 131 66t38 196t-38 196t-131 66q-94 0 -132 -66t-38 -196z" />
<glyph unicode="A" horiz-adv-x="1302" d="M47 93q-3 16 -3 30q0 15 3 27q6 26 23 69l420 1116q26 70 59 97q38 34 102 34q65 0 103 -34q31 -26 58 -97l421 -1116q17 -43 23 -69q3 -13 3 -27.5t-3 -29.5q-6 -31 -30 -57q-41 -44 -103 -44q-45 0 -79 26q-18 14 -29 35t-31 73l-48 132h-569l-49 -132q-20 -52 -31 -73 t-29 -35q-34 -26 -79 -26q-61 0 -102 44q-24 26 -30 57zM456 498h391l-196 529z" />
<glyph unicode="B" horiz-adv-x="1351" d="M169 174v1110q0 29 1.5 46t10.5 43t28 45t45 28t43 10.5t46 1.5h415q213 0 332.5 -110t119.5 -299q0 -110 -56.5 -189.5t-125.5 -111.5q38 -17 70 -42t64 -63.5t50.5 -96t18.5 -126.5q0 -199 -124 -309.5t-325 -110.5h-439q-29 0 -46 1.5t-43 10.5t-45 28t-28 45 t-10.5 43t-1.5 46zM456 254h298q92 0 141 51t49 129t-48.5 128t-141.5 50h-298v-358zM456 868h279q89 0 139 46t50 122t-50 122t-139 46h-279v-336z" />
<glyph unicode="C" horiz-adv-x="1262" d="M119 729q0 84 1 132t5.5 111t14 103t26 86t41.5 83t61 73q151 153 388 153q128 0 216.5 -31.5t157.5 -99.5q65 -62 95 -131t30 -121q0 -70 -38 -108q-39 -39 -99 -39q-50 0 -82 25q-39 31 -71 101q-68 151 -215 151q-103 0 -173 -78q-44 -52 -57.5 -131.5t-13.5 -278.5 t13.5 -278.5t57.5 -131.5q69 -77 173 -77q147 0 215 150q32 71 71 102q31 24 82 24q60 0 99 -39q38 -38 38 -108q0 -52 -30 -121t-95 -131q-69 -68 -157.5 -99.5t-216.5 -31.5q-237 0 -388 153q-36 36 -61 73t-41.5 83t-26 86t-14 103t-5.5 111t-1 132z" />
<glyph unicode="D" horiz-adv-x="1352" d="M169 174v1110q0 29 1.5 46t10.5 43t28 45t45 28t43 10.5t46 1.5h354q150 0 254.5 -50.5t186.5 -162.5q63 -86 78.5 -193.5t15.5 -322.5t-15.5 -322.5t-78.5 -193.5q-82 -112 -186.5 -162.5t-254.5 -50.5h-354q-29 0 -46 1.5t-43 10.5t-45 28t-28 45t-10.5 43t-1.5 46z M456 254h217q141 0 213 90q38 48 48.5 125t10.5 260t-10.5 260t-48.5 125q-72 90 -213 90h-217v-950z" />
<glyph unicode="E" horiz-adv-x="1235" d="M169 174v1110q0 29 1.5 46t10.5 43t28 45t45 28t43 10.5t46 1.5h625q79 0 111 -16q27 -14 44 -44t17 -67t-17 -66.5t-44 -43.5q-34 -17 -111 -17h-512v-342h413q80 0 112 -16q27 -14 43.5 -44t16.5 -67t-16.5 -66.5t-43.5 -43.5q-34 -17 -112 -17h-413v-354h512 q79 0 111 -16q27 -14 44 -44t17 -67t-17 -67t-44 -44q-32 -16 -111 -16h-625q-29 0 -46 1.5t-43 10.5t-45 28t-28 45t-10.5 43t-1.5 46z" />
<glyph unicode="F" horiz-adv-x="1206" d="M169 184v1100q0 29 1.5 46t10.5 43t28 45t45 28t43 10.5t46 1.5h626q79 0 111 -16q27 -14 44 -44t17 -67t-17 -66.5t-44 -43.5q-34 -17 -111 -17h-513v-358h413q78 0 112 -17q27 -14 43.5 -43.5t16.5 -66.5t-16.5 -67t-43.5 -44q-32 -16 -112 -16h-413v-408 q0 -51 -3.5 -75t-16.5 -50q-17 -31 -50 -49t-74 -18t-74 18t-50 49q-12 25 -15.5 49t-3.5 76z" />
<glyph unicode="G" horiz-adv-x="1300" d="M119 729q0 84 1 132t5.5 111t14 103t26 86t41.5 83t61 73q151 153 388 153q128 0 216.5 -31.5t157.5 -99.5q65 -62 95 -131t30 -121q0 -70 -38 -108q-39 -39 -99 -39q-50 0 -82 25q-39 31 -71 101q-68 151 -215 151q-103 0 -173 -78q-44 -52 -57.5 -131.5t-13.5 -278.5 q0 -204 14 -283.5t56 -126.5q67 -77 183 -77q112 0 182 73q37 39 51 88t14 128h-102q-75 0 -112 18q-27 13 -43.5 42.5t-16.5 66.5t16.5 67t43.5 44q33 16 112 16h200q29 0 46 -1.5t43 -10.5t45 -28t28 -45t10.5 -43t1.5 -46v-15q0 -165 -29 -269.5t-107 -182.5 q-83 -83 -173 -119.5t-210 -36.5q-240 0 -391 153q-36 36 -61 73t-41.5 83t-26 86t-14 103t-5.5 111t-1 132z" />
<glyph unicode="H" horiz-adv-x="1404" d="M169 184v1090q0 52 3.5 76t15.5 49q17 31 50 49t74 18t74 -18t50 -49q13 -26 16.5 -50t3.5 -75v-410h493v410q0 51 3.5 75t16.5 50q17 31 50 49t74 18t74 -18t50 -49q12 -25 15.5 -49t3.5 -76v-1090q0 -52 -3.5 -76t-15.5 -49q-17 -31 -50 -49t-74 -18t-74 18t-50 49 q-13 26 -16.5 50t-3.5 75v426h-493v-426q0 -51 -3.5 -75t-16.5 -50q-17 -31 -50 -49t-74 -18t-74 18t-50 49q-12 25 -15.5 49t-3.5 76z" />
<glyph unicode="I" horiz-adv-x="624" d="M169 184v1090q0 52 3.5 76t15.5 49q17 31 50 49t74 18t74 -18t50 -49q13 -26 16.5 -50t3.5 -75v-1090q0 -51 -3.5 -75t-16.5 -50q-17 -31 -50 -49t-74 -18t-74 18t-50 49q-12 25 -15.5 49t-3.5 76z" />
<glyph unicode="J" horiz-adv-x="1059" d="M51 182q0 55 40 92q36 30 78 30q33 0 97 -31q62 -31 132 -31q107 0 168.5 63.5t61.5 186.5v782q0 52 3.5 76t15.5 49q17 31 50 49t74 18t74 -18t50 -49q12 -25 15.5 -49t3.5 -76v-795q0 -117 -42 -212t-114 -155t-164.5 -92t-195.5 -32q-170 0 -282 81q-65 48 -65 113z " />
<glyph unicode="K" horiz-adv-x="1317" d="M169 184v1090q0 52 3.5 76t15.5 49q17 31 50 49t74 18t74 -18t50 -49q13 -26 16.5 -50t3.5 -75v-441l454 547q41 49 67.5 67.5t62.5 18.5q49 0 87 -32q52 -43 52 -102q0 -29 -13.5 -54t-50.5 -69l-272 -329l360 -632q44 -75 46 -115v-7q-1 -31 -17 -60q-18 -32 -53 -52 q-39 -22 -76 -22q-28 0 -49 8t-39 27.5t-28 35t-28 46.5l-317 555l-186 -226v-254q0 -51 -3.5 -75t-16.5 -50q-17 -31 -50 -49t-74 -18t-74 18t-50 49q-12 25 -15.5 49t-3.5 76z" />
<glyph unicode="L" horiz-adv-x="1175" d="M169 174v1100q0 52 3.5 76t15.5 49q17 31 50 49t74 18t74 -18t50 -49q13 -26 16.5 -50t3.5 -75v-1020h496q80 0 112 -16q27 -14 43.5 -44t16.5 -67t-16.5 -67t-43.5 -44q-32 -16 -112 -16h-609q-29 0 -46 1.5t-43 10.5t-45 28t-28 45t-10.5 43t-1.5 46z" />
<glyph unicode="M" horiz-adv-x="1660" d="M169 184v1105q0 50 9 81.5t34 56.5q39 39 96 39q50 0 85 -23q41 -25 73 -88l364 -695l365 695q32 63 73 88q35 23 85 23q57 0 96 -39q25 -25 34 -56.5t9 -81.5v-1105q0 -52 -3.5 -76t-15.5 -49q-17 -31 -50 -49t-74 -18t-74 18t-50 49q-13 26 -16.5 50t-3.5 75v661 l-237 -468q-28 -55 -58 -78t-80 -23t-79.5 23t-57.5 78l-237 468v-661q0 -51 -3.5 -75t-16.5 -50q-17 -31 -50 -49t-74 -18t-74 18t-50 49q-12 25 -15.5 49t-3.5 76z" />
<glyph unicode="N" horiz-adv-x="1457" d="M169 184v1104q0 94 39 134q44 44 107 44q48 0 83.5 -29.5t84.5 -101.5l518 -766v705q0 51 3.5 75t16.5 50q17 31 50 49t74 18t74 -18t50 -49q12 -25 15.5 -49t3.5 -76v-1104q0 -95 -39 -134q-44 -44 -107 -44q-47 0 -83 30t-84 101l-519 766v-705q0 -51 -3.5 -75 t-16.5 -50q-17 -31 -50 -49t-74 -18t-74 18t-50 49q-12 25 -15.5 49t-3.5 76z" />
<glyph unicode="O" horiz-adv-x="1318" d="M119 729q0 84 1 132t5.5 111t14 103t26 86t41.5 83t61 73q151 153 391 153q241 0 392 -153q36 -36 61 -73t41.5 -83t26 -86t14 -103t5.5 -111t1 -132t-1 -132t-5.5 -111t-14 -103t-26 -86t-41.5 -83t-61 -73q-151 -153 -392 -153q-240 0 -391 153q-36 36 -61 73t-41.5 83 t-26 86t-14 103t-5.5 111t-1 132zM406 729q0 -204 14 -282.5t56 -125.5q70 -79 183 -79q114 0 184 79q42 47 56 125.5t14 282.5t-14 283.5t-56 126.5q-68 78 -184 78q-115 0 -183 -78q-42 -47 -56 -126.5t-14 -283.5z" />
<glyph unicode="P" horiz-adv-x="1288" d="M169 184v1100q0 29 1.5 46t10.5 43t28 45t45 28t43 10.5t46 1.5h393q220 0 351 -130.5t131 -323.5t-131 -324t-351 -131h-280v-365q0 -51 -3.5 -75t-16.5 -50q-17 -31 -50 -49t-74 -18t-74 18t-50 49q-12 25 -15.5 49t-3.5 76zM456 803h264q96 0 153.5 55.5t57.5 145.5 t-57.5 145t-153.5 55h-264v-401z" />
<glyph unicode="Q" horiz-adv-x="1318" d="M119 729q0 84 1 132t5.5 111t14 103t26 86t41.5 83t61 73q151 153 391 153q241 0 392 -153q36 -36 61 -73t41.5 -83t26 -86t14 -103t5.5 -111t1 -132q0 -206 -15.5 -317t-74.5 -199l44 -44q44 -44 54 -75q5 -15 5 -30q0 -38 -33 -71q-34 -34 -72 -34q-15 0 -30 5 q-29 9 -74 54l-48 48q-125 -78 -297 -78q-240 0 -391 153q-36 36 -61 73t-41.5 83t-26 86t-14 103t-5.5 111t-1 132zM406 729q0 -204 14 -282.5t56 -125.5q70 -79 183 -79q53 0 95 25l-65 66q-44 44 -54 75q-5 15 -5 29q0 38 34 72t72 34q14 0 29 -5q29 -9 75 -55l46 -45 q27 74 27 291q0 204 -14 283.5t-56 126.5q-68 78 -184 78q-115 0 -183 -78q-42 -47 -56 -126.5t-14 -283.5z" />
<glyph unicode="R" horiz-adv-x="1339" d="M169 184v1100q0 29 1.5 46t10.5 43t28 45t45 28t43 10.5t46 1.5h398q109 0 199.5 -35t150 -96t92 -141.5t32.5 -172.5q0 -131 -69.5 -232.5t-194.5 -152.5l218 -380q44 -75 46 -115v-7q-1 -31 -17 -60q-18 -32 -53 -52q-39 -22 -76 -22q-28 0 -49 8t-38.5 27.5 t-27.5 34.5t-28 47l-271 472h-199v-397q0 -51 -3.5 -75t-16.5 -50q-17 -31 -50 -49t-74 -18t-74 18t-50 49q-12 25 -15.5 49t-3.5 76zM456 820h270q93 0 149 53t56 139q0 87 -56 139.5t-149 52.5h-270v-384z" />
<glyph unicode="S" horiz-adv-x="1213" d="M67 229q0 56 38 94q31 31 80 31q43 0 116 -39q79 -41 138.5 -58t138.5 -17q125 0 192 48t67 135q0 79 -44 122q-38 37 -131 50l-175 26q-185 27 -282 121q-105 102 -105 286q0 197 137.5 319.5t370.5 122.5q179 0 330 -70q54 -25 85.5 -62t31.5 -81q0 -47 -33 -88 q-33 -39 -85 -39q-41 0 -107 33q-110 58 -230 58q-108 0 -166 -51t-58 -126q0 -72 42 -111q48 -43 135 -56l171 -25q188 -27 280 -114q112 -105 112 -308q0 -137 -72 -238.5t-194 -152.5t-276 -51q-117 0 -196.5 16.5t-165.5 57.5q-76 36 -110.5 72.5t-34.5 94.5z" />
<glyph unicode="T" horiz-adv-x="1165" d="M51 1331q0 37 17 67t44 44q32 16 111 16h719q80 0 112 -16q27 -14 43.5 -44t16.5 -67t-16.5 -66.5t-43.5 -43.5q-34 -17 -112 -17h-216v-1020q0 -52 -3.5 -76t-15.5 -49q-17 -31 -50 -49t-74 -18t-74 18t-50 49q-13 26 -16.5 50t-3.5 75v1020h-216q-77 0 -111 17 q-27 14 -44 43.5t-17 66.5z" />
<glyph unicode="U" horiz-adv-x="1363" d="M145 500v774q0 51 3.5 75t16.5 50q17 31 50 49t74 18t74 -18t50 -49q12 -25 15.5 -49t3.5 -76v-764q0 -125 67 -196.5t183 -71.5t183 71.5t67 196.5v764q0 52 3.5 76t15.5 49q17 31 50 49t74 18t74 -18t50 -49q13 -26 16.5 -50t3.5 -75v-774q0 -151 -72 -269t-194 -180.5 t-271 -62.5t-271 62.5t-194 180.5t-72 269z" />
<glyph unicode="V" horiz-adv-x="1171" d="M40 1361q7 51 49.5 78t86.5 27q52 0 84 -32q18 -18 28.5 -39t25.5 -66l272 -832l271 832q15 45 25.5 66t28.5 39q32 32 84 32q44 0 87 -27.5t50 -77.5q1 -7 1 -16q0 -37 -21 -101l-373 -1112q-25 -76 -57 -105q-39 -35 -96 -35q-59 0 -98 35q-32 29 -57 105l-372 1112 q-20 62 -20 100q0 9 1 17z" />
<glyph unicode="W" horiz-adv-x="1787" d="M56 1325q-1 7 -1 15q0 15 3 33q9 39 48.5 66t86.5 27q58 0 90 -38q16 -18 24.5 -39.5t20.5 -70.5l193 -778l234 807q16 56 46 86q33 32 93 32t93 -32q30 -30 46 -86l234 -807l193 778q12 49 20.5 70.5t24.5 39.5q32 38 90 38q47 0 86.5 -27t48.5 -66q3 -18 3 -33 q-1 -8 -1 -15q-2 -21 -14 -72l-276 -1106q-21 -86 -67 -122q-43 -33 -97 -33t-97 33q-42 34 -67 122l-220 758l-220 -758q-25 -88 -67 -122q-43 -33 -97 -33t-97 33q-46 36 -67 122l-276 1106q-12 51 -14 72z" />
<glyph unicode="X" horiz-adv-x="1162" d="M69 133q2 40 46 115l291 500l-270 462q-44 75 -46 115v6q0 31 17 61q19 32 54 52q39 22 76 22q28 0 49 -8t38.5 -26.5t28 -34.5t27.5 -47l201 -362l201 362q17 30 28 46.5t28 35t38.5 26.5t49.5 8q36 0 75 -22q35 -20 54 -52q17 -29 17 -61v-6q-2 -40 -46 -115l-270 -462 l292 -500q44 -75 46 -115v-6q0 -31 -17 -61q-19 -32 -54 -52q-39 -22 -76 -22q-28 0 -49 8t-38.5 27.5t-27.5 34.5t-28 47l-223 398l-223 -398q-18 -32 -28 -47t-27.5 -34.5t-38.5 -27.5t-49 -8q-37 0 -76 22q-35 20 -53 52q-17 29 -17 60v7z" />
<glyph unicode="Y" horiz-adv-x="1105" d="M43 1341q1 32 20.5 61.5t54.5 47.5q33 16 66 16q38 0 67 -21q19 -13 31 -31.5t36 -65.5l235 -474l234 474q23 46 36 64.5t32 32.5q29 21 67 21q33 0 66 -16q35 -18 54.5 -47.5t20.5 -61.5v-6q0 -20 -7 -39q-7 -21 -30 -67l-330 -658v-387q0 -52 -3.5 -76t-15.5 -49 q-17 -31 -50 -49t-74 -18t-74 18t-50 49q-12 25 -15.5 49t-3.5 76v387l-330 658q-23 46 -30 67q-7 19 -7 39v6z" />
<glyph unicode="Z" horiz-adv-x="1158" d="M81 152q0 47 48 122l586 930h-434q-78 0 -112 17q-27 14 -43.5 43.5t-16.5 66.5t16.5 67t43.5 44q32 16 112 16h587q56 0 92 -7.5t64 -35.5q44 -44 44 -108q0 -47 -48 -123l-586 -930h463q80 0 112 -16q27 -14 43.5 -44t16.5 -67t-16.5 -67t-43.5 -44q-32 -16 -112 -16 h-616q-56 0 -92 7.5t-64 35.5q-44 44 -44 109z" />
<glyph unicode="[" horiz-adv-x="774" d="M163 10v1438q0 27 1 43t10 40.5t26 41.5t41.5 26t40.5 10t43 1h204q78 0 110 -16q58 -30 58 -105q0 -76 -58 -106q-30 -15 -110 -15h-100v-1278h100q80 0 110 -15q58 -30 58 -106q0 -75 -58 -105q-32 -16 -110 -16h-204q-27 0 -43 1t-40.5 10t-41.5 26t-26 41.5t-10 40.5 t-1 43z" />
<glyph unicode="\" horiz-adv-x="826" d="M38 1535q12 36 46.5 59.5t77.5 23.5q30 0 51.5 -9.5t36 -31t22 -39t18.5 -48.5l483 -1443q28 -85 15 -124q-12 -36 -46 -59.5t-77 -23.5q-30 0 -51.5 9.5t-36 31t-22 39t-18.5 48.5l-484 1443q-28 85 -15 124z" />
<glyph unicode="]" horiz-adv-x="774" d="M77 -31q0 76 58 106q30 15 110 15h100v1278h-100q-80 0 -110 15q-58 30 -58 106q0 75 58 105q32 16 110 16h205q27 0 42.5 -1t40 -10t41.5 -26t26 -41.5t10 -40.5t1 -43v-1438q0 -27 -1 -43t-10 -40.5t-26 -41.5t-41.5 -26t-40 -10t-42.5 -1h-205q-78 0 -110 16 q-58 30 -58 105z" />
<glyph unicode="^" d="M128 753q0 37 34 104l245 488q15 30 25 45.5t28 36t41.5 30t54.5 9.5t54.5 -9.5t42 -30t28.5 -36.5t25 -45l244 -488q34 -67 34 -104q0 -48 -40 -82.5t-90 -34.5q-37 0 -63 19q-18 12 -30.5 30.5t-33.5 59.5l-171 344l-171 -344q-21 -42 -33.5 -60t-29.5 -30 q-26 -19 -64 -19q-50 0 -90 34.5t-40 82.5z" />
<glyph unicode="_" horiz-adv-x="1232" d="M27 -289q0 63 49 88q30 15 90 15h901q60 0 90 -15q49 -25 49 -88t-49 -88q-28 -14 -90 -14h-901q-62 0 -90 14q-49 25 -49 88z" />
<glyph unicode="`" d="M289 1529q-5 59 55 98q30 19 63 19q31 0 58 -19q23 -15 56 -71l87 -139q38 -60 40 -92q5 -59 -55 -98q-30 -19 -63 -19q-31 0 -58 19q-24 16 -56 70l-87 140q-38 60 -40 92z" />
<glyph unicode="a" horiz-adv-x="1090" d="M70 324q0 135 94 222t274 87h248v53q0 87 -46 127.5t-141 40.5q-86 0 -171 -51q-49 -28 -88 -28q-49 0 -76 36q-30 35 -30 80q0 74 99 127q116 61 270 61q449 0 449 -377v-529q0 -52 -3.5 -74.5t-15.5 -45.5q-14 -28 -45.5 -44.5t-69.5 -16.5q-52 0 -85 31q-28 25 -39 70 q-60 -58 -117 -81.5t-147 -23.5q-178 0 -272 96q-42 42 -65 105.5t-23 134.5zM326 328q0 -57 40 -89t121 -32q54 0 90 10.5t68 40.5q23 22 32 52t9 83v58h-203q-157 0 -157 -123z" />
<glyph unicode="b" horiz-adv-x="1145" d="M148 173v1111q0 82 18 119q31 63 116 63q84 0 115 -63q18 -37 18 -119v-311q92 106 258 106q165 0 258 -96q69 -70 89.5 -176.5t20.5 -271.5q0 -166 -20.5 -273.5t-89.5 -177.5q-44 -46 -112.5 -71t-146.5 -25q-87 0 -149 25t-116 85q-11 -50 -39 -75q-33 -31 -85 -31 q-38 0 -69.5 16.5t-45.5 44.5q-12 24 -16 46.5t-4 73.5zM415 535q0 -47 2.5 -82.5t9 -72.5t19 -62.5t32 -46.5t49.5 -31.5t70 -10.5q46 0 79 16t52 41.5t30 67.5t14 83t3 98t-3.5 97.5t-14 82t-30 66.5t-52.5 41t-80 16t-80 -16t-52.5 -41t-30 -66.5t-14 -82t-3.5 -97.5z " />
<glyph unicode="c" horiz-adv-x="985" d="M96 535q0 125 29.5 222t76.5 156.5t111.5 98t128 53t132.5 14.5q121 0 209 -52q129 -67 129 -150q0 -47 -38 -87q-33 -35 -81 -35q-43 0 -93 37q-64 46 -128 46q-93 -2 -150 -70q-60 -75 -60 -233q0 -161 60 -236q58 -70 150 -70q68 0 128 45q52 39 93 39q48 0 81 -35 q38 -38 38 -88q0 -79 -129 -151q-93 -51 -211 -51q-68 0 -131.5 15t-127.5 54t-111 98.5t-76.5 157t-29.5 222.5z" />
<glyph unicode="d" horiz-adv-x="1145" d="M104 535q0 163 21 270t90 178q93 96 258 96q166 0 258 -106v311q0 82 18 119q31 63 115 63q85 0 116 -63q17 -35 17 -119v-1111q0 -52 -3.5 -74.5t-15.5 -45.5q-14 -28 -45.5 -44.5t-69.5 -16.5q-52 0 -85 31q-28 25 -39 75q-54 -60 -116 -85t-149 -25q-78 0 -146.5 25 t-112.5 71q-69 71 -90 178.5t-21 272.5zM371 535q0 -57 3 -98t14 -83t30 -67.5t52 -41.5t79 -16q40 0 70 10.5t49.5 31.5t32 46.5t19 62.5t9 72.5t2.5 82.5q0 57 -3.5 97.5t-14 82t-30 66.5t-52.5 41t-80 16t-80 -16t-52.5 -41t-30 -66.5t-14 -82t-3.5 -97.5z" />
<glyph unicode="e" horiz-adv-x="1117" d="M96 534q0 257 126.5 401t337.5 144q140 0 245 -63.5t159.5 -170t59.5 -242.5v-8q0 -75 -36 -111q-16 -16 -38.5 -23.5t-36.5 -8.5t-42 -1h-513q0 -107 61.5 -172.5t174.5 -65.5q108 0 184 57q56 40 100 40q40 0 73.5 -33.5t33.5 -77.5q0 -68 -104 -138q-109 -73 -291 -73 q-80 0 -149 15t-134 53.5t-110.5 98.5t-73 157t-27.5 222zM358 633h405q-3 68 -24 116q-23 50 -68.5 79.5t-110.5 29.5q-64 0 -110 -29.5t-68 -79.5q-23 -52 -24 -116z" />
<glyph unicode="f" horiz-adv-x="719" d="M38 935q0 63 49 88q28 14 90 14h28v131q0 61 17.5 114t53 97t96.5 69.5t141 25.5h14q72 0 110 -19q53 -27 53 -95q0 -69 -53 -95q-29 -14 -80 -17q-86 -5 -86 -94v-117h80q62 0 90 -14q49 -25 49 -88t-49 -88q-28 -14 -90 -14h-80v-659q0 -84 -17 -119q-31 -63 -116 -63 t-116 63q-17 35 -17 119v659h-28q-62 0 -90 14q-49 25 -49 88z" />
<glyph unicode="g" horiz-adv-x="1135" d="M104 563q0 163 20 258t89 164q94 94 256 94q85 0 145.5 -25.5t113.5 -86.5q12 53 40 77q33 31 85 31q38 0 69.5 -16.5t45.5 -44.5q12 -23 15.5 -45.5t3.5 -74.5v-855q0 -195 -128 -318.5t-341 -123.5q-160 0 -268 59q-107 61 -107 135q0 48 34 81t73 33q44 0 99 -34 q80 -49 158 -49q111 0 162.5 64t51.5 157v109q-96 -107 -254 -107q-160 0 -254 94q-69 69 -89 165t-20 259zM371 563q0 -48 3 -83t13 -74t28.5 -63t51 -40t78.5 -16t79 16t51.5 40t29 63t13.5 74t3 83t-3 83t-13.5 73.5t-29 62.5t-51.5 40t-79 16t-78.5 -16t-51 -40 t-28.5 -62.5t-13 -73.5t-3 -83z" />
<glyph unicode="h" horiz-adv-x="1173" d="M148 174v1110q0 82 18 119q31 63 116 63q84 0 115 -63q18 -37 18 -119v-315q107 110 260 110q158 0 252 -94q61 -61 84.5 -134t23.5 -169v-508q0 -84 -17 -119q-31 -63 -116 -63t-116 63q-17 35 -17 119v471q0 99 -52 146t-124 47q-73 0 -125.5 -47t-52.5 -146v-471 q0 -82 -18 -119q-31 -63 -115 -63q-85 0 -116 63q-18 37 -18 119z" />
<glyph unicode="i" horiz-adv-x="563" d="M128 1367q0 64 45 109t109 45t108.5 -45t44.5 -109t-44.5 -109t-108.5 -45t-109 45t-45 109zM148 174v688q0 82 18 119q31 63 116 63q84 0 115 -63q18 -37 18 -119v-688q0 -82 -18 -119q-31 -63 -115 -63q-85 0 -116 63q-18 37 -18 119z" />
<glyph unicode="j" horiz-adv-x="565" d="M-71 -286q0 70 54 96q27 13 79 16q86 5 86 94v942q0 82 18 119q31 63 116 63q84 0 115 -63q18 -37 18 -119v-956q0 -61 -17.5 -114t-53.5 -96.5t-97 -69t-141 -25.5h-14q-73 0 -109 18q-54 27 -54 95zM128 1367q0 64 45 109t109 45t108.5 -45t44.5 -109t-44.5 -109 t-108.5 -45t-109 45t-45 109z" />
<glyph unicode="k" horiz-adv-x="1078" d="M148 174v1110q0 82 18 119q31 63 116 63q84 0 115 -63q18 -37 18 -119v-655l323 369q38 43 63 60t56 17q47 0 83 -32q42 -36 42 -90q0 -26 -13.5 -50.5t-47.5 -63.5l-198 -225l246 -388q45 -72 45 -110q0 -62 -63 -102q-37 -22 -71 -22q-40 0 -66.5 22.5t-60.5 76.5 l-215 341l-123 -141v-117q0 -82 -18 -119q-31 -63 -115 -63q-85 0 -116 63q-18 37 -18 119z" />
<glyph unicode="l" horiz-adv-x="652" d="M140 305v979q0 82 18 119q31 63 115 63q85 0 116 -63q18 -37 18 -119v-965q0 -89 86 -94q52 -3 79 -16q54 -26 54 -95t-54 -96q-36 -18 -109 -18h-14q-80 0 -141 25.5t-97 69t-53.5 96.5t-17.5 114z" />
<glyph unicode="m" horiz-adv-x="1794" d="M148 174v720q0 51 4 73.5t16 46.5q14 28 45.5 44.5t69.5 16.5q52 0 85 -31q28 -24 40 -77q50 55 120.5 83.5t146.5 28.5q182 0 282 -135q68 71 144 103t176 32q79 0 148.5 -25t113.5 -69q117 -117 117 -303v-508q0 -82 -18 -119q-31 -63 -115 -63q-85 0 -116 63 q-17 35 -17 119v471q0 99 -52 146t-125 47q-71 0 -124.5 -46t-53.5 -141v-477q0 -84 -17 -119q-31 -63 -116 -63t-116 63q-17 35 -17 119v471q0 99 -52 146t-124 47q-73 0 -125.5 -47t-52.5 -146v-471q0 -82 -18 -119q-31 -63 -115 -63q-85 0 -116 63q-18 37 -18 119z" />
<glyph unicode="n" horiz-adv-x="1173" d="M148 174v720q0 51 4 73.5t16 46.5q14 28 45.5 44.5t69.5 16.5q52 0 85 -31q28 -24 40 -77q50 55 120.5 83.5t146.5 28.5q158 0 252 -94q61 -61 84.5 -134t23.5 -169v-508q0 -84 -17 -119q-31 -63 -116 -63t-116 63q-17 35 -17 119v471q0 99 -52 146t-124 47 q-73 0 -125.5 -47t-52.5 -146v-471q0 -82 -18 -119q-31 -63 -115 -63q-85 0 -116 63q-18 37 -18 119z" />
<glyph unicode="o" horiz-adv-x="1114" d="M104 534q0 152 26 246t96 168q125 131 331 131t331 -131q70 -74 96 -168t26 -246t-26 -246.5t-96 -168.5q-125 -131 -331 -131t-331 131q-70 74 -96 168.5t-26 246.5zM371 534q0 -97 12.5 -159.5t49.5 -99.5q46 -46 124 -46t124 46q37 37 49.5 99.5t12.5 159.5t-12.5 159 t-49.5 99q-46 46 -124 46t-124 -46q-37 -37 -49.5 -99t-12.5 -159z" />
<glyph unicode="p" horiz-adv-x="1145" d="M148 -217v1111q0 51 4 73.5t16 46.5q14 28 45.5 44.5t69.5 16.5q52 0 85 -31q28 -25 39 -75q54 60 116 85t149 25q78 0 146.5 -25t112.5 -71q69 -70 89.5 -177.5t20.5 -273.5q0 -165 -20.5 -271.5t-89.5 -176.5q-93 -96 -258 -96q-166 0 -258 106v-311q0 -82 -18 -119 q-31 -63 -115 -63q-85 0 -116 63q-18 37 -18 119zM415 532q0 -57 3.5 -97.5t14 -82t30 -66.5t52.5 -41t80 -16t80 16t52.5 41t30 66.5t14 82t3.5 97.5t-3 98t-14 83t-30 67.5t-52 41.5t-79 16q-40 0 -70 -10.5t-49.5 -31.5t-32 -46.5t-19 -62.5t-9 -72.5t-2.5 -82.5z" />
<glyph unicode="q" horiz-adv-x="1145" d="M104 532q0 165 21 272.5t90 178.5q44 46 112.5 71t146.5 25q87 0 149 -25t116 -85q11 50 39 75q33 31 85 31q38 0 69.5 -16.5t45.5 -44.5q12 -23 15.5 -45.5t3.5 -74.5v-1111q0 -84 -17 -119q-31 -63 -116 -63q-84 0 -115 63q-18 37 -18 119v311q-92 -106 -258 -106 q-165 0 -258 96q-69 71 -90 178t-21 270zM371 532q0 -57 3.5 -97.5t14 -82t30 -66.5t52.5 -41t80 -16t80 16t52.5 41t30 66.5t14 82t3.5 97.5q0 47 -2.5 82.5t-9 72.5t-19 62.5t-32 46.5t-49.5 31.5t-70 10.5q-46 0 -79 -16t-52 -41.5t-30 -67.5t-14 -83t-3 -98z" />
<glyph unicode="r" horiz-adv-x="934" d="M148 174v720q0 51 4 73.5t16 46.5q14 28 45.5 44.5t69.5 16.5q52 0 85 -31q32 -28 40 -80q41 49 110 82t144 33q110 0 184 -49q67 -45 67 -111q0 -58 -40 -98q-37 -37 -89 -37q-35 0 -91 28t-101 28q-73 0 -125 -51t-52 -146v-469q0 -82 -18 -119q-31 -63 -115 -63 q-85 0 -116 63q-18 37 -18 119z" />
<glyph unicode="s" horiz-adv-x="1025" d="M63 185q0 56 43 91q34 27 71 27q34 0 88 -31q105 -62 237 -62q80 0 134 29t54 86q0 88 -112 99l-168 15q-314 29 -314 301q0 80 34 145.5t91.5 107t131.5 64t157 22.5q152 0 275 -51q57 -22 85 -52q28 -32 28 -75q0 -47 -35 -82q-32 -32 -75 -32q-26 0 -77 23 q-115 53 -207 53q-73 0 -112 -30.5t-39 -74.5q0 -45 28 -66.5t83 -26.5l167 -17q157 -14 237.5 -94.5t80.5 -217.5q0 -86 -35 -153.5t-96.5 -109.5t-142.5 -63.5t-177 -21.5q-124 0 -211 22.5t-159 72.5q-65 44 -65 102z" />
<glyph unicode="t" horiz-adv-x="749" d="M36 934q0 64 49 88q28 14 90 14h27v143q0 83 17 118q14 30 45 47t71 17t71 -17t45 -47q17 -35 17 -118v-143h80q62 0 90 -14q49 -24 49 -88t-49 -88q-30 -15 -90 -15h-80v-512q0 -89 86 -94q53 -3 80 -16q53 -26 53 -95q0 -70 -53 -96q-36 -18 -110 -18h-14 q-80 0 -141 25.5t-96.5 69t-53 96.5t-17.5 114v526h-27q-60 0 -90 15q-49 24 -49 88z" />
<glyph unicode="u" horiz-adv-x="1173" d="M138 385v508q0 82 18 119q31 63 115 63q85 0 116 -63q17 -35 17 -119v-471q0 -99 52 -146t125 -47t125.5 47t52.5 146v471q0 84 17 119q31 63 116 63t116 -63q17 -35 17 -119v-720q0 -52 -3.5 -74.5t-15.5 -45.5q-14 -28 -45.5 -44.5t-69.5 -16.5q-52 0 -85 31 q-28 24 -40 77q-50 -55 -120.5 -83.5t-146.5 -28.5q-158 0 -252 94q-61 61 -85 134.5t-24 168.5z" />
<glyph unicode="v" horiz-adv-x="940" d="M47 992q12 36 46.5 59.5t77.5 23.5q30 0 51.5 -9.5t36 -31t22 -39t18.5 -48.5l171 -519l171 519q11 31 18.5 48.5t22 39t36 31t51.5 9.5q43 0 77.5 -23.5t46.5 -59.5q4 -12 4 -29q0 -37 -19 -95l-250 -734q-26 -77 -61 -108q-38 -34 -97 -34t-97 34q-35 31 -61 108 l-250 734q-19 58 -19 95q0 17 4 29z" />
<glyph unicode="w" horiz-adv-x="1525" d="M50 984q9 38 44.5 64.5t78.5 26.5q51 0 85 -34q16 -17 25 -36.5t21 -63.5l151 -531l166 529q26 82 56 107q33 29 86 29t86 -29q30 -25 56 -107l166 -529l151 531q12 44 21 63.5t25 36.5q34 34 85 34q43 0 78.5 -26.5t44.5 -64.5q2 -10 2 -22q0 -35 -16 -90l-217 -734 q-24 -84 -59 -112q-42 -34 -96 -34q-55 0 -97 34q-33 26 -59 112l-171 538l-171 -538q-26 -85 -60 -112q-42 -34 -96 -34t-96 34q-35 28 -59 112l-218 734q-16 52 -16 86q0 15 3 26z" />
<glyph unicode="x" horiz-adv-x="946" d="M69 116q0 42 45 110l204 313l-196 302q-45 68 -45 110q0 63 62 102q37 22 72 22q40 0 66.5 -22.5t60.5 -76.5l136 -221l135 221q32 53 59.5 76t67.5 23q35 0 72 -22q62 -39 62 -102q0 -40 -45 -110l-194 -304l202 -311q45 -68 45 -110q0 -62 -63 -102q-37 -22 -72 -22 q-40 0 -66.5 22.5t-60.5 76.5l-142 234l-144 -234q-34 -54 -60.5 -76.5t-66.5 -22.5q-35 0 -72 22q-62 39 -62 102z" />
<glyph unicode="y" horiz-adv-x="940" d="M47 992q12 36 46.5 59.5t77.5 23.5q30 0 51.5 -9.5t36 -31t22 -39t18.5 -48.5l170 -528l172 528q11 31 18.5 48.5t22 39t36 31t51.5 9.5q43 0 77.5 -23.5t46.5 -59.5q4 -12 4 -29q0 -37 -19 -95l-360 -1043q-26 -79 -81 -136q-83 -84 -218 -84q-70 0 -102 16 q-59 30 -59 106q0 75 59 105q24 12 65 12t70 22t48 77l38 113l-276 812q-19 58 -19 95q0 17 4 29z" />
<glyph unicode="z" horiz-adv-x="963" d="M60 113q0 33 11 58.5t44 69.5l428 584h-289q-78 0 -110 16q-58 30 -58 105q0 76 58 106q30 15 110 15h483q77 0 111 -19q26 -14 40 -40t14 -54q0 -34 -11 -59t-43 -69l-432 -584h319q78 0 110 -16q58 -30 58 -105q0 -76 -58 -106q-30 -15 -110 -15h-510q-76 0 -110 19 q-26 14 -40.5 40t-14.5 54z" />
<glyph unicode="{" horiz-adv-x="935" d="M81 729q0 53 33 86q16 16 37 22.5t71 15.5q41 6 67 34q36 36 36 123v297q0 141 84 226q76 76 220 76h64q74 0 107 -16q26 -12 42 -40t16 -63q0 -36 -15.5 -64t-41.5 -41q-33 -16 -81 -16q-69 0 -97 -27q-32 -31 -32 -132v-276q0 -52 -13.5 -90.5t-39 -61t-43.5 -33 t-45 -20.5q27 -10 45 -20.5t43.5 -33t39 -61t13.5 -90.5v-276q0 -101 32 -132q28 -27 97 -27q48 0 81 -16q26 -13 41.5 -41t15.5 -64q0 -35 -16 -63t-42 -40q-33 -16 -107 -16h-64q-144 0 -220 76q-84 85 -84 227v297q0 86 -36 122q-26 28 -67 34q-50 9 -71 15.5t-37 22.5 q-33 33 -33 86z" />
<glyph unicode="|" horiz-adv-x="716" d="M225 23v1413q0 81 18 118q31 64 115 64q40 0 71 -17t45 -47q18 -37 18 -118v-1413q0 -82 -18 -119q-14 -30 -45 -47t-71 -17q-84 0 -115 64q-18 37 -18 119z" />
<glyph unicode="}" horiz-adv-x="935" d="M78 -32q0 36 15.5 64t41.5 41q33 16 81 16q69 0 97 27q32 31 32 132v276q0 52 13.5 90.5t39 61t43.5 33t45 20.5q-27 10 -45 20.5t-43.5 33t-39 61t-13.5 90.5v276q0 101 -32 132q-28 27 -97 27q-48 0 -81 16q-26 13 -41.5 41t-15.5 64q0 35 16 63t42 40q33 16 107 16h64 q144 0 220 -76q84 -85 84 -226v-297q0 -87 36 -123q26 -28 67 -34q50 -9 71 -15.5t37 -22.5q33 -33 33 -86t-33 -86q-16 -16 -37 -22.5t-71 -15.5q-41 -6 -67 -34q-36 -36 -36 -122v-297q0 -142 -84 -227q-76 -76 -220 -76h-64q-74 0 -107 16q-26 12 -42 40t-16 63z" />
<glyph unicode="~" horiz-adv-x="1242" d="M88 557q0 60 68 120q64 55 122.5 76.5t135.5 21.5q111 0 238 -67q95 -51 167 -51q69 0 134 54q39 31 81 31q51 0 88 -44q32 -36 32 -80q0 -60 -69 -119q-63 -55 -121.5 -77t-135.5 -22q-108 0 -239 68q-94 50 -167 50q-67 0 -134 -53q-39 -32 -80 -32q-52 0 -89 43 q-31 39 -31 81z" />
<glyph unicode="&#xa1;" horiz-adv-x="710" d="M157 913q0 66 47.5 113t113.5 47t113 -47t47 -113t-47 -113.5t-113 -47.5t-113.5 47.5t-47.5 113.5zM175 -207v632q0 51 3.5 75t16.5 50q17 31 49.5 49t73.5 18t74 -18t50 -49q13 -26 16.5 -50t3.5 -75v-632q0 -51 -3.5 -75t-16.5 -50q-17 -31 -50 -49t-74 -18t-73.5 18 t-49.5 49q-13 26 -16.5 50t-3.5 75z" />
<glyph unicode="&#xa2;" horiz-adv-x="985" d="M96 750q0 103 20.5 187.5t54 142t81 100.5t97.5 66.5t108 35.5v16q0 80 15 110q30 58 106 58q75 0 105 -58q15 -30 15 -110v-19q36 -11 85 -37q129 -70 129 -150q0 -47 -38 -87q-33 -35 -81 -35q-43 0 -93 37q-64 46 -128 46q-93 -2 -150 -70q-60 -75 -60 -233 q0 -161 60 -236q58 -70 150 -70q68 0 128 45q52 39 93 39q48 0 81 -35q38 -38 38 -87q0 -80 -129 -152q-45 -24 -85 -36v-58q0 -80 -15 -110q-30 -58 -105 -58q-76 0 -106 58q-15 30 -15 110v54q-58 12 -108 36t-97.5 67t-81 101.5t-54 143.5t-20.5 188z" />
<glyph unicode="&#xa3;" horiz-adv-x="1241" d="M91 711q0 65 49 88q28 14 90 14h29v166q0 117 42.5 212t114.5 155t164.5 92t195.5 32q169 0 288 -76q85 -55 85 -136q0 -41 -25 -78q-32 -47 -82 -47q-41 0 -96 32q-85 52 -169 52q-107 0 -169 -63.5t-62 -186.5v-154h139q61 0 89 -14q49 -23 49 -88q0 -63 -49 -88 q-30 -15 -89 -15h-139v-354h440q80 0 112 -16q27 -14 43.5 -44t16.5 -67t-16.5 -67t-43.5 -44q-32 -16 -112 -16h-553q-29 0 -46 1.5t-43 10.5t-45 28t-28 45t-10.5 43t-1.5 46v434h-29q-60 0 -90 15q-49 25 -49 88z" />
<glyph unicode="&#xa4;" horiz-adv-x="1370" d="M132 184q7 21 20 39t46 51l71 72q-66 113 -66 240q0 124 66 237l-71 72q-33 33 -46 51t-20 39q-20 63 35 118q57 56 119 35q21 -7 38.5 -20t50.5 -46l71 -71q113 66 238 66q128 0 240 -67l71 72q33 33 50.5 46t38.5 20q62 21 119 -35q55 -55 35 -118q-7 -21 -20 -39 t-46 -51l-71 -72q64 -112 64 -237q0 -129 -65 -240l72 -72q33 -33 46 -51t20 -39q19 -63 -35 -117q-57 -56 -119 -35q-21 7 -38.5 19.5t-50.5 45.5l-72 72q-111 -65 -239 -65q-127 0 -238 65l-71 -72q-33 -33 -50.5 -45.5t-38.5 -19.5q-62 -21 -119 35q-54 54 -35 117z M444 586q0 -100 70 -170t170 -70t171 70t71 170q0 99 -71 169t-171 70t-170 -69.5t-70 -169.5z" />
<glyph unicode="&#xa5;" horiz-adv-x="1146" d="M80 1341q1 32 20.5 61.5t54.5 47.5q33 16 66 16q38 0 67 -21q19 -13 31.5 -31.5t35.5 -65.5l218 -443l219 443q24 47 36 65.5t31 31.5q29 21 67 21q33 0 66 -16q35 -18 54.5 -47.5t20.5 -61.5q1 -24 -6.5 -45t-30.5 -67l-172 -350h51q60 0 90 -15q50 -25 50 -88t-50 -88 q-28 -14 -90 -14h-154l-38 -74v-88h192q62 0 90 -14q50 -25 50 -88t-50 -88q-30 -15 -90 -15h-192v-123q0 -51 -3.5 -75t-16.5 -50q-17 -31 -50 -49t-74 -18t-73.5 18t-49.5 49q-13 26 -16.5 50t-3.5 75v123h-192q-61 0 -91 15q-49 24 -49 88t49 88q28 14 91 14h192v88 l-38 74h-154q-63 0 -91 14q-49 24 -49 88t49 88q30 15 91 15h51l-172 350q-23 46 -30.5 67t-6.5 45z" />
<glyph unicode="&#xa6;" horiz-adv-x="716" d="M225 23v368q0 82 18 119q31 63 115 63q85 0 116 -63q18 -37 18 -119v-368q0 -82 -18 -119q-14 -30 -45 -47t-71 -17q-84 0 -115 64q-18 37 -18 119zM225 1067v369q0 81 18 118q31 64 115 64q40 0 71 -17t45 -47q18 -37 18 -118v-369q0 -82 -18 -119q-31 -63 -116 -63 q-84 0 -115 63q-18 37 -18 119z" />
<glyph unicode="&#xa7;" horiz-adv-x="1092" d="M125 531q0 108 57 191.5t129 122.5q-155 81 -155 270q0 70 24.5 133t71.5 113t123.5 79.5t172.5 29.5q222 0 323 -128q64 -79 64 -161q0 -43 -17 -74q-31 -58 -104 -58q-59 0 -93 34q-23 23 -33 67q-19 97 -140 97q-67 0 -104.5 -32t-37.5 -89q0 -52 32.5 -85.5 t103.5 -56.5l122 -40q157 -51 231 -139t74 -241q0 -108 -57 -190.5t-127 -121.5q165 -82 165 -281q0 -91 -34.5 -164.5t-92 -118t-129 -68t-149.5 -23.5q-179 0 -293 100q-97 85 -97 195q0 45 17 76q14 27 43 43t65 16q55 0 88 -33q23 -23 32 -69q20 -99 145 -99 q71 0 110 35t39 98q0 105 -142 153l-123 41q-158 53 -231 139t-73 239zM381 548q0 -85 47 -135q45 -47 119 -47t119 47q47 50 47 135q0 87 -47 135q-44 47 -119 47t-119 -47q-47 -48 -47 -135z" />
<glyph unicode="&#xa8;" d="M187 1366q0 57 40.5 97t97.5 40t97 -40t40 -97t-40 -97t-97 -40t-97.5 40t-40.5 97zM650 1366q0 57 40 97t97 40t97.5 -40t40.5 -97t-40.5 -97t-97.5 -40t-97 40t-40 97z" />
<glyph unicode="&#xa9;" horiz-adv-x="1728" d="M123 729q0 151 58.5 288.5t157.5 236.5t236.5 157.5t288.5 58.5q202 0 372.5 -99t270 -269.5t99.5 -372.5t-99.5 -372.5t-270 -269.5t-372.5 -99q-151 0 -288.5 58.5t-236.5 157.5t-157.5 236.5t-58.5 288.5zM295 729q0 -163 75.5 -296t205.5 -208t288 -75t288.5 75 t206 208t75.5 296q0 122 -44.5 230t-120.5 184.5t-181.5 121t-223.5 44.5q-158 0 -288 -75t-205.5 -208.5t-75.5 -296.5zM527 729q0 183 100 284t254 101q129 0 203 -71q37 -37 37 -69q0 -34 -21 -54q-23 -23 -54 -23q-27 0 -66 29q-48 35 -99 35q-89 0 -136 -61.5 t-47 -170.5t47 -170t136 -61q52 0 99 34q39 29 66 29q32 0 54 -22q21 -20 21 -55q0 -32 -37 -69q-74 -71 -203 -71q-154 0 -254 101t-100 284z" />
<glyph unicode="&#xaa;" horiz-adv-x="928" d="M100 864q0 108 74.5 176t218.5 68h202v54q0 70 -39 102.5t-122 32.5q-76 0 -143 -46q-38 -24 -70 -24q-34 0 -53 22q-22 25 -22 62q0 59 91 109q79 44 205 44q173 0 262 -74.5t89 -220.5v-426q0 -59 -15 -86q-23 -48 -85 -48q-74 0 -94 72q-51 -47 -96 -65.5t-115 -18.5 q-140 0 -217 77q-71 71 -71 190zM292 869q0 -102 137 -102q91 0 132 41q34 34 34 112v53h-176q-63 0 -95 -27.5t-32 -76.5z" />
<glyph unicode="&#xab;" horiz-adv-x="1316" d="M69 554l318 318q33 33 50.5 46t38.5 20q62 21 119 -35q55 -55 35 -118q-7 -21 -20 -39t-46 -51l-141 -141l141 -141q33 -33 46 -51t20 -39q20 -63 -35 -118q-57 -56 -119 -35q-21 7 -38.5 20t-50.5 46zM638 554l318 318q33 33 51 46t39 20q61 20 118 -35q55 -55 35 -118 q-11 -36 -65 -90l-142 -141l142 -141q54 -54 65 -90q20 -63 -35 -118q-57 -55 -118 -35q-21 7 -39 20t-51 46z" />
<glyph unicode="&#xac;" d="M86 609q0 76 58 106q30 15 110 15h601q27 0 43 -1t40.5 -10t41.5 -26t26 -41.5t10 -40.5t1 -43v-213q0 -77 -16 -109q-30 -59 -105 -59t-105 59q-16 32 -16 109v133h-521q-78 0 -110 16q-58 30 -58 105z" />
<glyph unicode="&#xad;" horiz-adv-x="872" d="M113 585q0 75 58 105q32 16 110 16h311q77 0 109 -16q59 -30 59 -105q0 -76 -59 -106q-30 -15 -109 -15h-311q-80 0 -110 15q-58 30 -58 106z" />
<glyph unicode="&#xae;" horiz-adv-x="1728" d="M123 729q0 151 58.5 288.5t157.5 236.5t236.5 157.5t288.5 58.5q202 0 372.5 -99t270 -269.5t99.5 -372.5t-99.5 -372.5t-270 -269.5t-372.5 -99q-151 0 -288.5 58.5t-236.5 157.5t-157.5 236.5t-58.5 288.5zM295 729q0 -163 75.5 -296t205.5 -208t288 -75t288.5 75 t206 208t75.5 296q0 122 -44.5 230t-120.5 184.5t-181.5 121t-223.5 44.5q-158 0 -288 -75t-205.5 -208.5t-75.5 -296.5zM605 460v542q0 56 25 81t82 25h201q113 0 182.5 -69.5t69.5 -168.5q0 -75 -38 -125.5t-97 -74.5l103 -175q23 -43 26 -70q4 -42 -43 -69 q-22 -13 -44 -13q-27 0 -44 16.5t-39 53.5l-133 230h-80v-183q0 -54 -12 -77q-20 -40 -74 -40q-53 0 -73 40q-12 23 -12 77zM776 775h116q45 0 73.5 25.5t28.5 69.5t-28.5 69.5t-73.5 25.5h-116v-190z" />
<glyph unicode="&#xaf;" d="M227 1382q0 64 49 88q30 15 91 15h378q61 0 91 -15q49 -24 49 -88t-49 -88q-28 -14 -91 -14h-378q-63 0 -91 14q-49 24 -49 88z" />
<glyph unicode="&#xb0;" horiz-adv-x="977" d="M111 1111q0 157 110 267.5t267 110.5t267.5 -110.5t110.5 -267.5t-110.5 -267.5t-267.5 -110.5t-267 110.5t-110 267.5zM327 1111q0 -69 47 -117.5t114 -48.5t114.5 48.5t47.5 117.5t-47.5 117.5t-114.5 48.5t-114 -48.5t-47 -117.5z" />
<glyph unicode="&#xb1;" d="M93 119q0 75 59 105q32 16 109 16h588q77 0 109 -16q59 -30 59 -105q0 -76 -59 -106q-30 -15 -109 -15h-588q-79 0 -109 15q-59 30 -59 106zM95 824q0 76 59 106q30 15 109 15h172v172q0 78 16 110q30 58 105 58q76 0 106 -58q15 -30 15 -110v-172h172q79 0 109 -15 q59 -30 59 -106q0 -75 -59 -105q-32 -16 -109 -16h-172v-172q0 -79 -15 -109q-30 -58 -106 -58q-75 0 -105 58q-16 32 -16 109v172h-172q-77 0 -109 16q-59 30 -59 105z" />
<glyph unicode="&#xb2;" horiz-adv-x="679" d="M62 679q0 18 7.5 35.5t15 28t24.5 30.5l271 322q53 62 53 112q0 39 -24 62.5t-65 23.5q-68 0 -93 -70q-15 -37 -36 -52q-20 -16 -53 -16q-53 0 -76 37q-15 25 -15 56q0 35 20 73.5t49 66.5q81 78 204 78q131 0 206.5 -67.5t75.5 -191.5q0 -60 -22.5 -104.5t-65.5 -93.5 l-219 -251h199q51 0 76 -14q41 -22 41 -73q0 -53 -41 -74q-23 -13 -76 -13h-336q-69 0 -94 26q-26 28 -26 69z" />
<glyph unicode="&#xb3;" horiz-adv-x="679" d="M66 796q0 45 22 68q29 31 70 31q33 0 55 -17q23 -20 31 -52q20 -77 99 -77q43 0 69.5 26.5t26.5 74.5q0 42 -27 70t-70 29q-39 2 -58 21q-23 23 -23 60q0 40 23 63q21 21 58 21q41 0 64.5 26.5t23.5 61.5q0 43 -25.5 67t-60.5 24q-64 0 -86 -59q-14 -35 -27 -52 q-19 -27 -61 -27q-40 0 -65.5 27.5t-25.5 69.5q0 77 59 133q84 81 206 81q121 0 199 -72t78 -185q0 -117 -93 -173q104 -67 104 -192q0 -129 -83 -199t-206 -70q-136 0 -218 82q-59 57 -59 139z" />
<glyph unicode="&#xb4;" d="M466 1325q2 32 40 92l87 139q33 56 56 71q27 19 59 19t62 -19q60 -39 55 -98q-2 -32 -40 -92l-87 -140q-32 -54 -56 -70q-27 -19 -58 -19q-33 0 -63 19q-60 39 -55 98z" />
<glyph unicode="&#xb5;" horiz-adv-x="1183" d="M148 -217v1110q0 82 18 119q31 63 116 63q84 0 115 -63q18 -37 18 -119v-482q0 -94 52.5 -138t123.5 -44q73 0 125.5 47t52.5 146v471q0 84 17 119q31 63 116 63t116 -63q17 -35 17 -119v-720q0 -52 -3.5 -74.5t-15.5 -45.5q-14 -28 -45.5 -44.5t-69.5 -16.5 q-52 0 -85 31q-28 24 -40 76q-51 -54 -121 -82.5t-146 -28.5q-57 0 -94 28v-233q0 -82 -18 -119q-31 -63 -115 -63q-85 0 -116 63q-18 37 -18 119z" />
<glyph unicode="&#xb6;" horiz-adv-x="1369" d="M71 1042q0 198 128.5 307t344.5 109h493q27 0 43 -1t40.5 -10t41.5 -26t26 -41.5t10 -40.5t1 -43v-1513q0 -84 -17 -119q-31 -63 -116 -63t-116 63q-17 35 -17 119v1421h-206v-1421q0 -84 -17 -119q-31 -63 -116 -63t-116 63q-17 35 -17 119v848q-156 0 -273 121.5 t-117 289.5z" />
<glyph unicode="&#xb7;" horiz-adv-x="669" d="M156 585q0 74 52.5 126.5t126.5 52.5t126.5 -52.5t52.5 -126.5t-52.5 -126.5t-126.5 -52.5t-126.5 52.5t-52.5 126.5z" />
<glyph unicode="&#xb8;" horiz-adv-x="1114" d="M299 -417q2 32 40 92l87 140q32 54 56 70q27 19 59 19t62 -19q60 -39 55 -98q-2 -32 -40 -92l-87 -139q-33 -56 -56 -71q-27 -19 -58 -19q-33 0 -63 19q-60 39 -55 98z" />
<glyph unicode="&#xb9;" horiz-adv-x="679" d="M75 1191q8 25 49 67l157 157q51 51 107 51q46 0 75 -27q31 -30 31 -99v-630q0 -58 -14 -86q-24 -49 -85 -49t-85 49q-13 26 -13 86v455l-40 -40q-42 -41 -68 -49q-48 -15 -89 26t-25 89z" />
<glyph unicode="&#xba;" horiz-adv-x="944" d="M118 1033q0 123 23 200t80 134q97 97 251 97t251 -97q57 -57 80 -134t23 -200t-23 -200t-80 -134q-97 -97 -251 -97t-251 97q-57 57 -80 134t-23 200zM315 1033q0 -80 9 -130t40 -81q42 -44 108 -44q67 0 109 44q30 30 39 80t9 131t-9 131t-39 80q-42 44 -109 44 q-66 0 -108 -44q-31 -31 -40 -81t-9 -130z" />
<glyph unicode="&#xbb;" horiz-adv-x="1316" d="M118 323q11 36 65 90l142 141l-142 141q-54 54 -65 90q-20 63 35 118q57 55 118 35q21 -7 38.5 -20t50.5 -46l319 -318l-319 -318q-33 -33 -50.5 -46t-38.5 -20q-61 -20 -118 35q-55 55 -35 118zM687 323q7 21 20 39t46 51l141 141l-141 141q-33 33 -46 51t-20 39 q-20 63 35 118q57 56 119 35q21 -7 38.5 -20t50.5 -46l318 -318l-318 -318q-33 -33 -50.5 -46t-38.5 -20q-62 -21 -119 35q-55 55 -35 118z" />
<glyph unicode="&#xbc;" horiz-adv-x="1723" d="M75 1191q8 25 49 67l157 157q51 51 107 51q46 0 75 -27q31 -30 31 -99v-630q0 -58 -14 -86q-24 -49 -85 -49t-85 49q-13 26 -13 86v455l-40 -40q-42 -41 -68 -49q-48 -15 -89 26t-25 89zM445 85q0 20 26 75l614 1222q25 52 50 69q23 15 49 15q22 0 44 -11q51 -25 51 -82 q0 -20 -26 -75l-614 -1222q-26 -53 -49 -69q-22 -15 -49 -15q-22 0 -44 11q-52 25 -52 82zM1072 205q0 24 24 73l262 524q39 81 95 81q36 0 64.5 -25t28.5 -61q0 -30 -23 -77l-213 -426h90q0 60 13 86q23 48 85 48t85 -48q13 -26 13 -86q44 -1 66 -13q41 -22 41 -74 q0 -53 -41 -74q-22 -12 -66 -13q0 -54 -13 -80q-23 -48 -85 -48t-85 48q-13 26 -13 80h-209q-54 0 -76 13q-43 25 -43 72z" />
<glyph unicode="&#xbd;" horiz-adv-x="1723" d="M75 1191q8 25 49 67l157 157q51 51 107 51q46 0 75 -27q31 -30 31 -99v-630q0 -58 -14 -86q-24 -49 -85 -49t-85 49q-13 26 -13 86v455l-40 -40q-42 -41 -68 -49q-48 -15 -89 26t-25 89zM445 85q0 20 26 75l614 1222q25 52 50 69q23 15 49 15q22 0 44 -11q51 -25 51 -82 q0 -20 -26 -75l-614 -1222q-26 -53 -49 -69q-22 -15 -49 -15q-22 0 -44 11q-52 25 -52 82zM1106 95q0 26 11 45.5t35 48.5l271 322q54 64 54 113q0 39 -24 62.5t-65 23.5q-68 0 -94 -71q-14 -36 -36 -51q-21 -17 -53 -17q-53 0 -76 37q-15 25 -15 57q0 71 70 139 q82 79 204 79q131 0 206 -67.5t75 -191.5q0 -60 -22.5 -105t-65.5 -94l-218 -251h199q52 0 75 -13q41 -22 41 -74q0 -53 -41 -74q-23 -13 -75 -13h-336q-68 0 -94 27q-26 28 -26 68z" />
<glyph unicode="&#xbe;" horiz-adv-x="1723" d="M67 796q0 45 22 68q29 31 70 31q33 0 55 -17q23 -20 31 -52q20 -77 99 -77q43 0 69.5 26.5t26.5 74.5q0 42 -27 70t-70 29q-39 2 -58 21q-23 23 -23 60q0 40 23 63q21 21 58 21q41 0 64.5 26.5t23.5 61.5q0 43 -25.5 67t-60.5 24q-64 0 -86 -59q-14 -35 -27 -52 q-19 -27 -61 -27q-40 0 -65.5 27.5t-25.5 69.5q0 77 59 133q84 81 206 81q121 0 199 -72t78 -185q0 -117 -93 -173q104 -67 104 -192q0 -129 -83 -199t-206 -70q-136 0 -218 82q-59 57 -59 139zM445 85q0 20 26 75l614 1222q25 52 50 69q23 15 49 15q22 0 44 -11 q51 -25 51 -82q0 -20 -26 -75l-614 -1222q-26 -53 -49 -69q-22 -15 -49 -15q-22 0 -44 11q-52 25 -52 82zM1072 205q0 24 24 73l262 524q39 81 95 81q36 0 64.5 -25t28.5 -61q0 -30 -23 -77l-213 -426h90q0 60 13 86q23 48 85 48t85 -48q13 -26 13 -86q44 -1 66 -13 q41 -22 41 -74q0 -53 -41 -74q-22 -12 -66 -13q0 -54 -13 -80q-23 -48 -85 -48t-85 48q-13 26 -13 80h-209q-54 0 -76 13q-43 25 -43 72z" />
<glyph unicode="&#xbf;" horiz-adv-x="1071" d="M74 -4q0 79 23 133.5t76 124.5l123 161q41 54 58 119q12 46 41 76q37 39 100 39q60 0 99 -41q32 -33 32 -91q0 -93 -74 -186l-153 -193q-59 -73 -59 -142t45 -114.5t117 -45.5q80 0 126 49q31 33 51 98q11 37 37 67q32 33 93 33q55 0 89 -36q32 -33 32 -94 q0 -55 -30 -122.5t-88 -120.5q-122 -113 -307 -113q-120 0 -217 46.5t-155.5 138.5t-58.5 214zM334 912q0 66 47.5 113.5t113.5 47.5t113 -47.5t47 -113.5t-47 -113t-113 -47t-113.5 47t-47.5 113z" />
<glyph unicode="&#xc0;" horiz-adv-x="1302" d="M47 93q-6 31 0 56.5t23 69.5l420 1116q26 70 59 97q38 34 102 34q65 0 103 -34q31 -26 58 -97l421 -1116q17 -44 23 -69.5t0 -56.5t-30 -57q-41 -44 -103 -44q-45 0 -79 26q-18 14 -29 35t-31 73l-48 132h-569l-49 -132q-20 -52 -31 -73t-29 -35q-34 -26 -79 -26 q-61 0 -102 44q-24 26 -30 57zM381 1892q-5 60 55 99q29 18 63 18q33 0 58 -18q23 -15 56 -71l87 -139q38 -60 40 -92q5 -60 -55 -99q-29 -18 -62 -18t-59 18q-23 15 -56 71l-87 139q-38 60 -40 92zM456 498h391l-196 529z" />
<glyph unicode="&#xc1;" horiz-adv-x="1302" d="M47 93q-6 31 0 56.5t23 69.5l420 1116q26 70 59 97q38 34 102 34q65 0 103 -34q31 -26 58 -97l421 -1116q17 -44 23 -69.5t0 -56.5t-30 -57q-41 -44 -103 -44q-45 0 -79 26q-18 14 -29 35t-31 73l-48 132h-569l-49 -132q-20 -52 -31 -73t-29 -35q-34 -26 -79 -26 q-61 0 -102 44q-24 26 -30 57zM456 498h391l-196 529zM558 1690q2 32 40 92l87 139q33 56 56 71q25 18 59 18t62 -18q61 -40 56 -99q-2 -32 -40 -92l-87 -139q-33 -54 -57 -71q-26 -18 -58 -18q-34 0 -63 18q-60 39 -55 99z" />
<glyph unicode="&#xc2;" horiz-adv-x="1302" d="M47 93q-6 31 0 56.5t23 69.5l420 1116q26 70 59 97q38 34 102 34q65 0 103 -34q31 -26 58 -97l421 -1116q17 -44 23 -69.5t0 -56.5t-30 -57q-41 -44 -103 -44q-45 0 -79 26q-18 14 -29 35t-31 73l-48 132h-569l-49 -132q-20 -52 -31 -73t-29 -35q-34 -26 -79 -26 q-61 0 -102 44q-24 26 -30 57zM322 1698q10 31 54 75l158 157q19 19 31 29.5t35.5 21.5t48.5 11t48.5 -11t36 -21.5t31.5 -29.5l158 -157q26 -26 37 -41.5t17 -33.5q16 -55 -29 -100t-99 -28q-32 10 -75 54l-125 124l-125 -124q-44 -44 -74 -54q-54 -18 -100 28 q-44 44 -28 100zM456 498h391l-196 529z" />
<glyph unicode="&#xc3;" horiz-adv-x="1302" d="M47 93q-6 31 0 56.5t23 69.5l420 1116q26 70 59 97q38 34 102 34q65 0 103 -34q31 -26 58 -97l421 -1116q17 -44 23 -69.5t0 -56.5t-30 -57q-41 -44 -103 -44q-45 0 -79 26q-18 14 -29 35t-31 73l-48 132h-569l-49 -132q-20 -52 -31 -73t-29 -35q-34 -26 -79 -26 q-61 0 -102 44q-24 26 -30 57zM271 1724q0 50 58 96q46 37 86.5 50t93.5 13q82 0 163 -45q61 -35 108 -35t89 33q39 27 67 27q45 0 70 -31q21 -25 21 -65q0 -50 -57 -95q-46 -37 -86.5 -50t-93.5 -13q-82 0 -163 45q-61 35 -109 35q-47 0 -89 -33q-39 -27 -67 -27 q-44 0 -69 31q-22 26 -22 64zM456 498h391l-196 529z" />
<glyph unicode="&#xc4;" horiz-adv-x="1302" d="M47 93q-6 31 0 56.5t23 69.5l420 1116q26 70 59 97q38 34 102 34q65 0 103 -34q31 -26 58 -97l421 -1116q17 -44 23 -69.5t0 -56.5t-30 -57q-41 -44 -103 -44q-45 0 -79 26q-18 14 -29 35t-31 73l-48 132h-569l-49 -132q-20 -52 -31 -73t-29 -35q-34 -26 -79 -26 q-61 0 -102 44q-24 26 -30 57zM281 1732q0 57 40 97t97 40t97 -40t40 -97t-40 -97.5t-97 -40.5t-97 40.5t-40 97.5zM456 498h391l-196 529zM743 1732q0 57 40.5 97t97.5 40t97 -40t40 -97t-40 -97.5t-97 -40.5t-97.5 40.5t-40.5 97.5z" />
<glyph unicode="&#xc5;" horiz-adv-x="1302" d="M47 93q-6 31 0 56.5t23 69.5l420 1116q26 70 59 97q38 34 102 34q65 0 103 -34q31 -26 58 -97l421 -1116q17 -44 23 -69.5t0 -56.5t-30 -57q-41 -44 -103 -44q-45 0 -79 26q-18 14 -29 35t-31 73l-48 132h-569l-49 -132q-20 -52 -31 -73t-29 -35q-34 -26 -79 -26 q-61 0 -102 44q-24 26 -30 57zM381 1810q0 110 79 189.5t189 79.5q111 0 190 -78.5t79 -190.5q0 -110 -79.5 -189t-189.5 -79t-189 79t-79 189zM456 498h391l-196 529zM530 1810q0 -50 35 -85t84 -35t84 35t35 85t-35 84.5t-84 34.5t-84 -34.5t-35 -84.5z" />
<glyph unicode="&#xc6;" horiz-adv-x="1942" d="M44 117q-1 24 6.5 45t30.5 67l527 1057q48 97 94 133q50 39 121 39h851q80 0 112 -16q27 -14 43.5 -44t16.5 -67t-16.5 -66.5t-43.5 -43.5q-34 -17 -112 -17h-512v-342h414q80 0 112 -16q27 -14 43.5 -44t16.5 -67t-16.5 -66.5t-43.5 -43.5q-34 -17 -112 -17h-414v-354 h512q80 0 112 -16q27 -14 43.5 -44t16.5 -67t-16.5 -67t-43.5 -44q-32 -16 -112 -16h-624q-29 0 -46 1.5t-43.5 10.5t-45.5 28q-18 18 -27.5 45t-10.5 43t-1 46v145h-452l-105 -208q-24 -48 -36 -66.5t-31 -31.5q-29 -21 -67 -21q-33 0 -66 16q-35 18 -54.5 47.5t-20.5 61.5 zM544 559h332v665z" />
<glyph unicode="&#xc7;" horiz-adv-x="1262" d="M119 729q0 84 1 132t5.5 111t14 103t26 86t41.5 83t61 73q151 153 388 153q128 0 216.5 -31.5t157.5 -99.5q65 -62 95 -131t30 -121q0 -70 -38 -108q-39 -39 -99 -39q-50 0 -82 25q-39 31 -71 101q-68 151 -215 151q-103 0 -173 -78q-44 -52 -57.5 -131.5t-13.5 -278.5 t13.5 -278.5t57.5 -131.5q69 -77 173 -77q147 0 215 150q32 71 71 102q31 24 82 24q60 0 99 -39q38 -38 38 -108q0 -52 -30 -121t-95 -131q-69 -68 -157.5 -99.5t-216.5 -31.5q-237 0 -388 153q-36 36 -61 73t-41.5 83t-26 86t-14 103t-5.5 111t-1 132zM430 -417q2 32 40 92 l87 140q32 54 56 70q27 19 59 19t62 -19q61 -39 56 -98q-2 -32 -40 -92l-87 -139q-33 -54 -57 -71q-27 -19 -58 -19q-33 0 -63 19q-60 39 -55 98z" />
<glyph unicode="&#xc8;" horiz-adv-x="1235" d="M169 174v1110q0 29 1.5 46t10.5 43t28 45t45 28t43 10.5t46 1.5h625q79 0 111 -16q27 -14 44 -44t17 -67t-17 -66.5t-44 -43.5q-34 -17 -111 -17h-512v-342h413q80 0 112 -16q27 -14 43.5 -44t16.5 -67t-16.5 -66.5t-43.5 -43.5q-34 -17 -112 -17h-413v-354h512 q79 0 111 -16q27 -14 44 -44t17 -67t-17 -67t-44 -44q-32 -16 -111 -16h-625q-29 0 -46 1.5t-43 10.5t-45 28t-28 45t-10.5 43t-1.5 46zM377 1892q-5 60 55 99q29 18 63 18q33 0 58 -18q23 -15 56 -71l87 -139q38 -60 40 -92q5 -60 -55 -99q-28 -18 -63 -18q-32 0 -58 18 q-23 15 -56 71l-87 139q-38 60 -40 92z" />
<glyph unicode="&#xc9;" horiz-adv-x="1235" d="M169 174v1110q0 29 1.5 46t10.5 43t28 45t45 28t43 10.5t46 1.5h625q79 0 111 -16q27 -14 44 -44t17 -67t-17 -66.5t-44 -43.5q-34 -17 -111 -17h-512v-342h413q80 0 112 -16q27 -14 43.5 -44t16.5 -67t-16.5 -66.5t-43.5 -43.5q-34 -17 -112 -17h-413v-354h512 q79 0 111 -16q27 -14 44 -44t17 -67t-17 -67t-44 -44q-32 -16 -111 -16h-625q-29 0 -46 1.5t-43 10.5t-45 28t-28 45t-10.5 43t-1.5 46zM554 1690q2 32 40 92l87 139q33 56 56 71q25 18 59 18t62 -18q60 -39 55 -99q-2 -32 -40 -92l-87 -139q-33 -56 -56 -71 q-25 -18 -58 -18q-34 0 -63 18q-60 39 -55 99z" />
<glyph unicode="&#xca;" horiz-adv-x="1235" d="M169 174v1110q0 29 1.5 46t10.5 43t28 45t45 28t43 10.5t46 1.5h625q79 0 111 -16q27 -14 44 -44t17 -67t-17 -66.5t-44 -43.5q-34 -17 -111 -17h-512v-342h413q80 0 112 -16q27 -14 43.5 -44t16.5 -67t-16.5 -66.5t-43.5 -43.5q-34 -17 -112 -17h-413v-354h512 q79 0 111 -16q27 -14 44 -44t17 -67t-17 -67t-44 -44q-32 -16 -111 -16h-625q-29 0 -46 1.5t-43 10.5t-45 28t-28 45t-10.5 43t-1.5 46zM317 1698q10 30 55 75l157 157q19 19 31.5 29.5t36 21.5t48.5 11t48.5 -11t36 -21.5t31.5 -29.5l158 -157q26 -26 37 -41.5t17 -33.5 q16 -55 -29 -100t-99 -28q-31 10 -75 54l-125 124l-125 -124q-44 -44 -75 -54q-54 -17 -99 28t-29 100z" />
<glyph unicode="&#xcb;" horiz-adv-x="1235" d="M169 174v1110q0 29 1.5 46t10.5 43t28 45t45 28t43 10.5t46 1.5h625q79 0 111 -16q27 -14 44 -44t17 -67t-17 -66.5t-44 -43.5q-34 -17 -111 -17h-512v-342h413q80 0 112 -16q27 -14 43.5 -44t16.5 -67t-16.5 -66.5t-43.5 -43.5q-34 -17 -112 -17h-413v-354h512 q79 0 111 -16q27 -14 44 -44t17 -67t-17 -67t-44 -44q-32 -16 -111 -16h-625q-29 0 -46 1.5t-43 10.5t-45 28t-28 45t-10.5 43t-1.5 46zM276 1732q0 57 40.5 97t97.5 40t97 -40t40 -97t-40 -97.5t-97 -40.5t-97.5 40.5t-40.5 97.5zM739 1732q0 57 40.5 97t97.5 40t97 -40 t40 -97t-40 -97.5t-97 -40.5t-97.5 40.5t-40.5 97.5z" />
<glyph unicode="&#xcc;" horiz-adv-x="624" d="M44 1892q-5 60 55 99q29 18 63 18q32 0 58 -18q23 -15 56 -71l88 -139q37 -58 39 -92q5 -60 -55 -99q-29 -18 -62 -18q-34 0 -59 18q-23 15 -56 71l-87 139q-38 60 -40 92zM169 184v1090q0 52 3.5 76t15.5 49q17 31 50 49t74 18t74 -18t50 -49q13 -26 16.5 -50t3.5 -75 v-1090q0 -51 -3.5 -75t-16.5 -50q-17 -31 -50 -49t-74 -18t-74 18t-50 49q-12 25 -15.5 49t-3.5 76z" />
<glyph unicode="&#xcd;" horiz-adv-x="624" d="M169 184v1090q0 52 3.5 76t15.5 49q17 31 50 49t74 18t74 -18t50 -49q13 -26 16.5 -50t3.5 -75v-1090q0 -51 -3.5 -75t-16.5 -50q-17 -31 -50 -49t-74 -18t-74 18t-50 49q-12 25 -15.5 49t-3.5 76zM221 1690q2 32 40 92l87 139q33 56 56 71q26 18 59 18t62 -18 q61 -40 56 -99q-2 -32 -40 -92l-87 -139q-33 -54 -57 -71q-25 -18 -58 -18q-35 0 -63 18q-60 39 -55 99z" />
<glyph unicode="&#xce;" horiz-adv-x="624" d="M-15 1698q6 18 17 33.5t37 41.5l158 157q19 19 31 29.5t35.5 21.5t48.5 11t48.5 -11t36 -21.5t31.5 -29.5l158 -157q44 -44 54 -75q16 -55 -29 -100t-99 -28q-32 10 -75 54l-125 124l-125 -124q-44 -44 -74 -54q-54 -18 -100 28q-44 44 -28 100zM169 184v1090 q0 52 3.5 76t15.5 49q17 31 50 49t74 18t74 -18t50 -49q13 -26 16.5 -50t3.5 -75v-1090q0 -51 -3.5 -75t-16.5 -50q-17 -31 -50 -49t-74 -18t-74 18t-50 49q-12 25 -15.5 49t-3.5 76z" />
<glyph unicode="&#xcf;" horiz-adv-x="624" d="M-38 1732q0 57 40 97t97 40t97.5 -40t40.5 -97t-40.5 -97.5t-97.5 -40.5t-97 40.5t-40 97.5zM169 184v1090q0 52 3.5 76t15.5 49q17 31 50 49t74 18t74 -18t50 -49q13 -26 16.5 -50t3.5 -75v-1090q0 -51 -3.5 -75t-16.5 -50q-17 -31 -50 -49t-74 -18t-74 18t-50 49 q-12 25 -15.5 49t-3.5 76zM388 1732q0 57 40 97t97 40t97.5 -40t40.5 -97t-40.5 -97.5t-97.5 -40.5t-97 40.5t-40 97.5z" />
<glyph unicode="&#xd0;" horiz-adv-x="1402" d="M35 735q0 68 52 96q32 16 99 16h33v437q0 29 1.5 46t10.5 43t28 45t45 28t43 10.5t46 1.5h355q149 0 253.5 -50.5t186.5 -162.5q63 -86 78.5 -193.5t15.5 -322.5t-15.5 -322.5t-78.5 -193.5q-82 -112 -186.5 -162.5t-253.5 -50.5h-355q-29 0 -46 1.5t-43 10.5t-45 28 t-28 45t-10.5 43t-1.5 46v450h-33q-69 0 -99 15q-52 28 -52 96zM506 254h217q141 0 213 90q38 48 48.5 125t10.5 260t-10.5 260t-48.5 125q-72 90 -213 90h-217v-357h112q69 0 100 -16q52 -28 52 -96t-52 -96q-29 -15 -100 -15h-112v-370z" />
<glyph unicode="&#xd1;" horiz-adv-x="1457" d="M169 184v1104q0 94 39 134q44 44 107 44q48 0 83.5 -29.5t84.5 -101.5l518 -766v705q0 51 3.5 75t16.5 50q17 31 50 49t74 18t74 -18t50 -49q12 -25 15.5 -49t3.5 -76v-1104q0 -95 -39 -134q-44 -44 -107 -44q-47 0 -83 30t-84 101l-519 766v-705q0 -51 -3.5 -75 t-16.5 -50q-17 -31 -50 -49t-74 -18t-74 18t-50 49q-12 25 -15.5 49t-3.5 76zM350 1724q0 50 58 96q46 37 86.5 50t93.5 13q82 0 163 -45q61 -35 108 -35t89 33q39 27 67 27q44 0 69 -31q22 -26 22 -65q0 -50 -57 -95q-46 -37 -87 -50t-94 -13q-46 0 -80.5 9.5t-81.5 35.5 q-61 35 -109 35q-47 0 -89 -33q-39 -27 -67 -27q-44 0 -69 31q-22 26 -22 64z" />
<glyph unicode="&#xd2;" horiz-adv-x="1318" d="M119 729q0 84 1 132t5.5 111t14 103t26 86t41.5 83t61 73q151 153 391 153q241 0 392 -153q36 -36 61 -73t41.5 -83t26 -86t14 -103t5.5 -111t1 -132t-1 -132t-5.5 -111t-14 -103t-26 -86t-41.5 -83t-61 -73q-151 -153 -392 -153q-240 0 -391 153q-36 36 -61 73t-41.5 83 t-26 86t-14 103t-5.5 111t-1 132zM390 1892q-5 60 55 99q28 18 63 18q32 0 58 -18q24 -17 57 -71l87 -139q38 -60 40 -92q5 -59 -56 -99q-28 -18 -62 -18t-59 18q-23 15 -56 71l-87 139q-38 60 -40 92zM406 729q0 -204 14 -282.5t56 -125.5q70 -79 183 -79q114 0 184 79 q42 47 56 125.5t14 282.5t-14 283.5t-56 126.5q-68 78 -184 78q-115 0 -183 -78q-42 -47 -56 -126.5t-14 -283.5z" />
<glyph unicode="&#xd3;" horiz-adv-x="1318" d="M119 729q0 84 1 132t5.5 111t14 103t26 86t41.5 83t61 73q151 153 391 153q241 0 392 -153q36 -36 61 -73t41.5 -83t26 -86t14 -103t5.5 -111t1 -132t-1 -132t-5.5 -111t-14 -103t-26 -86t-41.5 -83t-61 -73q-151 -153 -392 -153q-240 0 -391 153q-36 36 -61 73t-41.5 83 t-26 86t-14 103t-5.5 111t-1 132zM406 729q0 -204 14 -282.5t56 -125.5q70 -79 183 -79q114 0 184 79q42 47 56 125.5t14 282.5t-14 283.5t-56 126.5q-68 78 -184 78q-115 0 -183 -78q-42 -47 -56 -126.5t-14 -283.5zM567 1690q2 32 40 92l87 139q33 54 57 71q25 18 58 18 t62 -18q61 -40 56 -99q-2 -32 -40 -92l-87 -139q-33 -54 -57 -71q-25 -18 -58 -18t-62 18q-61 40 -56 99z" />
<glyph unicode="&#xd4;" horiz-adv-x="1318" d="M119 729q0 84 1 132t5.5 111t14 103t26 86t41.5 83t61 73q151 153 391 153q241 0 392 -153q36 -36 61 -73t41.5 -83t26 -86t14 -103t5.5 -111t1 -132t-1 -132t-5.5 -111t-14 -103t-26 -86t-41.5 -83t-61 -73q-151 -153 -392 -153q-240 0 -391 153q-36 36 -61 73t-41.5 83 t-26 86t-14 103t-5.5 111t-1 132zM331 1698q6 18 17 33.5t37 41.5l158 157q19 19 31 29.5t35.5 21.5t48.5 11t48.5 -11t36 -21.5t31.5 -29.5l158 -157q44 -44 54 -75q16 -55 -29 -100t-99 -28q-32 10 -75 54l-125 124l-124 -124q-44 -44 -75 -54q-54 -18 -100 28 q-44 44 -28 100zM406 729q0 -204 14 -282.5t56 -125.5q70 -79 183 -79q114 0 184 79q42 47 56 125.5t14 282.5t-14 283.5t-56 126.5q-68 78 -184 78q-115 0 -183 -78q-42 -47 -56 -126.5t-14 -283.5z" />
<glyph unicode="&#xd5;" horiz-adv-x="1318" d="M119 729q0 84 1 132t5.5 111t14 103t26 86t41.5 83t61 73q151 153 391 153q241 0 392 -153q36 -36 61 -73t41.5 -83t26 -86t14 -103t5.5 -111t1 -132t-1 -132t-5.5 -111t-14 -103t-26 -86t-41.5 -83t-61 -73q-151 -153 -392 -153q-240 0 -391 153q-36 36 -61 73t-41.5 83 t-26 86t-14 103t-5.5 111t-1 132zM281 1724q0 51 57 96q46 37 86.5 50t93.5 13q82 0 163 -45q61 -35 109 -35q47 0 89 33q39 27 66 27q45 0 70 -31q21 -25 21 -65q0 -50 -57 -95q-46 -37 -86.5 -50t-93.5 -13q-82 0 -163 45q-61 35 -109 35q-47 0 -89 -33q-39 -27 -66 -27 q-45 0 -70 31q-21 25 -21 64zM406 729q0 -204 14 -282.5t56 -125.5q70 -79 183 -79q114 0 184 79q42 47 56 125.5t14 282.5t-14 283.5t-56 126.5q-68 78 -184 78q-115 0 -183 -78q-42 -47 -56 -126.5t-14 -283.5z" />
<glyph unicode="&#xd6;" horiz-adv-x="1318" d="M119 729q0 84 1 132t5.5 111t14 103t26 86t41.5 83t61 73q151 153 391 153q241 0 392 -153q36 -36 61 -73t41.5 -83t26 -86t14 -103t5.5 -111t1 -132t-1 -132t-5.5 -111t-14 -103t-26 -86t-41.5 -83t-61 -73q-151 -153 -392 -153q-240 0 -391 153q-36 36 -61 73t-41.5 83 t-26 86t-14 103t-5.5 111t-1 132zM290 1732q0 57 40 97t97 40t97 -40t40 -97t-40 -97.5t-97 -40.5t-97 40.5t-40 97.5zM406 729q0 -204 14 -282.5t56 -125.5q70 -79 183 -79q114 0 184 79q42 47 56 125.5t14 282.5t-14 283.5t-56 126.5q-68 78 -184 78q-115 0 -183 -78 q-42 -47 -56 -126.5t-14 -283.5zM753 1732q0 57 40 97t97 40t97 -40t40 -97t-40 -97.5t-97 -40.5t-97 40.5t-40 97.5z" />
<glyph unicode="&#xd7;" d="M148 329q7 21 20 39t46 51l166 166l-166 166q-33 33 -46 51t-20 39q-19 63 35 117q57 56 119 35q21 -7 38.5 -19.5t50.5 -45.5l165 -165l165 165q33 33 50.5 45.5t38.5 19.5q62 21 119 -35q54 -54 35 -117q-7 -21 -20 -39t-46 -51l-166 -166l166 -166q33 -33 46 -51 t20 -39q20 -63 -35 -118q-57 -56 -119 -35q-21 7 -38.5 20t-50.5 46l-165 165l-165 -165q-33 -33 -50.5 -46t-38.5 -20q-62 -21 -119 35q-55 55 -35 118z" />
<glyph unicode="&#xd8;" horiz-adv-x="1318" d="M119 729q0 84 1 132t5.5 111t14 103t26 86t41.5 83t61 73q151 153 391 153q126 0 215 -40l19 36q30 59 54 77q44 31 100 6q65 -29 65 -89q0 -32 -29 -89l-29 -58q42 -42 69.5 -91t43 -95t23 -117t9 -126.5t1.5 -154.5q0 -84 -1 -132t-5.5 -111t-14 -103t-26 -86 t-41.5 -83t-61 -73q-151 -153 -392 -153q-124 0 -217 41l-17 -37q-30 -59 -54 -77q-44 -31 -100 -6q-65 29 -65 89q0 34 28 89l29 58q-41 42 -68.5 91t-42.5 95t-22.5 117t-9 126.5t-1.5 154.5zM406 729q0 -122 5.5 -182t24.5 -104l352 739q-56 35 -129 35q-115 0 -183 -78 q-42 -47 -56 -126.5t-14 -283.5zM529 276q55 -34 129 -34q117 0 184 77q42 47 56.5 126.5t14.5 283.5q0 119 -5.5 180.5t-25.5 105.5z" />
<glyph unicode="&#xd9;" horiz-adv-x="1363" d="M145 500v774q0 51 3.5 75t16.5 50q17 31 50 49t74 18t74 -18t50 -49q12 -25 15.5 -49t3.5 -76v-764q0 -125 67 -196.5t183 -71.5t183 71.5t67 196.5v764q0 52 3.5 76t15.5 49q17 31 50 49t74 18t74 -18t50 -49q13 -26 16.5 -50t3.5 -75v-774q0 -151 -72 -269t-194 -180.5 t-271 -62.5t-271 62.5t-194 180.5t-72 269zM415 1892q-5 60 55 99q29 18 62 18q34 0 59 -18q23 -15 56 -71l87 -139q38 -60 40 -92q5 -60 -55 -99q-28 -18 -63 -18q-32 0 -58 18q-23 15 -56 71l-87 139q-38 60 -40 92z" />
<glyph unicode="&#xda;" horiz-adv-x="1363" d="M145 500v774q0 51 3.5 75t16.5 50q17 31 50 49t74 18t74 -18t50 -49q12 -25 15.5 -49t3.5 -76v-764q0 -125 67 -196.5t183 -71.5t183 71.5t67 196.5v764q0 52 3.5 76t15.5 49q17 31 50 49t74 18t74 -18t50 -49q13 -26 16.5 -50t3.5 -75v-774q0 -151 -72 -269t-194 -180.5 t-271 -62.5t-271 62.5t-194 180.5t-72 269zM592 1690q2 32 40 92l87 139q33 56 56 71q25 18 59 18t62 -18q60 -39 55 -99q-2 -32 -40 -92l-87 -139q-33 -56 -56 -71q-26 -18 -58 -18q-34 0 -63 18q-60 39 -55 99z" />
<glyph unicode="&#xdb;" horiz-adv-x="1363" d="M145 500v774q0 51 3.5 75t16.5 50q17 31 50 49t74 18t74 -18t50 -49q12 -25 15.5 -49t3.5 -76v-764q0 -125 67 -196.5t183 -71.5t183 71.5t67 196.5v764q0 52 3.5 76t15.5 49q17 31 50 49t74 18t74 -18t50 -49q13 -26 16.5 -50t3.5 -75v-774q0 -151 -72 -269t-194 -180.5 t-271 -62.5t-271 62.5t-194 180.5t-72 269zM355 1698q10 30 55 75l157 157q19 19 31.5 29.5t36 21.5t48.5 11t48.5 -11t36 -21.5t31.5 -29.5l157 -157q45 -45 55 -75q16 -55 -29 -100t-99 -28q-31 10 -75 54l-125 124l-125 -124q-44 -44 -75 -54q-54 -17 -99 28t-29 100z " />
<glyph unicode="&#xdc;" horiz-adv-x="1363" d="M145 500v774q0 51 3.5 75t16.5 50q17 31 50 49t74 18t74 -18t50 -49q12 -25 15.5 -49t3.5 -76v-764q0 -125 67 -196.5t183 -71.5t183 71.5t67 196.5v764q0 52 3.5 76t15.5 49q17 31 50 49t74 18t74 -18t50 -49q13 -26 16.5 -50t3.5 -75v-774q0 -151 -72 -269t-194 -180.5 t-271 -62.5t-271 62.5t-194 180.5t-72 269zM314 1732q0 57 40.5 97t97.5 40t97 -40t40 -97t-40 -97.5t-97 -40.5t-97.5 40.5t-40.5 97.5zM777 1732q0 57 40 97t97 40t97.5 -40t40.5 -97t-40.5 -97.5t-97.5 -40.5t-97 40.5t-40 97.5z" />
<glyph unicode="&#xdd;" horiz-adv-x="1105" d="M43 1341q1 32 20.5 61.5t54.5 47.5q33 16 66 16q38 0 67 -21q19 -13 31 -31.5t36 -65.5l235 -474l234 474q23 46 36 64.5t32 32.5q29 21 67 21q33 0 66 -16q35 -18 54.5 -47.5t20.5 -61.5q1 -24 -6.5 -45t-30.5 -67l-330 -658v-387q0 -52 -3.5 -76t-15.5 -49 q-17 -31 -50 -49t-74 -18t-74 18t-50 49q-12 25 -15.5 49t-3.5 76v387l-330 658q-23 46 -30.5 67t-6.5 45zM463 1690q2 32 40 92l87 139q33 56 56 71q26 18 59 18t62 -18q60 -39 55 -99q-2 -32 -40 -92l-87 -139q-33 -56 -56 -71q-26 -18 -58 -18q-35 0 -63 18 q-60 39 -55 99z" />
<glyph unicode="&#xde;" horiz-adv-x="1295" d="M169 184v1090q0 52 3.5 76t15.5 49q17 31 50 49t74 18t74 -18t50 -49q13 -26 16.5 -50t3.5 -75v-84h280q220 0 351 -131t131 -324t-131 -323.5t-351 -130.5h-280v-97q0 -51 -3.5 -75t-16.5 -50q-17 -31 -50 -49t-74 -18t-74 18t-50 49q-12 25 -15.5 49t-3.5 76zM456 535 h264q96 0 153.5 55t57.5 145q0 91 -57.5 146t-153.5 55h-264v-401z" />
<glyph unicode="&#xdf;" horiz-adv-x="1172" d="M148 174v892q0 204 125 304t335 100q203 0 324.5 -90t121.5 -269q0 -156 -126 -230q63 -32 95.5 -83t32.5 -142v-349q0 -64 -22 -123t-64 -100q-90 -87 -227 -87h-19q-52 0 -83 11q-35 13 -54 42t-19 66q0 40 26 70t70 36q2 0 11 1.5l12 2t11.5 2t12 2.5l10.5 3t11.5 4.5 t10.5 5.5t10.5 6.5t9.5 8.5q27 27 27 107v257q0 81 -25.5 114.5t-81.5 35.5q-59 2 -86 29q-29 29 -29 73q0 45 29 74q27 27 86 29q104 3 104 118q0 61 -38 99q-46 44 -144 44q-103 0 -146.5 -50t-43.5 -148v-866q0 -82 -18 -119q-31 -63 -115 -63q-85 0 -116 63 q-18 37 -18 119z" />
<glyph unicode="&#xe0;" horiz-adv-x="1090" d="M70 324q0 135 94 222t274 87h248v53q0 87 -46 127.5t-141 40.5q-86 0 -171 -51q-49 -28 -88 -28q-49 0 -76 36q-30 35 -30 80q0 74 99 127q116 61 270 61q449 0 449 -377v-529q0 -52 -3.5 -74.5t-15.5 -45.5q-14 -28 -45.5 -44.5t-69.5 -16.5q-52 0 -85 31q-28 25 -39 70 q-60 -58 -117 -81.5t-147 -23.5q-178 0 -272 96q-42 42 -65 105.5t-23 134.5zM264 1529q-5 59 55 98q30 19 63 19q31 0 58 -19q24 -17 57 -71l87 -139q38 -60 40 -92q5 -59 -56 -98q-30 -19 -62 -19t-59 19q-24 16 -56 70l-87 140q-38 60 -40 92zM326 328q0 -57 40 -89 t121 -32q54 0 90 10.5t68 40.5q23 22 32 52t9 83v58h-203q-157 0 -157 -123z" />
<glyph unicode="&#xe1;" horiz-adv-x="1090" d="M70 324q0 135 94 222t274 87h248v53q0 87 -46 127.5t-141 40.5q-86 0 -171 -51q-49 -28 -88 -28q-49 0 -76 36q-30 35 -30 80q0 74 99 127q116 61 270 61q449 0 449 -377v-529q0 -52 -3.5 -74.5t-15.5 -45.5q-14 -28 -45.5 -44.5t-69.5 -16.5q-52 0 -85 31q-28 25 -39 70 q-60 -58 -117 -81.5t-147 -23.5q-178 0 -272 96q-42 42 -65 105.5t-23 134.5zM326 328q0 -57 40 -89t121 -32q54 0 90 10.5t68 40.5q23 22 32 52t9 83v58h-203q-157 0 -157 -123zM441 1325q2 32 40 92l87 139q33 54 57 71q27 19 58 19q32 0 62 -19q61 -39 56 -98 q-2 -32 -40 -92l-87 -140q-32 -53 -57 -70q-27 -19 -58 -19q-32 0 -62 19q-61 39 -56 98z" />
<glyph unicode="&#xe2;" horiz-adv-x="1090" d="M70 324q0 135 94 222t274 87h248v53q0 87 -46 127.5t-141 40.5q-86 0 -171 -51q-49 -28 -88 -28q-49 0 -76 36q-30 35 -30 80q0 74 99 127q116 61 270 61q449 0 449 -377v-529q0 -52 -3.5 -74.5t-15.5 -45.5q-14 -28 -45.5 -44.5t-69.5 -16.5q-52 0 -85 31q-28 25 -39 70 q-60 -58 -117 -81.5t-147 -23.5q-178 0 -272 96q-42 42 -65 105.5t-23 134.5zM204 1332q10 31 54 75l158 158q19 19 31.5 29.5t35.5 21t48 10.5q55 0 116 -61l158 -158q26 -26 37 -41.5t17 -33.5q16 -54 -29 -99q-46 -46 -99 -29q-32 10 -75 54l-125 124l-124 -124 q-43 -44 -75 -54q-54 -17 -100 29q-44 44 -28 99zM326 328q0 -57 40 -89t121 -32q54 0 90 10.5t68 40.5q23 22 32 52t9 83v58h-203q-157 0 -157 -123z" />
<glyph unicode="&#xe3;" horiz-adv-x="1090" d="M70 324q0 135 94 222t274 87h248v53q0 87 -46 127.5t-141 40.5q-86 0 -171 -51q-49 -28 -88 -28q-49 0 -76 36q-30 35 -30 80q0 74 99 127q116 61 270 61q449 0 449 -377v-529q0 -52 -3.5 -74.5t-15.5 -45.5q-14 -28 -45.5 -44.5t-69.5 -16.5q-52 0 -85 31q-28 25 -39 70 q-60 -58 -117 -81.5t-147 -23.5q-178 0 -272 96q-42 42 -65 105.5t-23 134.5zM154 1365q0 50 57 95q46 37 86.5 50.5t93.5 13.5q82 0 163 -45q61 -35 109 -35q47 0 89 33q37 26 66 26q46 0 70 -30q21 -25 21 -65q0 -50 -57 -95q-46 -37 -86.5 -50.5t-93.5 -13.5 q-82 0 -163 45q-61 35 -109 35q-47 0 -89 -33q-37 -26 -66 -26q-46 0 -70 30q-21 25 -21 65zM326 328q0 -57 40 -89t121 -32q54 0 90 10.5t68 40.5q23 22 32 52t9 83v58h-203q-157 0 -157 -123z" />
<glyph unicode="&#xe4;" horiz-adv-x="1090" d="M70 324q0 135 94 222t274 87h248v53q0 87 -46 127.5t-141 40.5q-86 0 -171 -51q-49 -28 -88 -28q-49 0 -76 36q-30 35 -30 80q0 74 99 127q116 61 270 61q449 0 449 -377v-529q0 -52 -3.5 -74.5t-15.5 -45.5q-14 -28 -45.5 -44.5t-69.5 -16.5q-52 0 -85 31q-28 25 -39 70 q-60 -58 -117 -81.5t-147 -23.5q-178 0 -272 96q-42 42 -65 105.5t-23 134.5zM163 1366q0 57 40 97t97 40t97 -40t40 -97t-40 -97t-97 -40t-97 40t-40 97zM326 328q0 -57 40 -89t121 -32q54 0 90 10.5t68 40.5q23 22 32 52t9 83v58h-203q-157 0 -157 -123zM626 1366 q0 57 40 97t97 40t97 -40t40 -97t-40 -97t-97 -40t-97 40t-40 97z" />
<glyph unicode="&#xe5;" horiz-adv-x="1090" d="M70 324q0 135 94 222t274 87h248v53q0 87 -46 127.5t-141 40.5q-86 0 -171 -51q-49 -28 -88 -28q-49 0 -76 36q-30 35 -30 80q0 74 99 127q116 61 270 61q449 0 449 -377v-529q0 -52 -3.5 -74.5t-15.5 -45.5q-14 -28 -45.5 -44.5t-69.5 -16.5q-52 0 -85 31q-28 25 -39 70 q-60 -58 -117 -81.5t-147 -23.5q-178 0 -272 96q-42 42 -65 105.5t-23 134.5zM263 1464q0 110 79 189.5t189 79.5t189.5 -79.5t79.5 -189.5t-79.5 -189t-189.5 -79t-189 79t-79 189zM326 328q0 -57 40 -89t121 -32q54 0 90 10.5t68 40.5q23 22 32 52t9 83v58h-203 q-157 0 -157 -123zM413 1464q0 -50 34.5 -85.5t83.5 -35.5t84 35.5t35 85.5t-35 84.5t-84 34.5t-83.5 -34.5t-34.5 -84.5z" />
<glyph unicode="&#xe6;" horiz-adv-x="1709" d="M70 324q0 135 94 222t274 87h248v53q0 87 -46 127.5t-141 40.5q-86 0 -171 -51q-49 -28 -88 -28q-49 0 -76 36q-30 35 -30 80q0 74 99 127q116 61 270 61q239 0 347 -115q114 115 302 115q140 0 245 -63.5t159.5 -170t59.5 -242.5q2 -81 -36 -119q-16 -16 -38.5 -23.5 t-36.5 -8.5t-42 -1h-513q0 -107 61.5 -172.5t174.5 -65.5q108 0 184 57q56 40 99 40q40 0 74 -33.5t34 -77.5q0 -68 -104 -138q-109 -73 -292 -73q-250 0 -376 148q-83 -89 -167 -118.5t-208 -29.5q-178 0 -272 96q-42 42 -65 105.5t-23 134.5zM326 328q0 -57 40 -89 t121 -32q54 0 90 10.5t68 40.5q23 22 32 52t9 83v58h-203q-157 0 -157 -123zM950 633h405q-3 68 -24 116q-23 50 -68.5 79.5t-110.5 29.5q-64 0 -110 -29.5t-68 -79.5q-23 -52 -24 -116z" />
<glyph unicode="&#xe7;" horiz-adv-x="985" d="M96 535q0 125 29.5 222t76.5 156.5t111.5 98t128 53t132.5 14.5q121 0 209 -52q129 -67 129 -150q0 -47 -38 -87q-33 -35 -81 -35q-43 0 -93 37q-64 46 -128 46q-93 -2 -150 -70q-60 -75 -60 -233q0 -161 60 -236q58 -70 150 -70q68 0 128 45q52 39 93 39q48 0 81 -35 q38 -38 38 -88q0 -79 -129 -151q-93 -51 -211 -51q-68 0 -131.5 15t-127.5 54t-111 98.5t-76.5 157t-29.5 222.5zM308 -417q2 32 40 92l87 140q32 53 57 70q27 19 58 19q32 0 62 -19q61 -39 56 -98q-2 -32 -40 -92l-87 -139q-33 -54 -57 -71q-27 -19 -58 -19q-32 0 -62 19 q-61 39 -56 98z" />
<glyph unicode="&#xe8;" horiz-adv-x="1117" d="M96 534q0 257 126.5 401t337.5 144q140 0 245 -63.5t159.5 -170t59.5 -242.5q2 -81 -36 -119q-16 -16 -38.5 -23.5t-36.5 -8.5t-42 -1h-513q0 -107 61.5 -172.5t174.5 -65.5q108 0 184 57q56 40 100 40q40 0 73.5 -33.5t33.5 -77.5q0 -68 -104 -138q-109 -73 -291 -73 q-80 0 -149 15t-134 53.5t-110.5 98.5t-73 157t-27.5 222zM299 1529q-5 59 55 98q30 19 63 19q31 0 58 -19q23 -15 56 -71l87 -139q38 -60 40 -92q5 -59 -55 -98q-30 -19 -62 -19t-59 19q-24 16 -56 70l-87 140q-38 60 -40 92zM358 633h405q-3 68 -24 116q-23 50 -68.5 79.5 t-110.5 29.5q-64 0 -110 -29.5t-68 -79.5q-23 -52 -24 -116z" />
<glyph unicode="&#xe9;" horiz-adv-x="1117" d="M96 534q0 257 126.5 401t337.5 144q140 0 245 -63.5t159.5 -170t59.5 -242.5q2 -81 -36 -119q-16 -16 -38.5 -23.5t-36.5 -8.5t-42 -1h-513q0 -107 61.5 -172.5t174.5 -65.5q108 0 184 57q56 40 100 40q40 0 73.5 -33.5t33.5 -77.5q0 -68 -104 -138q-109 -73 -291 -73 q-80 0 -149 15t-134 53.5t-110.5 98.5t-73 157t-27.5 222zM358 633h405q-3 68 -24 116q-23 50 -68.5 79.5t-110.5 29.5q-64 0 -110 -29.5t-68 -79.5q-23 -52 -24 -116zM476 1325q2 32 40 92l87 139q33 56 56 71q27 19 59 19t62 -19q61 -39 56 -98q-2 -32 -40 -92l-87 -140 q-32 -53 -57 -70q-27 -19 -58 -19q-33 0 -63 19q-60 39 -55 98z" />
<glyph unicode="&#xea;" horiz-adv-x="1117" d="M96 534q0 257 126.5 401t337.5 144q140 0 245 -63.5t159.5 -170t59.5 -242.5q2 -81 -36 -119q-16 -16 -38.5 -23.5t-36.5 -8.5t-42 -1h-513q0 -107 61.5 -172.5t174.5 -65.5q108 0 184 57q56 40 100 40q40 0 73.5 -33.5t33.5 -77.5q0 -68 -104 -138q-109 -73 -291 -73 q-80 0 -149 15t-134 53.5t-110.5 98.5t-73 157t-27.5 222zM239 1332q6 18 17 33.5t37 41.5l158 158q19 19 31.5 29.5t35.5 21t48 10.5q55 0 116 -61l158 -158q44 -44 54 -75q16 -54 -29 -99q-46 -46 -99 -29q-32 10 -75 54l-125 124l-125 -124q-44 -44 -74 -54 q-54 -17 -100 29q-44 44 -28 99zM358 633h405q-3 68 -24 116q-23 50 -68.5 79.5t-110.5 29.5q-64 0 -110 -29.5t-68 -79.5q-23 -52 -24 -116z" />
<glyph unicode="&#xeb;" horiz-adv-x="1117" d="M96 534q0 257 126.5 401t337.5 144q140 0 245 -63.5t159.5 -170t59.5 -242.5q2 -81 -36 -119q-16 -16 -38.5 -23.5t-36.5 -8.5t-42 -1h-513q0 -107 61.5 -172.5t174.5 -65.5q108 0 184 57q56 40 100 40q40 0 73.5 -33.5t33.5 -77.5q0 -68 -104 -138q-109 -73 -291 -73 q-80 0 -149 15t-134 53.5t-110.5 98.5t-73 157t-27.5 222zM198 1366q0 57 40 97t97 40t97 -40t40 -97t-40 -97t-97 -40t-97 40t-40 97zM358 633h405q-3 68 -24 116q-23 50 -68.5 79.5t-110.5 29.5q-64 0 -110 -29.5t-68 -79.5q-23 -52 -24 -116zM660 1366q0 57 40.5 97 t97.5 40t97 -40t40 -97t-40 -97t-97 -40t-97.5 40t-40.5 97z" />
<glyph unicode="&#xec;" horiz-adv-x="563" d="M14 1529q-5 59 56 98q30 19 62 19q31 0 58 -19q24 -17 57 -71l87 -139q38 -60 40 -92q5 -59 -56 -98q-30 -19 -62 -19q-31 0 -58 19q-25 17 -57 70l-87 140q-38 60 -40 92zM148 174v688q0 82 18 119q31 63 116 63q84 0 115 -63q18 -37 18 -119v-688q0 -82 -18 -119 q-31 -63 -115 -63q-85 0 -116 63q-18 37 -18 119z" />
<glyph unicode="&#xed;" horiz-adv-x="563" d="M148 174v688q0 82 18 119q31 63 116 63q84 0 115 -63q18 -37 18 -119v-688q0 -82 -18 -119q-31 -63 -115 -63q-85 0 -116 63q-18 37 -18 119zM191 1325q2 32 40 92l87 139q33 54 57 71q27 19 58 19q33 0 63 -19q60 -39 55 -98q-2 -32 -40 -92l-87 -140q-32 -54 -56 -70 q-27 -19 -59 -19t-62 19q-61 39 -56 98z" />
<glyph unicode="&#xee;" horiz-adv-x="563" d="M-46 1332q10 31 54 75l158 158q61 61 116 61q25 0 48 -10.5t35.5 -21t31.5 -29.5l158 -158q26 -26 37 -41.5t17 -33.5q16 -55 -28 -99q-46 -46 -100 -29q-30 10 -74 54l-125 124l-125 -124q-43 -44 -75 -54q-53 -17 -99 29q-45 45 -29 99zM148 174v688q0 82 18 119 q31 63 116 63q84 0 115 -63q18 -37 18 -119v-688q0 -82 -18 -119q-31 -63 -115 -63q-85 0 -116 63q-18 37 -18 119z" />
<glyph unicode="&#xef;" horiz-adv-x="563" d="M-69 1366q0 57 40.5 97t97.5 40t97 -40t40 -97t-40 -97t-97 -40t-97.5 40t-40.5 97zM148 174v688q0 82 18 119q31 63 116 63q84 0 115 -63q18 -37 18 -119v-688q0 -82 -18 -119q-31 -63 -115 -63q-85 0 -116 63q-18 37 -18 119zM357 1366q0 57 40.5 97t97.5 40t97 -40 t40 -97t-40 -97t-97 -40t-97.5 40t-40.5 97z" />
<glyph unicode="&#xf0;" horiz-adv-x="1110" d="M115 520q0 147 25 240.5t93 163.5q66 69 183 100q59 16 119 16q24 0 36 -2l-52 105h-148q-62 0 -90 14q-50 25 -50 88q0 65 50 88q30 15 90 15h56q-1 6 -1 18q0 48 40 82.5t90 34.5q36 0 64 -20q17 -12 29.5 -30t33.5 -60l12 -25h104q59 0 89 -15q49 -23 49 -88 q0 -63 -49 -88q-28 -14 -88 -14l68 -135q76 -149 101.5 -245.5t25.5 -242.5q0 -149 -25 -241.5t-93 -163.5q-123 -127 -322 -127t-322 127q-68 71 -93 163.5t-25 241.5zM381 520q0 -93 11 -152.5t46 -95.5q45 -45 117 -45q74 0 119 45q35 36 45 94.5t10 153.5t-10 152.5 t-45 93.5q-45 45 -119 45q-72 0 -117 -45q-35 -36 -46 -95t-11 -151z" />
<glyph unicode="&#xf1;" horiz-adv-x="1173" d="M148 174v720q0 51 4 73.5t16 46.5q14 28 45.5 44.5t69.5 16.5q52 0 85 -31q28 -24 40 -77q50 55 120.5 83.5t146.5 28.5q158 0 252 -94q61 -61 84.5 -134t23.5 -169v-508q0 -84 -17 -119q-31 -63 -116 -63t-116 63q-17 35 -17 119v471q0 99 -52 146t-124 47 q-73 0 -125.5 -47t-52.5 -146v-471q0 -82 -18 -119q-31 -63 -115 -63q-85 0 -116 63q-18 37 -18 119zM217 1365q0 50 57 95q46 37 87 50.5t94 13.5q46 0 80.5 -9.5t81.5 -35.5q61 -35 109 -35q47 0 89 33q37 26 67 26q45 0 69 -30q22 -26 22 -65q0 -49 -58 -95 q-46 -37 -86.5 -50.5t-93.5 -13.5q-82 0 -163 45q-61 35 -108 35t-89 -33q-37 -26 -67 -26q-45 0 -69 30q-22 26 -22 65z" />
<glyph unicode="&#xf2;" horiz-adv-x="1114" d="M104 534q0 152 26 246t96 168q125 131 331 131t331 -131q70 -74 96 -168t26 -246t-26 -246.5t-96 -168.5q-125 -131 -331 -131t-331 131q-70 74 -96 168.5t-26 246.5zM290 1529q-5 59 55 98q30 19 63 19q31 0 58 -19q23 -15 56 -71l87 -139q38 -60 40 -92q5 -59 -55 -98 q-30 -19 -63 -19q-31 0 -58 19q-24 16 -56 70l-87 140q-38 60 -40 92zM371 534q0 -97 12.5 -159.5t49.5 -99.5q46 -46 124 -46t124 46q37 37 49.5 99.5t12.5 159.5t-12.5 159t-49.5 99q-46 46 -124 46t-124 -46q-37 -37 -49.5 -99t-12.5 -159z" />
<glyph unicode="&#xf3;" horiz-adv-x="1114" d="M104 534q0 152 26 246t96 168q125 131 331 131t331 -131q70 -74 96 -168t26 -246t-26 -246.5t-96 -168.5q-125 -131 -331 -131t-331 131q-70 74 -96 168.5t-26 246.5zM371 534q0 -97 12.5 -159.5t49.5 -99.5q46 -46 124 -46t124 46q37 37 49.5 99.5t12.5 159.5t-12.5 159 t-49.5 99q-46 46 -124 46t-124 -46q-37 -37 -49.5 -99t-12.5 -159zM467 1325q2 32 40 92l87 139q33 56 56 71q27 19 59 19t62 -19q60 -39 55 -98q-2 -32 -40 -92l-87 -140q-32 -54 -56 -70q-27 -19 -58 -19q-33 0 -63 19q-60 39 -55 98z" />
<glyph unicode="&#xf4;" horiz-adv-x="1114" d="M104 534q0 152 26 246t96 168q125 131 331 131t331 -131q70 -74 96 -168t26 -246t-26 -246.5t-96 -168.5q-125 -131 -331 -131t-331 131q-70 74 -96 168.5t-26 246.5zM229 1332q10 30 55 75l157 158q61 61 116 61t116 -61l157 -158q45 -45 55 -75q16 -54 -29 -99 q-46 -46 -99 -29q-31 10 -75 54l-125 124l-125 -124q-44 -44 -75 -54q-53 -17 -99 29q-45 45 -29 99zM371 534q0 -97 12.5 -159.5t49.5 -99.5q46 -46 124 -46t124 46q37 37 49.5 99.5t12.5 159.5t-12.5 159t-49.5 99q-46 46 -124 46t-124 -46q-37 -37 -49.5 -99t-12.5 -159z " />
<glyph unicode="&#xf5;" horiz-adv-x="1114" d="M104 534q0 152 26 246t96 168q125 131 331 131t331 -131q70 -74 96 -168t26 -246t-26 -246.5t-96 -168.5q-125 -131 -331 -131t-331 131q-70 74 -96 168.5t-26 246.5zM179 1365q0 49 58 95q46 37 86.5 50.5t93.5 13.5q82 0 163 -45q61 -35 108 -35t89 33q37 26 67 26 q45 0 69 -30q22 -26 22 -65q0 -50 -57 -95q-46 -37 -87 -50.5t-94 -13.5q-46 0 -80.5 9.5t-81.5 35.5q-61 35 -109 35q-47 0 -89 -33q-37 -26 -67 -26q-45 0 -69 30q-22 26 -22 65zM371 534q0 -97 12.5 -159.5t49.5 -99.5q46 -46 124 -46t124 46q37 37 49.5 99.5t12.5 159.5 t-12.5 159t-49.5 99q-46 46 -124 46t-124 -46q-37 -37 -49.5 -99t-12.5 -159z" />
<glyph unicode="&#xf6;" horiz-adv-x="1114" d="M104 534q0 152 26 246t96 168q125 131 331 131t331 -131q70 -74 96 -168t26 -246t-26 -246.5t-96 -168.5q-125 -131 -331 -131t-331 131q-70 74 -96 168.5t-26 246.5zM188 1366q0 57 40.5 97t97.5 40t97 -40t40 -97t-40 -97t-97 -40t-97.5 40t-40.5 97zM371 534 q0 -97 12.5 -159.5t49.5 -99.5q46 -46 124 -46t124 46q37 37 49.5 99.5t12.5 159.5t-12.5 159t-49.5 99q-46 46 -124 46t-124 -46q-37 -37 -49.5 -99t-12.5 -159zM651 1366q0 57 40 97t97 40t97.5 -40t40.5 -97t-40.5 -97t-97.5 -40t-97 40t-40 97z" />
<glyph unicode="&#xf7;" d="M94 585q0 75 59 105q32 16 109 16h588q77 0 109 -16q59 -30 59 -105q0 -76 -59 -106q-30 -15 -109 -15h-588q-79 0 -109 15q-59 30 -59 106zM378 160q0 74 52 126t126 52t127 -52.5t53 -125.5t-53 -125.5t-127 -52.5t-126 52t-52 126zM378 1010q0 74 52 126t126 52 t127 -52.5t53 -125.5t-53 -126t-127 -53q-73 0 -125.5 52.5t-52.5 126.5z" />
<glyph unicode="&#xf8;" horiz-adv-x="1113" d="M104 534q0 152 26 246t96 168q125 131 330 131q108 0 197 -38l27 46q30 50 55 65q43 26 92 -3q49 -28 46 -80q-3 -31 -31 -78l-38 -62q59 -71 82 -162.5t23 -232.5q0 -152 -26 -246.5t-96 -168.5q-125 -131 -331 -131q-112 0 -196 38l-28 -49q-30 -49 -54 -64 q-43 -26 -93 3q-49 28 -46 80q3 31 31 78l39 64q-60 70 -82.5 161t-22.5 235zM371 534q0 -112 21 -163l260 442q-41 25 -96 25q-78 0 -124 -46q-38 -38 -49.5 -99t-11.5 -159zM457 255q43 -26 99 -26q78 0 125 47q38 37 49.5 98.5t11.5 159.5q0 110 -23 163z" />
<glyph unicode="&#xf9;" horiz-adv-x="1173" d="M139 385v508q0 82 18 119q31 63 115 63q85 0 116 -63q18 -37 18 -119v-471q0 -99 52 -146t124 -47q73 0 125.5 47t52.5 146v471q0 84 17 119q31 63 116 63t116 -63q17 -35 17 -119v-720q0 -52 -3.5 -74.5t-15.5 -45.5q-14 -28 -45.5 -44.5t-69.5 -16.5q-52 0 -85 31 q-28 24 -40 77q-50 -55 -120.5 -83.5t-146.5 -28.5q-158 0 -252 94q-61 61 -85 134.5t-24 168.5zM313 1529q-5 59 56 98q30 19 62 19q31 0 58 -19q24 -17 57 -71l87 -139q38 -60 40 -92q5 -59 -56 -98q-30 -19 -62 -19q-31 0 -58 19q-25 17 -57 70l-87 140q-38 60 -40 92z " />
<glyph unicode="&#xfa;" horiz-adv-x="1173" d="M139 385v508q0 82 18 119q31 63 115 63q85 0 116 -63q18 -37 18 -119v-471q0 -99 52 -146t124 -47q73 0 125.5 47t52.5 146v471q0 84 17 119q31 63 116 63t116 -63q17 -35 17 -119v-720q0 -52 -3.5 -74.5t-15.5 -45.5q-14 -28 -45.5 -44.5t-69.5 -16.5q-52 0 -85 31 q-28 24 -40 77q-50 -55 -120.5 -83.5t-146.5 -28.5q-158 0 -252 94q-61 61 -85 134.5t-24 168.5zM490 1325q2 32 40 92l87 139q33 54 57 71q27 19 58 19q33 0 63 -19q60 -39 55 -98q-2 -32 -40 -92l-87 -140q-32 -54 -56 -70q-27 -19 -59 -19t-62 19q-61 39 -56 98z" />
<glyph unicode="&#xfb;" horiz-adv-x="1173" d="M139 385v508q0 82 18 119q31 63 115 63q85 0 116 -63q18 -37 18 -119v-471q0 -99 52 -146t124 -47q73 0 125.5 47t52.5 146v471q0 84 17 119q31 63 116 63t116 -63q17 -35 17 -119v-720q0 -52 -3.5 -74.5t-15.5 -45.5q-14 -28 -45.5 -44.5t-69.5 -16.5q-52 0 -85 31 q-28 24 -40 77q-50 -55 -120.5 -83.5t-146.5 -28.5q-158 0 -252 94q-61 61 -85 134.5t-24 168.5zM253 1332q6 18 17 33.5t37 41.5l158 158q61 61 116 61q25 0 48 -10.5t35.5 -21t31.5 -29.5l158 -158q44 -44 54 -75q16 -55 -28 -99q-46 -46 -100 -29q-30 10 -74 54l-125 124 l-125 -124q-44 -44 -75 -54q-53 -17 -99 29q-45 45 -29 99z" />
<glyph unicode="&#xfc;" horiz-adv-x="1173" d="M139 385v508q0 82 18 119q31 63 115 63q85 0 116 -63q18 -37 18 -119v-471q0 -99 52 -146t124 -47q73 0 125.5 47t52.5 146v471q0 84 17 119q31 63 116 63t116 -63q17 -35 17 -119v-720q0 -52 -3.5 -74.5t-15.5 -45.5q-14 -28 -45.5 -44.5t-69.5 -16.5q-52 0 -85 31 q-28 24 -40 77q-50 -55 -120.5 -83.5t-146.5 -28.5q-158 0 -252 94q-61 61 -85 134.5t-24 168.5zM212 1366q0 57 40 97t97 40t97 -40t40 -97t-40 -97t-97 -40t-97 40t-40 97zM675 1366q0 57 40 97t97 40t97 -40t40 -97t-40 -97t-97 -40t-97 40t-40 97z" />
<glyph unicode="&#xfd;" horiz-adv-x="940" d="M47 992q12 36 46.5 59.5t77.5 23.5q30 0 51.5 -9.5t36 -31t22 -39t18.5 -48.5l170 -528l172 528q11 31 18.5 48.5t22 39t36 31t51.5 9.5q43 0 77.5 -23.5t46.5 -59.5q13 -39 -15 -124l-360 -1043q-26 -79 -81 -136q-83 -84 -218 -84q-70 0 -102 16q-59 30 -59 106 q0 75 59 105q24 12 65 12t70 22t48 77l38 113l-276 812q-28 85 -15 124zM382 1325q2 32 40 92l87 139q33 56 56 71q27 19 59 19t62 -19q60 -39 55 -98q-2 -32 -40 -92l-87 -140q-32 -54 -56 -70q-27 -19 -58 -19q-33 0 -63 19q-60 39 -55 98z" />
<glyph unicode="&#xfe;" horiz-adv-x="1145" d="M148 -217v1501q0 82 18 119q31 63 116 63q84 0 115 -63q18 -37 18 -119v-311q92 106 258 106q165 0 258 -96q69 -70 89.5 -176.5t20.5 -271.5q0 -166 -20.5 -273.5t-89.5 -177.5q-44 -46 -112.5 -71t-146.5 -25q-85 0 -145.5 23t-111.5 78v-306q0 -82 -18 -119 q-31 -63 -115 -63q-85 0 -116 63q-18 37 -18 119zM415 535q0 -47 2.5 -82.5t9 -72.5t19 -62.5t32 -46.5t49.5 -31.5t70 -10.5q46 0 79 16t52 41.5t30 67.5t14 83t3 98t-3.5 97.5t-14 82t-30 66.5t-52.5 41t-80 16t-80 -16t-52.5 -41t-30 -66.5t-14 -82t-3.5 -97.5z" />
<glyph unicode="&#xff;" horiz-adv-x="940" d="M47 992q12 36 46.5 59.5t77.5 23.5q30 0 51.5 -9.5t36 -31t22 -39t18.5 -48.5l170 -528l172 528q11 31 18.5 48.5t22 39t36 31t51.5 9.5q43 0 77.5 -23.5t46.5 -59.5q13 -39 -15 -124l-360 -1043q-26 -79 -81 -136q-83 -84 -218 -84q-70 0 -102 16q-59 30 -59 106 q0 75 59 105q24 12 65 12t70 22t48 77l38 113l-276 812q-28 85 -15 124zM103 1366q0 57 40.5 97t97.5 40t97 -40t40 -97t-40 -97t-97 -40t-97.5 40t-40.5 97zM566 1366q0 57 40 97t97 40t97.5 -40t40.5 -97t-40.5 -97t-97.5 -40t-97 40t-40 97z" />
<glyph unicode="&#x152;" horiz-adv-x="1977" d="M119 729q0 84 1 132t5.5 111t14 103t26 86t41.5 83t61 73q151 153 391 153q171 0 287 -98q11 27 30 46t45 28t43 10.5t46 1.5h599q80 0 112 -16q27 -14 43.5 -44t16.5 -67t-16.5 -66.5t-43.5 -43.5q-34 -17 -112 -17h-512v-342h414q79 0 111 -16q27 -14 44 -44t17 -67 t-17 -66.5t-44 -43.5q-34 -17 -111 -17h-414v-354h512q80 0 112 -16q27 -14 43.5 -44t16.5 -67t-16.5 -67t-43.5 -44q-32 -16 -112 -16h-599q-29 0 -46 1.5t-43 10.5t-45 28q-20 20 -30 45q-117 -97 -287 -97q-240 0 -391 153q-36 36 -61 73t-41.5 83t-26 86t-14 103 t-5.5 111t-1 132zM406 729q0 -204 14 -282.5t56 -125.5q70 -79 183 -79q114 0 184 79q42 47 56 125.5t14 282.5t-14 283.5t-56 126.5q-68 78 -184 78q-115 0 -183 -78q-42 -47 -56 -126.5t-14 -283.5z" />
<glyph unicode="&#x153;" horiz-adv-x="1763" d="M104 534q0 152 26 246t96 168q125 131 331 131q213 0 329 -140q120 140 321 140q209 0 332.5 -134t130.5 -342q2 -81 -36 -119q-16 -16 -38 -23.5t-36 -8.5t-42 -1h-513q0 -107 61 -172.5t174 -65.5q108 0 184 57q56 40 100 40q40 0 73.5 -33.5t33.5 -77.5 q0 -68 -104 -138q-109 -73 -291 -73q-232 0 -356 136q-114 -136 -323 -136q-206 0 -331 131q-70 74 -96 168.5t-26 246.5zM371 534q0 -97 12.5 -159.5t49.5 -99.5q46 -46 124 -46t124 46q37 37 49.5 99.5t12.5 159.5t-12.5 159t-49.5 99q-46 46 -124 46t-124 -46 q-37 -37 -49.5 -99t-12.5 -159zM1005 633h404q-3 68 -24 116q-23 50 -68.5 79.5t-110.5 29.5q-64 0 -110 -29.5t-68 -79.5q-22 -49 -23 -116z" />
<glyph unicode="&#x178;" horiz-adv-x="1105" d="M43 1341q1 32 20.5 61.5t54.5 47.5q33 16 66 16q38 0 67 -21q19 -13 31 -31.5t36 -65.5l235 -474l234 474q23 46 36 64.5t32 32.5q29 21 67 21q33 0 66 -16q35 -18 54.5 -47.5t20.5 -61.5q1 -24 -6.5 -45t-30.5 -67l-330 -658v-387q0 -52 -3.5 -76t-15.5 -49 q-17 -31 -50 -49t-74 -18t-74 18t-50 49q-12 25 -15.5 49t-3.5 76v387l-330 658q-23 46 -30.5 67t-6.5 45zM185 1732q0 57 40.5 97t97.5 40t97 -40t40 -97t-40 -97.5t-97 -40.5t-97.5 40.5t-40.5 97.5zM648 1732q0 57 40 97t97 40t97.5 -40t40.5 -97t-40.5 -97.5 t-97.5 -40.5t-97 40.5t-40 97.5z" />
<glyph unicode="&#x2c6;" d="M228 1332q10 30 55 75l157 158q61 61 116 61t116 -61l157 -158q45 -45 55 -75q16 -54 -29 -99q-46 -46 -99 -29q-32 10 -75 54l-125 124l-125 -124q-43 -44 -75 -54q-53 -17 -99 29q-45 45 -29 99z" />
<glyph unicode="&#x2dc;" d="M178 1365q0 49 58 95q46 37 86.5 50.5t93.5 13.5q82 0 163 -45q61 -35 108 -35t89 33q37 26 67 26q45 0 69 -30q22 -26 22 -65q0 -50 -57 -95q-46 -37 -87 -50.5t-94 -13.5q-46 0 -80.5 9.5t-81.5 35.5q-61 35 -109 35q-47 0 -89 -33q-37 -26 -67 -26q-45 0 -69 30 q-22 26 -22 65z" />
<glyph unicode="&#x2000;" horiz-adv-x="1039" />
<glyph unicode="&#x2001;" horiz-adv-x="2079" />
<glyph unicode="&#x2002;" horiz-adv-x="1039" />
<glyph unicode="&#x2003;" horiz-adv-x="2079" />
<glyph unicode="&#x2004;" horiz-adv-x="693" />
<glyph unicode="&#x2005;" horiz-adv-x="519" />
<glyph unicode="&#x2006;" horiz-adv-x="346" />
<glyph unicode="&#x2007;" horiz-adv-x="346" />
<glyph unicode="&#x2008;" horiz-adv-x="259" />
<glyph unicode="&#x2009;" horiz-adv-x="415" />
<glyph unicode="&#x200a;" horiz-adv-x="115" />
<glyph unicode="&#x2010;" horiz-adv-x="872" d="M113 585q0 75 58 105q32 16 110 16h311q77 0 109 -16q59 -30 59 -105q0 -76 -59 -106q-30 -15 -109 -15h-311q-80 0 -110 15q-58 30 -58 106z" />
<glyph unicode="&#x2011;" horiz-adv-x="872" d="M113 585q0 75 58 105q32 16 110 16h311q77 0 109 -16q59 -30 59 -105q0 -76 -59 -106q-30 -15 -109 -15h-311q-80 0 -110 15q-58 30 -58 106z" />
<glyph unicode="&#x2012;" horiz-adv-x="872" d="M113 585q0 75 58 105q32 16 110 16h311q77 0 109 -16q59 -30 59 -105q0 -76 -59 -106q-30 -15 -109 -15h-311q-80 0 -110 15q-58 30 -58 106z" />
<glyph unicode="&#x2013;" d="M94 585q0 75 59 105q32 16 109 16h588q77 0 109 -16q59 -30 59 -105q0 -76 -59 -106q-30 -15 -109 -15h-588q-79 0 -109 15q-59 30 -59 106z" />
<glyph unicode="&#x2014;" horiz-adv-x="2104" d="M94 584q0 75 59 105q32 16 109 16h1580q78 0 110 -16q58 -30 58 -105q0 -76 -58 -106q-30 -15 -110 -15h-1580q-79 0 -109 15q-59 30 -59 106z" />
<glyph unicode="&#x2018;" horiz-adv-x="577" d="M106 1005q-6 38 20 116l71 212q15 45 25.5 66t28.5 39q32 32 84 32q44 0 86.5 -27t49.5 -78q6 -40 -19 -117l-71 -212q-15 -45 -25.5 -65.5t-28.5 -38.5q-33 -33 -84 -33q-44 0 -87 27.5t-50 78.5z" />
<glyph unicode="&#x2019;" horiz-adv-x="577" d="M106 1005q-6 38 20 116l71 212q15 45 25.5 66t28.5 39q32 32 84 32q44 0 86.5 -27t49.5 -78q6 -40 -19 -117l-71 -212q-15 -45 -25.5 -65.5t-28.5 -38.5q-33 -33 -84 -33q-44 0 -87 27.5t-50 78.5z" />
<glyph unicode="&#x201a;" horiz-adv-x="577" d="M106 -171q-6 38 20 117l71 212q15 45 25.5 65.5t28.5 38.5q33 33 84 33q44 0 86.5 -27.5t49.5 -78.5q6 -40 -19 -116l-71 -212q-15 -45 -25.5 -66t-28.5 -39q-32 -32 -84 -32q-44 0 -87 27.5t-50 77.5z" />
<glyph unicode="&#x201c;" horiz-adv-x="1027" d="M106 1005q-6 38 20 116l71 212q15 45 25.5 66t28.5 39q32 32 84 32q44 0 86.5 -27t49.5 -78q6 -40 -19 -117l-71 -212q-15 -45 -25.5 -65.5t-28.5 -38.5q-33 -33 -84 -33q-44 0 -87 27.5t-50 78.5zM556 1006q-6 40 19 116l71 212q15 45 25.5 66t28.5 39q32 32 84 32 q44 0 87 -27.5t50 -77.5q6 -38 -20 -117l-71 -212q-15 -45 -25.5 -65.5t-28.5 -38.5q-33 -33 -84 -33q-44 0 -86.5 27.5t-49.5 78.5z" />
<glyph unicode="&#x201d;" horiz-adv-x="1027" d="M106 1005q-6 38 20 116l71 212q15 45 25.5 66t28.5 39q32 32 84 32q44 0 86.5 -27t49.5 -78q6 -40 -19 -117l-71 -212q-15 -45 -25.5 -65.5t-28.5 -38.5q-33 -33 -84 -33q-44 0 -87 27.5t-50 78.5zM556 1006q-6 40 19 116l71 212q15 45 25.5 66t28.5 39q32 32 84 32 q44 0 87 -27.5t50 -77.5q6 -38 -20 -117l-71 -212q-15 -45 -25.5 -65.5t-28.5 -38.5q-33 -33 -84 -33q-44 0 -86.5 27.5t-49.5 78.5z" />
<glyph unicode="&#x201e;" horiz-adv-x="1027" d="M106 -159q-6 38 20 117l71 212q15 45 25.5 65.5t28.5 38.5q33 33 84 33q44 0 86.5 -27t49.5 -78q6 -40 -19 -117l-71 -212q-15 -45 -25.5 -65.5t-28.5 -38.5q-33 -33 -84 -33q-44 0 -87 27.5t-50 77.5zM556 -158q-6 40 19 117l71 212q15 45 25.5 65.5t28.5 38.5 q33 33 84 33q44 0 87 -27.5t50 -77.5q6 -38 -20 -117l-71 -212q-15 -45 -25.5 -65.5t-28.5 -38.5q-33 -33 -84 -33q-44 0 -86.5 27t-49.5 78z" />
<glyph unicode="&#x2022;" horiz-adv-x="1114" d="M223 585q0 138 98 236t236 98t236 -98t98 -236t-98 -236t-236 -98t-236 98t-98 236z" />
<glyph unicode="&#x2026;" horiz-adv-x="1710" d="M113 172q0 74 52.5 126t125.5 52q74 0 127 -52.5t53 -125.5t-53 -125.5t-127 -52.5q-73 0 -125.5 52t-52.5 126zM678 172q0 74 52 126t126 52t126 -52t52 -126t-52 -126t-126 -52t-126 52t-52 126zM1241 172q0 74 52.5 126t125.5 52t125.5 -52t52.5 -126t-52.5 -126 t-125.5 -52t-125.5 52t-52.5 126z" />
<glyph unicode="&#x202f;" horiz-adv-x="415" />
<glyph unicode="&#x2039;" horiz-adv-x="747" d="M69 554l318 318q33 33 50.5 46t38.5 20q62 21 119 -35q55 -55 35 -118q-7 -21 -20 -39t-46 -51l-141 -141l141 -141q33 -33 46 -51t20 -39q20 -63 -35 -118q-57 -56 -119 -35q-21 7 -38.5 20t-50.5 46z" />
<glyph unicode="&#x203a;" horiz-adv-x="747" d="M118 323q11 36 65 90l142 141l-142 141q-54 54 -65 90q-20 63 35 118q57 55 118 35q21 -7 38.5 -20t50.5 -46l319 -318l-319 -318q-33 -33 -50.5 -46t-38.5 -20q-61 -20 -118 35q-55 55 -35 118z" />
<glyph unicode="&#x205f;" horiz-adv-x="519" />
<glyph unicode="&#x20ac;" horiz-adv-x="1402" d="M103 565q0 65 50 88q30 15 90 15h15v129h-15q-62 0 -90 14q-50 25 -50 88q0 65 50 88q28 14 90 14h25q11 100 43.5 175.5t97.5 140.5q151 153 388 153q128 0 215.5 -31.5t157.5 -99.5q65 -62 95 -131t30 -121q0 -70 -38 -108q-39 -39 -99 -39q-50 0 -82 25 q-38 30 -70 101q-68 151 -215 151q-104 0 -174 -78q-45 -53 -59 -138h179q61 0 89 -14q50 -23 50 -88q0 -63 -50 -88q-28 -14 -89 -14h-192v-129h192q59 0 89 -15q50 -23 50 -88q0 -63 -50 -88q-28 -14 -89 -14h-180q13 -90 60 -144q69 -77 174 -77q147 0 215 150 q33 72 70 102q31 24 82 24q60 0 99 -39q38 -38 38 -108q0 -52 -30 -121t-95 -131q-70 -68 -157.5 -99.5t-215.5 -31.5q-237 0 -388 153q-66 66 -98.5 142.5t-43.5 179.5h-24q-62 0 -90 14q-50 25 -50 88z" />
<glyph unicode="&#x2122;" horiz-adv-x="1893" d="M85 1371q0 54 40 74q23 13 77 13h428q53 0 76 -13q40 -19 40 -74t-40 -74q-23 -13 -76 -13h-116v-574q0 -60 -13 -86q-24 -49 -85 -49t-85 49q-14 28 -14 86v574h-115q-54 0 -77 13q-40 20 -40 74zM871 710v609q0 79 33 111q34 34 86 34q41 0 65 -16q30 -17 57 -69 l207 -387l207 387q27 52 57 69q24 16 65 16q52 0 86 -34q32 -31 32 -111v-609q0 -60 -13 -86q-24 -49 -85 -49t-85 49q-13 26 -13 86v388l-135 -260q-16 -31 -46.5 -50.5t-69.5 -19.5t-69.5 19.5t-46.5 50.5l-135 260v-388q0 -60 -13 -86q-24 -49 -85 -49t-85 49 q-14 28 -14 86z" />
<glyph unicode="&#x25fc;" horiz-adv-x="1075" d="M0 0v1075h1075v-1075h-1075z" />
<glyph unicode="&#xfb01;" horiz-adv-x="1246" d="M38 935q0 63 49 88q28 14 90 14h28v131q0 61 17.5 114t53 97t96.5 69.5t141 25.5h14q72 0 110 -19q53 -27 53 -95q0 -69 -53 -95q-29 -14 -80 -17q-86 -5 -86 -94v-117h80q62 0 90 -14q49 -25 49 -88t-49 -88q-28 -14 -90 -14h-80v-659q0 -84 -17 -119q-31 -63 -116 -63 t-116 63q-17 35 -17 119v659h-28q-62 0 -90 14q-49 25 -49 88zM811 1367q0 64 45 109t109 45t108.5 -45t44.5 -109t-44.5 -109t-108.5 -45t-109 45t-45 109zM831 174v688q0 82 18 119q31 63 116 63q84 0 115 -63q18 -37 18 -119v-688q0 -82 -18 -119q-31 -63 -115 -63 q-85 0 -116 63q-18 37 -18 119z" />
<glyph unicode="&#xfb02;" horiz-adv-x="1348" d="M38 935q0 63 49 88q28 14 90 14h28v131q0 61 17.5 114t53 97t96.5 69.5t141 25.5h14q72 0 110 -19q53 -27 53 -95q0 -69 -53 -95q-29 -14 -80 -17q-86 -5 -86 -94v-117h80q62 0 90 -14q49 -25 49 -88t-49 -88q-28 -14 -90 -14h-80v-659q0 -84 -17 -119q-31 -63 -116 -63 t-116 63q-17 35 -17 119v659h-28q-62 0 -90 14q-49 25 -49 88zM837 305v979q0 84 17 119q31 63 116 63q84 0 115 -63q18 -37 18 -119v-965q0 -89 86 -94q53 -3 80 -16q53 -26 53 -95q0 -70 -53 -96q-36 -18 -110 -18h-14q-80 0 -141 25.5t-96.5 69t-53 96.5t-17.5 114z" />
</font>
</defs>
</svg>
