<?xml version="1.0" standalone="no"?>
<!DOCTYPE svg PUBLIC "-//W3C//DTD SVG 1.1//EN" "http://www.w3.org/Graphics/SVG/1.1/DTD/svg11.dtd" >
<svg xmlns="http://www.w3.org/2000/svg">
<metadata></metadata>
<defs>
<font id="din_round_prolight" horiz-adv-x="1052" >
<font-face units-per-em="2048" ascent="1565" descent="-483" />
<missing-glyph horiz-adv-x="522" />
<glyph horiz-adv-x="0" />
<glyph horiz-adv-x="0" />
<glyph horiz-adv-x="682" />
<glyph unicode="&#xd;" horiz-adv-x="522" />
<glyph unicode=" "  horiz-adv-x="522" />
<glyph unicode="&#x09;" horiz-adv-x="522" />
<glyph unicode="&#xa0;" horiz-adv-x="522" />
<glyph unicode="!" horiz-adv-x="622" d="M260 76q0 34 24 58t58 24t58 -24t24 -58t-24 -58t-58 -24t-58 24t-24 58zM287 462v928q0 37 12 56q14 20 43 20t43 -20q12 -19 12 -56v-928q0 -37 -12 -56q-15 -21 -43 -21t-43 21q-12 19 -12 56z" />
<glyph unicode="&#x22;" horiz-adv-x="760" d="M168 1176v223q0 35 11 51q13 20 42 20t42 -20q11 -17 11 -51v-223q0 -36 -11 -52q-13 -20 -42 -20t-42 20q-11 16 -11 52zM486 1176v223q0 33 12 51q13 20 42 20t42 -20q11 -17 11 -51v-223q0 -36 -11 -52q-13 -20 -42 -20t-42 20q-12 18 -12 52z" />
<glyph unicode="#" horiz-adv-x="1308" d="M130 535q0 23 18 36q16 11 48 11h156l64 313h-160q-33 0 -47 10q-19 14 -19 37t19 37q14 10 47 10h178l83 417q6 33 23 48q14 12 33 12q21 0 35 -14q21 -21 12 -67l-79 -396h330l83 417q6 33 23 48q13 12 34 12t35 -14q20 -20 11 -67l-79 -396h136q33 0 47 -10 q19 -14 19 -37t-19 -37q-14 -10 -47 -10h-155l-63 -313h158q31 0 47 -11q18 -13 18 -36t-18 -37q-16 -11 -47 -11h-176l-87 -435q-6 -33 -23 -48q-14 -12 -34 -12q-21 0 -35 14q-20 20 -11 67l83 414h-331l-87 -435q-7 -34 -22 -48q-13 -12 -34 -12t-35 14q-20 20 -11 67 l83 414h-138q-32 0 -48 11q-18 14 -18 37zM459 582h331l63 313h-331z" />
<glyph unicode="$" horiz-adv-x="1202" d="M119 189q0 24 15 39q16 16 37 16q19 0 58 -31q77 -64 148 -92.5t165 -33.5v604l-32 5q-87 14 -146 38t-114 70q-115 97 -115 267q0 172 109 278.5t298 118.5v125q0 33 10 47q14 19 37 19t37 -19q10 -14 10 -47v-124q95 -4 167 -30t151 -82q41 -29 41 -58q0 -19 -11 -31 q-15 -18 -38 -18q-18 0 -58 28q-68 49 -123.5 69.5t-128.5 25.5v-594l58 -9q103 -17 159.5 -37.5t102.5 -58.5q125 -103 125 -283q0 -175 -119.5 -283t-325.5 -119v-165q0 -33 -10 -47q-14 -19 -37 -19t-37 19q-10 14 -10 47v165q-115 5 -206 37t-178 104q-39 30 -39 59z M244 1075q0 -129 75 -192q44 -37 91.5 -56t125.5 -32l6 -1v579q-140 -10 -219 -89.5t-79 -208.5zM636 87q156 9 245.5 88t89.5 212q0 136 -80 205q-39 34 -80 48.5t-131 29.5l-44 7v-590z" />
<glyph unicode="%" horiz-adv-x="1695" d="M141 977v219q0 123 75.5 198.5t195.5 75.5t194 -75.5t74 -198.5v-219q0 -123 -74 -197.5t-194 -74.5q-121 0 -196 75t-75 197zM231 981q0 -199 181 -199q178 0 178 199v211q0 201 -178 201q-181 0 -181 -201v-211zM462 25q-3 17 10 42l681 1361q13 27 27 34q7 4 16 4 t19 -5q19 -11 22 -27q3 -17 -10 -42l-681 -1362q-13 -27 -27 -34q-7 -4 -16 -4q-10 0 -20 5q-18 10 -21 28zM1016 260v219q0 123 75 199t195 76t194 -76t74 -199v-219q0 -123 -74 -197.5t-194 -74.5t-195 75t-75 197zM1106 264q0 -198 180 -198q178 0 178 198v211 q0 201 -178 201q-180 0 -180 -201v-211z" />
<glyph unicode="&#x26;" horiz-adv-x="1488" d="M172 403q0 47 9.5 89.5t24 76t41.5 68.5t50 59t64 56t68.5 51.5t76.5 52.5q-38 46 -59 74t-49 72.5t-41 88.5t-13 89q0 122 86.5 206t210.5 84q123 0 210 -84.5t87 -207.5q0 -84 -44.5 -146.5t-123.5 -116.5l-108 -73l417 -506q43 64 60.5 128.5t23.5 170.5q2 43 15 62 q13 20 41 20q27 0 41 -20q12 -16 12 -57q0 -96 -31 -204q-30 -104 -94 -182l127 -152q29 -34 29 -59q0 -23 -21 -39q-15 -12 -33 -12q-27 0 -61 41l-115 139q-27 -27 -61.5 -53t-91 -58.5t-134 -52.5t-161.5 -20q-201 0 -327 114.5t-126 300.5zM283 410q0 -143 94 -233.5 t246 -90.5q98 0 192 35.5t197 126.5l-443 534q-41 -27 -65 -44t-58.5 -43t-54.5 -46.5t-43.5 -49t-35.5 -56t-20.5 -62t-8.5 -71.5zM455 1184q0 -57 29.5 -113.5t113.5 -155.5l35 23q102 66 149 118t47 122q0 84 -54 139t-134 55t-133 -53.5t-53 -134.5z" />
<glyph unicode="'" horiz-adv-x="442" d="M168 1176v223q0 35 11 51q13 20 42 20t42 -20q11 -17 11 -51v-223q0 -36 -11 -52q-13 -20 -42 -20t-42 20q-11 16 -11 52z" />
<glyph unicode="(" horiz-adv-x="581" d="M205 162v1134q0 117 39 191q34 65 92 123q30 30 53 30q21 0 35 -14t14 -35q0 -23 -30 -53q-48 -48 -68 -92q-29 -59 -29 -162v-1110q0 -103 29 -162q20 -44 68 -92q30 -30 30 -53q0 -21 -14 -35t-35 -14q-23 0 -53 30q-58 58 -92 123q-39 74 -39 191z" />
<glyph unicode=")" horiz-adv-x="581" d="M143 -133q0 22 31 53q48 48 68 92q28 57 28 162v1110q0 105 -28 162q-20 44 -68 92q-31 31 -31 53q0 20 15 35q14 14 35 14q23 0 53 -30q58 -58 92 -123q39 -74 39 -191v-1134q0 -117 -39 -191q-34 -65 -92 -123q-30 -30 -53 -30q-21 0 -35 14q-15 15 -15 35z" />
<glyph unicode="*" horiz-adv-x="974" d="M172 963q5 13 31 29l203 122l-203 122q-25 16 -31 30q-8 20 3 36q10 16 30 19q16 1 41 -13l200 -121v234q0 29 10 42q12 16 31 16q20 0 32 -16q9 -12 9 -42v-234l201 121q25 14 41 13q20 -3 30 -19t3 -36q-6 -14 -31 -30l-204 -122l204 -122q26 -16 31 -29q7 -19 -3 -36 q-11 -17 -30 -20q-15 -1 -41 14l-201 119v-233q0 -30 -9 -42q-11 -15 -32 -15q-20 0 -31 15q-10 13 -10 42v233l-200 -119q-26 -15 -41 -14q-19 3 -30 20t-3 36z" />
<glyph unicode="+" d="M100 540q0 23 19 37q14 10 47 10h313v313q0 33 10 47q14 19 37 19t37 -19q10 -14 10 -47v-313h314q33 0 47 -10q18 -13 18 -37t-18 -37q-14 -10 -47 -10h-314v-314q0 -33 -10 -47q-13 -18 -37 -18t-37 18q-10 14 -10 47v314h-313q-33 0 -47 10q-19 14 -19 37z" />
<glyph unicode="," horiz-adv-x="459" d="M86 -195q-5 18 6 53l90 270q10 32 25 44q13 10 32 10q18 0 32 -10.5t19 -25.5q5 -18 -6 -52l-90 -270q-10 -32 -25 -44q-13 -10 -32 -10q-18 0 -32 10t-19 25z" />
<glyph unicode="-" horiz-adv-x="872" d="M160 540q0 24 18 37q14 10 47 10h422q33 0 47 -10q19 -14 19 -37t-19 -37q-14 -10 -47 -10h-422q-33 0 -47 10q-18 13 -18 37z" />
<glyph unicode="." horiz-adv-x="540" d="M176 88q0 39 27.5 66.5t66.5 27.5t67 -27.5t28 -66.5t-28 -66.5t-67 -27.5t-66.5 27.5t-27.5 66.5z" />
<glyph unicode="/" horiz-adv-x="692" d="M18 -127q-6 16 6 53l546 1639q17 53 56 53q36 0 48 -33q6 -18 -5 -53l-547 -1638q-17 -54 -55 -54q-37 0 -49 33z" />
<glyph unicode="0" d="M143 377v704q0 171 107.5 280t275.5 109t275.5 -109t107.5 -280v-704q0 -171 -107.5 -280t-275.5 -109t-275.5 109t-107.5 280zM250 376q0 -129 72.5 -211.5t203.5 -82.5t204 82.5t73 211.5v706q0 129 -73 211.5t-204 82.5t-203.5 -82.5t-72.5 -211.5v-706z" />
<glyph unicode="1" d="M253 1154q3 17 29 43l238 239q30 30 63 30q26 0 43 -17t17 -65v-1321q0 -35 -11 -51q-13 -20 -42 -20t-42 20q-11 16 -11 51v1250l-186 -186q-25 -25 -43 -28q-25 -3 -42 14q-16 16 -13 41z" />
<glyph unicode="2" d="M135 49q0 22 36 70l549 724q94 126 94 265q0 122 -72.5 195t-202.5 73q-65 0 -119.5 -20t-98.5 -70t-59 -126q-9 -49 -20 -64q-14 -21 -41 -21q-26 0 -39 19q-10 15 -10 38q0 46 26 113t78 119q106 106 283 106q175 0 278.5 -97t103.5 -265q0 -90 -28 -163t-88 -152 l-531 -699h588q33 0 47 -10q19 -14 19 -37t-19 -37q-14 -10 -47 -10h-633q-26 0 -38 0.5t-24 4t-20 11.5q-12 14 -12 33z" />
<glyph unicode="3" d="M93 311q0 40 17 57q14 14 35 14t33 -12q16 -16 21 -54q32 -234 296 -234q134 0 225 85.5t91 223.5q0 149 -77.5 229t-229.5 80q-31 0 -47 11q-19 14 -19 37q0 22 19 36q16 11 47 11q139 0 209.5 78t70.5 216q0 133 -78.5 210t-203.5 77q-230 0 -273 -211q-8 -43 -23 -58 q-13 -13 -35 -13q-23 0 -37 17q-12 15 -12 43q0 54 28 113t71 102q101 101 281 101q171 0 280 -103t109 -278q0 -247 -211 -335q113 -33 175.5 -124t62.5 -239q0 -178 -123.5 -290.5t-299.5 -112.5q-111 0 -183 26.5t-128 82.5q-91 91 -91 214z" />
<glyph unicode="4" d="M71 285q0 17 12 41l547 1093q15 31 32 41q10 6 24 6q18 0 32 -13t14 -33q0 -17 -14 -45l-522 -1043h470v399q0 34 11 51q14 21 42 21t42 -21q11 -17 11 -51v-399h135q33 0 47 -10q19 -14 19 -37t-19 -37q-14 -10 -47 -10h-135v-175q0 -35 -11 -51q-13 -20 -42 -20t-42 20 q-11 16 -11 51v175h-532q-29 0 -42 8q-21 13 -21 39z" />
<glyph unicode="5" d="M151 304q0 28 12 43q15 18 38 18q21 0 35 -14q15 -15 23 -58q43 -211 271 -211q128 0 201 73q31 31 50 69.5t26.5 86.5t9.5 81.5t2 86.5q0 61 -5 110t-22 103.5t-45.5 90.5t-79.5 60t-120 24q-87 0 -148 -28t-104 -94q-10 -16 -25 -29q-11 -10 -32 -10q-22 0 -35 13 q-15 15 -15 48v628q0 34 15 49q14 14 49 14h582q33 0 47 -10q18 -14 18 -37t-18 -37q-14 -10 -47 -10h-551v-510q54 57 117.5 82.5t158.5 25.5q157 0 246 -89q121 -121 121 -394q0 -129 -22.5 -223t-92.5 -164q-104 -104 -281 -104q-182 0 -282 100q-42 42 -69.5 101.5 t-27.5 114.5z" />
<glyph unicode="6" d="M143 397q0 135 83 305l358 717q15 32 31 41q10 6 25 6q18 0 32 -13t14 -33q0 -17 -14 -45l-293 -587q75 31 162 31q176 0 277.5 -115.5t101.5 -291.5q0 -182 -104 -303t-284 -121q-182 0 -285.5 113t-103.5 296zM250 403q0 -147 75.5 -234t204.5 -87t206 87.5t77 233.5 q0 138 -74.5 230t-208.5 92q-129 0 -204.5 -87t-75.5 -235z" />
<glyph unicode="7" d="M174 1200v195q0 35 14 49t50 14h628q53 0 69 -15q14 -14 14 -35q0 -16 -16 -60l-489 -1304q-12 -35 -27 -45q-11 -7 -24 -7q-18 0 -32 9.5t-18 25.5q-4 17 8 52l482 1285h-552v-164q0 -33 -12 -51q-14 -21 -42 -21t-42 21q-11 17 -11 51z" />
<glyph unicode="8" d="M109 395q0 122 62 214t171 150q-203 110 -203 330q0 164 108.5 272.5t278.5 108.5t278.5 -108.5t108.5 -272.5q0 -221 -200 -330q109 -58 170 -150t61 -214q0 -173 -120 -290t-298 -117t-297.5 117t-119.5 290zM215 395q0 -135 89.5 -224t221.5 -89q133 0 222.5 89.5 t89.5 223.5q0 135 -90 224.5t-222 89.5t-221.5 -89.5t-89.5 -224.5zM246 1089q0 -125 78 -206.5t202 -81.5q122 0 201.5 80.5t79.5 207.5q0 125 -78.5 206t-202.5 81t-202 -81t-78 -206z" />
<glyph unicode="9" d="M133 1047q0 182 103.5 302.5t283.5 120.5q182 0 285.5 -113t103.5 -296q0 -135 -83 -305l-357 -717q-15 -31 -32 -41q-11 -6 -24 -6q-18 0 -32 13t-14 33q0 17 14 45l293 587q-75 -31 -162 -31q-176 0 -277.5 116t-101.5 292zM240 1055q0 -138 74 -230t208 -92 q129 0 205 87t76 235q0 147 -76 234t-205 87t-205.5 -87.5t-76.5 -233.5z" />
<glyph unicode=":" horiz-adv-x="598" d="M233 88q0 39 28 66.5t67 27.5t66.5 -27.5t27.5 -66.5t-27.5 -66.5t-66.5 -27.5t-67 27.5t-28 66.5zM233 702q0 39 28 67t67 28t66.5 -28t27.5 -67t-27.5 -66.5t-66.5 -27.5t-67 27.5t-28 66.5z" />
<glyph unicode=";" horiz-adv-x="598" d="M208 -195q-5 18 6 53l90 270q10 32 25 44q13 10 31 10t32.5 -10.5t19.5 -25.5q5 -18 -6 -52l-91 -270q-11 -33 -24 -44q-13 -10 -32 -10q-18 0 -32 10t-19 25zM264 702q0 39 27.5 67t66.5 28t67 -28t28 -67t-28 -66.5t-67 -27.5t-66.5 27.5t-27.5 66.5z" />
<glyph unicode="&#x3c;" d="M198 540q0 32 20.5 50t67.5 42l471 237q30 15 45 15q20 0 33 -14t13 -32q0 -14 -6 -25q-10 -17 -41 -32l-480 -241l480 -242q31 -15 41 -32q6 -10 6 -24q0 -18 -13 -32t-33 -14q-17 0 -45 14l-471 237q-24 12 -36 19.5t-26 19t-20 24.5t-6 30z" />
<glyph unicode="=" d="M100 381q0 23 19 37q14 10 47 10h721q33 0 47 -10q18 -14 18 -37t-18 -37q-14 -10 -47 -10h-721q-33 0 -47 10q-19 14 -19 37zM100 696q0 23 19 37q14 10 47 10h721q33 0 47 -10q18 -13 18 -37t-18 -37q-14 -10 -47 -10h-721q-33 0 -47 10q-19 14 -19 37z" />
<glyph unicode="&#x3e;" d="M205 242q0 14 6 24q10 17 41 32l480 242l-480 241q-31 15 -41 32q-6 11 -6 25q0 18 13 32t33 14q15 0 45 -15l471 -237q25 -12 36.5 -19t26 -18.5t20 -24.5t5.5 -30t-6 -30t-20 -24.5t-26 -19t-36 -19.5l-471 -237q-28 -14 -45 -14q-20 0 -33 14t-13 32z" />
<glyph unicode="?" horiz-adv-x="999" d="M164 1133q0 61 27.5 124.5t71.5 108.5q102 104 267 104q157 0 263 -103t106 -257q0 -65 -22.5 -121t-67.5 -123l-172 -254q-39 -56 -39 -157q0 -36 -11 -52q-13 -20 -42 -20t-42 20q-11 16 -11 52q0 74 10.5 115.5t48.5 97.5l172 254q36 54 53 94.5t17 93.5 q0 114 -75.5 191t-187.5 77q-114 0 -184 -69q-63 -61 -77 -164q-4 -34 -13 -49q-14 -21 -45 -21q-24 0 -37 19q-10 15 -10 39zM463 76q0 34 24 58t58 24t58 -24t24 -58t-24 -58t-58 -24t-58 24t-24 58z" />
<glyph unicode="@" horiz-adv-x="1427" d="M156 322v716q0 195 112 310q107 110 289 110h313q182 0 289 -110q113 -116 113 -310v-975q0 -35 -11 -51q-13 -20 -42 -20t-42 20q-12 18 -12 51v64q-60 -80 -130 -109.5t-163 -29.5q-75 0 -138.5 23.5t-102.5 62.5q-129 129 -129 420q0 290 129 419q39 39 102.5 62.5 t138.5 23.5q93 0 163 -29.5t130 -109.5v174q0 91 -18.5 144t-65.5 100q-86 86 -231 86h-272q-146 0 -232 -86q-47 -47 -65.5 -100t-18.5 -144v-712q0 -67 10 -108t24.5 -62t47.5 -54t33 -53q0 -23 -16 -39q-15 -15 -38 -15t-55 32q-61 61 -86.5 123t-25.5 176zM608 494 q0 -69 5.5 -123t23 -110.5t47.5 -94.5t81.5 -62t121.5 -24t121.5 24t81 61.5t47 95t23 111t5.5 122.5t-5.5 122.5t-23 110.5t-47 94.5t-81 61.5t-121.5 24t-121.5 -24t-81.5 -61.5t-47.5 -94.5t-23 -110.5t-5.5 -122.5z" />
<glyph unicode="A" horiz-adv-x="1232" d="M62 87l490 1311q12 33 21 46q15 22 43 22t43 -22q11 -16 22 -46l489 -1311q10 -25 10 -43q0 -22 -14 -36q-16 -16 -42 -16q-13 0 -26 8q-17 12 -31 48l-116 306h-669l-116 -306q-14 -36 -31 -48q-13 -8 -26 -8q-26 0 -42 16q-14 14 -14 37q0 18 9 42zM316 453h600 l-300 826z" />
<glyph unicode="B" horiz-adv-x="1374" d="M225 66v1326q0 35 16 51q15 15 51 15h470q186 0 304 -102t118 -279q0 -115 -61.5 -203.5t-166.5 -123.5q118 -40 184 -133.5t66 -219.5q0 -191 -115 -294t-313 -103h-487q-35 0 -50 15q-16 16 -16 51zM336 98h430q150 0 240 80.5t90 218.5t-90 218.5t-240 80.5h-430v-598 zM336 795h414q92 0 162.5 27.5t115.5 92.5t45 162q0 143 -90.5 213t-232.5 70h-414v-565z" />
<glyph unicode="C" horiz-adv-x="1318" d="M168 729q0 119 2.5 187t10 137t23.5 111.5t42 84t67 82.5q139 139 355 139q253 0 400 -190q36 -47 59.5 -105.5t23.5 -92.5q0 -26 -14 -40t-36 -14t-36 14q-16 16 -27 53q-40 130 -137 203.5t-233 73.5q-165 0 -277 -112q-74 -74 -93 -178t-19 -353t19 -352.5t93 -177.5 q113 -113 277 -113q136 0 233 74t137 204q11 36 27 52q14 14 36 14t36 -14t14 -40q0 -34 -23.5 -92.5t-59.5 -105.5q-147 -190 -400 -190q-216 0 -355 139q-41 41 -67 82.5t-42 84t-23.5 111.5t-10 137t-2.5 187z" />
<glyph unicode="D" horiz-adv-x="1388" d="M225 66v1327q0 34 16 50q15 15 50 15h424q231 0 364 -133q40 -40 68 -96.5t42 -108.5t21.5 -129.5t9 -127.5t1.5 -134t-1.5 -134t-9 -127.5t-21.5 -129.5t-42 -108.5t-68 -96.5q-133 -133 -364 -133h-424q-35 0 -50 15q-16 16 -16 51zM336 98h352q205 0 313 113 q31 33 53 81.5t32.5 92.5t16 113.5t6.5 111t1 119.5t-1 119.5t-6.5 111t-16 113.5t-32.5 92.5t-53 81.5q-108 113 -313 113h-352v-1262z" />
<glyph unicode="E" horiz-adv-x="1224" d="M225 66v1327q0 34 16 50q15 15 50 15h757q37 0 51 -10q19 -15 19 -39t-19 -39q-14 -10 -51 -10h-712v-576h597q37 0 51 -10q20 -15 20 -39t-20 -39q-14 -10 -51 -10h-597v-588h712q37 0 51 -10q19 -15 19 -39t-19 -39q-14 -10 -51 -10h-757q-35 0 -50 15q-16 16 -16 51z " />
<glyph unicode="F" horiz-adv-x="1179" d="M225 69v1324q0 34 16 50q15 15 50 15h757q37 0 51 -10q19 -15 19 -39t-19 -39q-14 -10 -51 -10h-712v-600h597q37 0 51 -10q20 -15 20 -39t-20 -39q-14 -10 -51 -10h-597v-593q0 -38 -12 -57q-14 -20 -43 -20t-43 20q-13 20 -13 57z" />
<glyph unicode="G" horiz-adv-x="1337" d="M168 729q0 119 2.5 187t10 137t23.5 111.5t42 84t67 82.5q139 139 355 139q253 0 400 -190q36 -47 59.5 -105.5t23.5 -92.5q0 -26 -14 -40t-36 -14t-36 14q-16 16 -27 53q-40 130 -137 203.5t-233 73.5q-165 0 -277 -112q-74 -74 -93 -178t-19 -353t19 -352.5t93 -177.5 q113 -113 277 -113q163 0 276 113q68 68 90.5 162.5t22.5 285.5h-327q-37 0 -51 10q-20 15 -20 39t20 39q14 10 51 10h374q35 0 49 -14t14 -49v-35q-2 -227 -28.5 -328.5t-116.5 -191.5q-139 -139 -354 -139q-216 0 -355 139q-41 41 -67 82.5t-42 84t-23.5 111.5t-10 137 t-2.5 187z" />
<glyph unicode="H" horiz-adv-x="1431" d="M225 69v1321q0 36 13 56q14 20 43 20t43 -20q12 -19 12 -56v-606h760v606q0 37 12 56q14 20 43 20t43 -20q12 -19 12 -56v-1321q0 -38 -12 -57q-14 -20 -43 -20t-43 20q-12 19 -12 57v617h-760v-617q0 -38 -12 -57q-14 -20 -43 -20t-43 20q-13 20 -13 57z" />
<glyph unicode="I" horiz-adv-x="561" d="M225 69v1321q0 36 13 56q14 20 43 20t43 -20q12 -19 12 -56v-1321q0 -38 -12 -57q-14 -20 -43 -20t-43 20q-13 20 -13 57z" />
<glyph unicode="J" horiz-adv-x="1001" d="M53 126q0 20 13 36q15 18 37 18q21 0 61 -30q86 -64 198 -64q158 0 241 94.5t83 272.5v937q0 37 12 56q14 20 43 20t43 -20q13 -20 13 -56v-960q0 -200 -118.5 -321t-316.5 -121q-154 0 -276 86q-33 23 -33 52z" />
<glyph unicode="K" horiz-adv-x="1335" d="M225 69v1321q0 36 13 56q14 20 43 20t43 -20q12 -19 12 -56v-830l717 873q26 33 52 33q21 0 35 -13q21 -17 19 -42q-1 -18 -24 -47l-373 -454l464 -816q17 -31 17 -50q0 -30 -26 -44q-14 -8 -28 -8q-34 0 -60 47l-446 786l-347 -418v-338q0 -38 -12 -57q-14 -20 -43 -20 t-43 20q-13 20 -13 57z" />
<glyph unicode="L" horiz-adv-x="1171" d="M225 66v1324q0 36 13 56q14 20 43 20t43 -20q12 -19 12 -56v-1292h712q37 0 51 -10q19 -15 19 -39t-19 -39q-14 -10 -51 -10h-757q-35 0 -50 15q-16 16 -16 51z" />
<glyph unicode="M" horiz-adv-x="1675" d="M225 69v1322q0 39 20 59q16 16 40 16q22 0 37 -10q15 -9 32 -47l484 -1075l483 1075q16 37 33 47q15 10 37 10q24 0 40 -16q19 -19 19 -59v-1322q0 -38 -12 -57q-14 -20 -43 -20t-43 20q-13 20 -13 57v1123l-421 -926q-16 -35 -33 -51t-47 -16t-47 16t-33 51l-422 926 v-1123q0 -38 -12 -57q-14 -20 -43 -20t-43 20q-13 20 -13 57z" />
<glyph unicode="N" horiz-adv-x="1513" d="M225 69v1321q0 39 20 59q17 17 43 17q36 0 61 -39l829 -1224v1187q0 37 12 56q14 20 43 20t43 -20q12 -19 12 -56v-1321q0 -41 -19 -60q-17 -17 -43 -17q-37 0 -62 39l-828 1224v-1186q0 -38 -12 -57q-14 -20 -43 -20t-43 20q-13 20 -13 57z" />
<glyph unicode="O" horiz-adv-x="1335" d="M168 729q0 119 2.5 187t10 137t23.5 111.5t42 84t67 82.5q139 139 355 139q215 0 354 -139q41 -41 67 -82.5t42 -84t23.5 -111.5t10.5 -137t2.5 -187t-3 -187t-10 -137t-23.5 -111.5t-42 -84t-67 -82.5q-139 -139 -354 -139q-216 0 -355 139q-41 41 -67 82.5t-42 84 t-23.5 111.5t-10 137t-2.5 187zM279 729q0 -249 19 -352.5t93 -177.5q113 -113 277 -113q163 0 276 113q74 74 93.5 178t19.5 352t-19.5 352.5t-93.5 178.5q-112 112 -276 112q-165 0 -277 -112q-74 -74 -93 -178t-19 -353z" />
<glyph unicode="P" horiz-adv-x="1292" d="M225 69v1324q0 34 16 50q15 15 50 15h469q194 0 317 -112.5t123 -307.5t-123 -307.5t-317 -112.5h-424v-549q0 -38 -12 -57q-14 -20 -43 -20t-43 20q-13 20 -13 57zM336 717h412q157 0 249.5 81t92.5 240t-92.5 240.5t-249.5 81.5h-412v-643z" />
<glyph unicode="Q" horiz-adv-x="1335" d="M168 729q0 119 2.5 187t10 137t23.5 111.5t42 84t67 82.5q139 139 355 139q215 0 354 -139q41 -41 67 -82.5t42 -84t23.5 -111.5t10 -137t2.5 -187q0 -255 -18 -364t-86 -193l127 -127q25 -25 29 -44q1 -4 1 -9q0 -18 -17 -35q-16 -16 -35 -16q-4 0 -9 1q-20 4 -44 28 l-127 126q-132 -108 -320 -108q-216 0 -355 139q-41 41 -67 82.5t-42 84t-23.5 111.5t-10 137t-2.5 187zM279 729q0 -249 19 -352.5t93 -177.5q113 -113 277 -113q141 0 245 85l-159 161q-25 25 -29 44q-5 24 15 44t44 15q20 -4 44 -28l158 -158q46 67 58.5 166.5 t12.5 313.5q0 248 -19.5 352.5t-93.5 178.5q-112 112 -276 112q-165 0 -277 -112q-74 -74 -93 -178t-19 -353z" />
<glyph unicode="R" horiz-adv-x="1345" d="M225 69v1324q0 34 16 50q15 15 50 15h489q185 0 301.5 -103t116.5 -288q0 -162 -90 -264t-246 -129l331 -580q17 -31 17 -50q0 -30 -26 -44q-14 -8 -28 -8q-15 0 -27 8t-18 16.5t-14 22.5l-363 633h-398v-603q0 -38 -12 -57q-14 -20 -43 -20t-43 20q-13 20 -13 57z M336 770h430q147 0 234 74t87 221t-87 221t-234 74h-430v-590z" />
<glyph unicode="S" horiz-adv-x="1202" d="M119 189q0 24 15 39q16 16 37 16q19 0 58 -31q88 -72 168.5 -99.5t198.5 -27.5q173 0 274 80t101 221q0 136 -80 205q-39 34 -80.5 49t-130.5 29l-170 26q-87 14 -146 38t-114 70q-115 97 -115 267q0 183 122 291t331 108q116 0 197 -25.5t169 -87.5q41 -29 41 -58 q0 -19 -11 -31q-15 -18 -38 -18q-18 0 -58 28q-79 57 -143 77t-163 20q-158 0 -248 -80.5t-90 -219.5q0 -129 75 -192q45 -37 92.5 -56.5t125.5 -31.5l157 -25q103 -17 159.5 -37.5t102.5 -58.5q125 -103 125 -283q0 -185 -132 -294t-359 -109q-134 0 -235 31.5t-197 110.5 q-39 30 -39 59z" />
<glyph unicode="T" horiz-adv-x="1103" d="M53 1409q0 24 20 39q14 10 51 10h856q37 0 51 -10q20 -15 20 -39t-20 -39q-14 -10 -51 -10h-374v-1291q0 -38 -12 -57q-14 -20 -43 -20t-43 20q-12 19 -12 57v1291h-372q-37 0 -51 10q-20 15 -20 39z" />
<glyph unicode="U" horiz-adv-x="1409" d="M205 473v917q0 37 12 56q14 20 43 20t43 -20q12 -19 12 -56v-903q0 -181 107.5 -291t282.5 -110t282 110t107 291v903q0 37 12 56q14 20 43 20t43 -20q12 -19 12 -56v-917q0 -214 -139.5 -349.5t-359.5 -135.5t-360 135.5t-140 349.5z" />
<glyph unicode="V" horiz-adv-x="1093" d="M39 1431q11 35 51 35q19 0 32 -10q13 -11 24 -44l401 -1223l400 1223q10 32 25 44q13 10 32 10q40 0 51 -35q2 -6 2 -13q0 -16 -8 -40l-440 -1321q-13 -38 -24 -49q-16 -16 -38 -16t-38 16q-13 13 -25 49l-439 1321q-8 24 -8 40q0 7 2 13z" />
<glyph unicode="W" horiz-adv-x="1744" d="M72 1435q5 14 19 22.5t29 8.5q20 0 33 -11q14 -13 23 -49l302 -1218l325 1211q9 35 24 49q17 16 45 16q29 0 46 -16q15 -14 24 -49l325 -1211l302 1218q9 36 23 49q13 11 33 11q15 0 29 -8.5t19 -22.5q3 -8 3 -20q0 -15 -5 -35l-330 -1321q-8 -33 -24 -49 q-18 -18 -45 -18t-45 18q-16 16 -25 49l-330 1215l-329 -1215q-9 -33 -25 -49q-18 -18 -45 -18t-45 18q-17 17 -25 49l-329 1321q-5 20 -5 35q0 12 3 20z" />
<glyph unicode="X" horiz-adv-x="1101" d="M92 44q0 17 18 50l373 654l-352 616q-17 31 -17 50q0 30 26 44q14 8 28 8q15 0 27 -8t18 -16.5t14 -22.5l324 -578l328 584q11 21 22 31t33 10q14 0 28 -8q26 -14 26 -44q0 -19 -17 -50l-354 -616l375 -654q18 -33 18 -50q0 -29 -27 -44q-14 -8 -28 -8q-15 0 -27 8 t-18 16.5t-14 22.5l-345 611l-345 -611q-26 -47 -60 -47q-13 0 -27 8q-27 15 -27 44z" />
<glyph unicode="Y" horiz-adv-x="1011" d="M79 1460q12 6 24 6q13 0 22 -5q19 -12 34 -43l347 -694l347 694q15 31 34 43q9 5 21 5q13 0 25 -6q26 -13 29 -37v-4q0 -16 -15 -48l-386 -772v-530q0 -38 -12 -57q-14 -20 -43 -20t-43 20q-12 19 -12 57v530l-386 772q-15 32 -15 48q0 26 29 41z" />
<glyph unicode="Z" horiz-adv-x="1114" d="M102 49q0 16 21 55l749 1256h-666q-37 0 -51 10q-20 15 -20 39t20 39q14 10 51 10h738q35 0 49 -14q15 -15 15 -35q0 -16 -21 -55l-749 -1256h699q37 0 51 -10q20 -15 20 -39t-20 -39q-14 -10 -51 -10h-771q-35 0 -49 14q-15 15 -15 35z" />
<glyph unicode="[" horiz-adv-x="600" d="M199 -88v1634q0 35 14 49q15 15 49 15h182q32 0 48 -11q18 -13 18 -36t-18 -37q-14 -10 -48 -10h-139v-1573h139q32 0 48 -11q18 -14 18 -36q0 -24 -18 -37q-16 -11 -48 -11h-182q-34 0 -49 15q-14 14 -14 49z" />
<glyph unicode="\" horiz-adv-x="692" d="M20 1585q12 33 49 33q38 0 55 -53l543 -1639q11 -35 5 -53q-12 -33 -48 -33q-39 0 -56 54l-542 1638q-12 37 -6 53z" />
<glyph unicode="]" horiz-adv-x="600" d="M90 -104q0 22 19 36q16 11 47 11h139v1573h-139q-33 0 -47 10q-19 14 -19 37q0 22 19 36q16 11 47 11h182q34 0 49 -15q14 -14 14 -49v-1634q0 -35 -14 -49q-15 -15 -49 -15h-182q-31 0 -47 11q-19 14 -19 37z" />
<glyph unicode="^" d="M181 862q0 15 15 45l238 471q12 25 19 36.5t18.5 26t24.5 20t30 5.5q32 0 50 -20.5t42 -67.5l239 -471q14 -28 14 -45q0 -20 -14 -33t-33 -13q-12 0 -22 6q-18 10 -33 41l-243 484l-242 -484q-15 -31 -33 -41q-10 -6 -23 -6q-19 0 -33 13t-14 33z" />
<glyph unicode="_" d="M55 -289q0 20 16 32q12 9 42 9h827q30 0 42 -9q15 -11 15 -32t-15 -32q-12 -9 -42 -9h-827q-30 0 -42 9q-16 12 -16 32z" />
<glyph unicode="`" horiz-adv-x="1024" d="M356 1465q0 27 26 44q14 9 28 9q15 0 29 -11t26 -31l110 -178q19 -30 19 -46q0 -27 -26 -44q-12 -8 -27 -8q-17 0 -30 10q-11 8 -26 32l-110 177q-19 30 -19 46z" />
<glyph unicode="a" horiz-adv-x="1073" d="M113 272q0 133 92 209t249 76h324v94q0 128 -63.5 192t-204.5 64q-86 0 -139.5 -23t-109.5 -79q-27 -27 -54 -27q-20 0 -33 13q-14 14 -14 34q0 44 94 108q98 66 256 66q185 0 280 -82.5t95 -240.5v-613q0 -33 -12 -51q-13 -20 -42 -20q-28 0 -41 20q-12 18 -12 51v35 q-62 -62 -129.5 -86t-171.5 -24q-111 0 -178 20.5t-114 69.5q-72 75 -72 194zM219 272q0 -97 63.5 -144.5t194.5 -47.5q81 0 139.5 15t106.5 61q55 52 55 188v126h-317q-120 0 -181 -50.5t-61 -147.5z" />
<glyph unicode="b" horiz-adv-x="1110" d="M199 63v1332q0 35 11 51q13 20 42 20t42 -20q11 -16 11 -51v-535q60 80 130 109.5t163 29.5q75 0 139 -23.5t103 -62.5q129 -129 129 -419q0 -291 -129 -420q-39 -39 -103 -62.5t-139 -23.5q-93 0 -163 29.5t-130 109.5v-64q0 -35 -11 -51q-13 -20 -42 -20t-42 20 q-11 16 -11 51zM305 494q0 -69 5.5 -122.5t23 -110t47.5 -94t81.5 -61.5t121.5 -24t121.5 24t81 61t47 94t23 110.5t5.5 122.5t-5.5 122.5t-23 110t-47 93.5t-81 61t-121.5 24t-121.5 -24t-81.5 -61t-47.5 -93.5t-23 -110.5t-5.5 -122z" />
<glyph unicode="c" horiz-adv-x="1006" d="M141 494q0 236 115 370.5t318 134.5q151 0 259 -93q30 -26 41 -41.5t11 -34.5q0 -18 -17 -33q-15 -13 -32 -13q-13 0 -26 8t-39 31q-52 45 -96.5 63.5t-100.5 18.5q-170 0 -259 -129q-37 -54 -52 -118t-15 -164t15 -164.5t52 -118.5q89 -129 259 -129q56 0 100.5 18.5 t96.5 63.5q26 23 39 31t26 8q17 0 32 -13q17 -15 17 -33q0 -19 -11 -34.5t-41 -41.5q-108 -93 -259 -93q-203 0 -318 135t-115 371z" />
<glyph unicode="d" horiz-adv-x="1110" d="M141 494q0 290 129 419q39 39 103 62.5t139 23.5q93 0 163 -29.5t130 -109.5v535q0 35 11 51q13 20 42 20t42 -20q11 -16 11 -51v-1332q0 -35 -11 -51q-13 -20 -42 -20t-42 20q-11 16 -11 51v64q-60 -80 -130 -109.5t-163 -29.5q-75 0 -139 23.5t-103 62.5 q-129 129 -129 420zM248 494q0 -69 5.5 -122.5t23 -110.5t47 -94t81 -61t121.5 -24t121.5 24t81.5 61.5t47.5 94t23 110t5.5 122.5q0 68 -5.5 122t-23 110.5t-47.5 93.5t-81.5 61t-121.5 24t-121.5 -24t-81 -61t-47 -93.5t-23 -110t-5.5 -122.5z" />
<glyph unicode="e" horiz-adv-x="1071" d="M141 494q0 242 105.5 373.5t292.5 131.5q183 0 289 -125t106 -339q0 -36 -14 -50t-50 -14h-622q0 -188 82.5 -288.5t238.5 -100.5q139 0 228 78q24 21 35 28t24 7q18 0 32.5 -15t14.5 -33q0 -49 -104 -106q-91 -53 -236 -53q-205 0 -313.5 129.5t-108.5 376.5zM248 559 h581q-5 111 -34 181q-31 76 -99.5 120.5t-156.5 44.5t-156.5 -44.5t-99.5 -120.5q-30 -72 -35 -181z" />
<glyph unicode="f" horiz-adv-x="622" d="M84 944q0 22 16 34q13 9 44 9h83v213q0 116 62 187t176 71h31q37 0 51 -10q18 -14 18 -37t-18 -37q-14 -10 -47 -10h-17q-75 0 -112 -43t-37 -121v-213h171q31 0 44 -9q16 -12 16 -34t-16 -34q-13 -9 -44 -9h-171v-838q0 -35 -11 -51q-13 -20 -42 -20t-42 20 q-12 18 -12 51v838h-83q-31 0 -44 9q-16 12 -16 34z" />
<glyph unicode="g" horiz-adv-x="1110" d="M141 494q0 290 129 419q39 39 103 62.5t139 23.5q93 0 163 -29.5t130 -109.5v64q0 34 11 51q13 20 42 20t42 -20q11 -17 11 -51v-979q0 -190 -108.5 -309t-296.5 -119q-126 0 -209 45q-107 57 -107 102q0 23 15.5 37t32.5 14q7 0 13 -1.5t12.5 -6.5t11 -8.5t14 -12 t14.5 -12.5q74 -65 203 -65q149 0 224 94t75 248v176q-60 -80 -130 -109.5t-163 -29.5q-75 0 -139 23.5t-103 62.5q-129 129 -129 420zM248 494q0 -69 5.5 -122.5t23 -110.5t47 -94t81 -61t121.5 -24t121.5 24t81.5 61.5t47.5 94t23 110t5.5 122.5q0 68 -5.5 122t-23 110.5 t-47.5 93.5t-81.5 61t-121.5 24t-121.5 -24t-81 -61t-47 -93.5t-23 -110t-5.5 -122.5z" />
<glyph unicode="h" horiz-adv-x="1148" d="M199 63v1332q0 35 11 51q13 20 42 20t42 -20q11 -16 11 -51v-525q111 129 291 129q167 0 264 -94q103 -97 103 -274v-568q0 -33 -12 -51q-13 -20 -42 -20t-42 20q-11 16 -11 51v547q0 143 -69.5 219t-202.5 76t-206 -77t-73 -218v-547q0 -35 -11 -51q-13 -20 -42 -20 t-42 20q-11 16 -11 51z" />
<glyph unicode="i" horiz-adv-x="503" d="M176 1395q0 31 22 53t54 22t54 -22t22 -53t-22 -53.5t-54 -22.5t-54 22.5t-22 53.5zM199 63v861q0 34 11 51q13 20 42 20t42 -20q11 -17 11 -51v-861q0 -35 -11 -51q-13 -20 -42 -20t-42 20q-11 16 -11 51z" />
<glyph unicode="j" horiz-adv-x="503" d="M-33 -424q0 23 19 37q14 10 47 10h16q75 0 112.5 43t37.5 121v1137q0 34 11 51q13 20 42 20t42 -20q11 -17 11 -51v-1137q0 -116 -61.5 -187t-175.5 -71h-31q-37 0 -51 10q-19 14 -19 37zM176 1395q0 31 22 53t54 22t54 -22t22 -53t-22 -53.5t-54 -22.5t-54 22.5 t-22 53.5z" />
<glyph unicode="k" horiz-adv-x="1043" d="M199 63v1332q0 35 11 51q13 20 42 20t42 -20q11 -16 11 -51v-964l471 536q28 32 53 32q17 0 30 -11q17 -15 17 -34q0 -23 -26 -52l-249 -282l338 -530q18 -28 18 -46q0 -28 -25 -44q-12 -8 -28 -8q-29 0 -55 42l-322 508l-222 -252v-227q0 -35 -11 -51q-13 -20 -42 -20 t-42 20q-11 16 -11 51z" />
<glyph unicode="l" horiz-adv-x="587" d="M195 258v1137q0 35 11 51q13 20 42 20t42 -20q11 -16 11 -51v-1137q0 -78 37.5 -121t112.5 -43h16q33 0 47 -10q18 -14 18 -37t-18 -37q-14 -10 -51 -10h-31q-114 0 -175.5 71t-61.5 187z" />
<glyph unicode="m" horiz-adv-x="1804" d="M199 63v861q0 34 11 51q13 20 42 20t42 -20q11 -17 11 -51v-54q111 129 292 129q109 0 191 -46.5t126 -133.5q114 180 336 180q166 0 263 -94q105 -100 105 -274v-568q0 -35 -11 -51q-13 -20 -42 -20t-42 20q-12 18 -12 51v547q0 143 -70.5 219t-202.5 76 q-127 0 -201.5 -75t-74.5 -201v-566q0 -33 -12 -51q-13 -20 -42 -20t-42 20q-11 16 -11 51v547q0 143 -70 219t-202 76t-205 -77.5t-73 -217.5v-547q0 -35 -11 -51q-13 -20 -42 -20t-42 20q-11 16 -11 51z" />
<glyph unicode="n" horiz-adv-x="1148" d="M199 63v861q0 34 11 51q13 20 42 20t42 -20q11 -17 11 -51v-54q111 129 291 129q167 0 264 -94q103 -97 103 -274v-568q0 -33 -12 -51q-13 -20 -42 -20t-42 20q-11 16 -11 51v547q0 143 -69.5 219t-202.5 76t-206 -77t-73 -218v-547q0 -35 -11 -51q-13 -20 -42 -20 t-42 20q-11 16 -11 51z" />
<glyph unicode="o" horiz-adv-x="1081" d="M141 494q0 126 25.5 224.5t99.5 172.5q108 108 275 108q166 0 274 -108q74 -74 99.5 -172.5t25.5 -224.5q0 -127 -25.5 -225.5t-99.5 -172.5q-108 -108 -274 -108q-167 0 -275 108q-74 74 -99.5 172.5t-25.5 225.5zM248 494q0 -239 90 -329q83 -83 203 -83q119 0 202 83 q91 91 91 329q0 237 -91 328q-83 83 -202 83q-120 0 -203 -83q-90 -90 -90 -328z" />
<glyph unicode="p" horiz-adv-x="1110" d="M199 -408v1332q0 34 11 51q13 20 42 20t42 -20q11 -17 11 -51v-64q60 80 130 109.5t163 29.5q75 0 139 -23.5t103 -62.5q129 -129 129 -419q0 -291 -129 -420q-39 -39 -103 -62.5t-139 -23.5q-93 0 -163 29.5t-130 109.5v-535q0 -34 -11 -51q-13 -20 -42 -20t-42 20 q-11 17 -11 51zM305 494q0 -69 5.5 -122.5t23 -110t47.5 -94t81.5 -61.5t121.5 -24t121.5 24t81 61t47 94t23 110.5t5.5 122.5t-5.5 122.5t-23 110t-47 93.5t-81 61t-121.5 24t-121.5 -24t-81.5 -61t-47.5 -93.5t-23 -110.5t-5.5 -122z" />
<glyph unicode="q" horiz-adv-x="1110" d="M141 494q0 290 129 419q39 39 103 62.5t139 23.5q93 0 163 -29.5t130 -109.5v64q0 34 11 51q13 20 42 20t42 -20q11 -17 11 -51v-1332q0 -34 -11 -51q-13 -20 -42 -20t-42 20q-11 17 -11 51v535q-60 -80 -130 -109.5t-163 -29.5q-75 0 -139 23.5t-103 62.5 q-129 129 -129 420zM248 494q0 -69 5.5 -122.5t23 -110.5t47 -94t81 -61t121.5 -24t121.5 24t81.5 61.5t47.5 94t23 110t5.5 122.5q0 68 -5.5 122t-23 110.5t-47.5 93.5t-81.5 61t-121.5 24t-121.5 -24t-81 -61t-47 -93.5t-23 -110t-5.5 -122.5z" />
<glyph unicode="r" horiz-adv-x="837" d="M199 63v861q0 34 11 51q13 20 42 20t42 -20q11 -17 11 -51v-68q42 67 120 105t167 38q103 0 180 -47q51 -30 51 -63q0 -21 -14 -35q-16 -16 -37 -16q-18 0 -63 28q-62 39 -136 39q-126 0 -197 -86t-71 -213v-543q0 -35 -11 -51q-13 -20 -42 -20t-42 20q-11 16 -11 51z " />
<glyph unicode="s" horiz-adv-x="1011" d="M113 141q0 21 16 37q12 12 33 12q22 0 59 -28q108 -80 277 -80q297 0 297 199q0 76 -46.5 116t-142.5 48l-164 15q-297 25 -297 259q0 127 97 203.5t258 76.5q160 0 284 -67q27 -14 37 -31q6 -10 6 -24q0 -12 -10 -25q-15 -18 -37 -18q-16 0 -49 18q-101 55 -231 55 q-122 0 -187 -48.5t-65 -139.5q0 -76 48.5 -116t152.5 -49l159 -14q67 -6 115.5 -20t89.5 -42t62.5 -77.5t21.5 -119.5q0 -135 -106.5 -214t-288.5 -79q-207 0 -346 96q-43 28 -43 57z" />
<glyph unicode="t" horiz-adv-x="665" d="M78 944q0 22 16 34q13 9 44 9h83v252q0 35 11 51q14 21 42 21t42 -21q12 -18 12 -51v-252h171q31 0 44 -9q16 -12 16 -34t-16 -34q-13 -9 -44 -9h-171v-643q0 -78 37 -121t112 -43h17q33 0 47 -10q18 -14 18 -37t-18 -37q-14 -10 -52 -10h-30q-114 0 -176 71t-62 187v643 h-83q-31 0 -44 9q-16 12 -16 34z" />
<glyph unicode="u" horiz-adv-x="1148" d="M186 356v568q0 33 12 51q13 20 42 20t42 -20q11 -17 11 -51v-547q0 -143 69.5 -219t202.5 -76t206 77t73 218v547q0 34 11 51q13 20 42 20t42 -20q11 -17 11 -51v-861q0 -35 -11 -51q-13 -20 -42 -20t-42 20q-11 16 -11 51v54q-111 -129 -291 -129q-167 0 -264 94 q-103 97 -103 274z" />
<glyph unicode="v" horiz-adv-x="880" d="M67 963q12 32 48 32q38 0 55 -53l270 -812l271 812q17 53 55 53q36 0 48 -32q2 -6 2 -15q0 -16 -7 -39l-294 -846q-13 -42 -35 -58q-16 -13 -40 -13t-40 13q-20 15 -34 58l-294 846q-7 23 -7 39q0 9 2 15z" />
<glyph unicode="w" horiz-adv-x="1458" d="M82 964q5 13 18.5 22t30.5 9q21 0 35 -14q10 -10 19 -42l233 -809l226 768q18 64 41 82q18 15 44 15t44 -15q23 -18 41 -82l226 -768l233 809q9 32 19 42q14 14 35 14q17 0 30.5 -9t18.5 -22q3 -7 3 -18q0 -15 -6 -36l-248 -821q-18 -64 -41 -82q-18 -15 -44 -15t-44 15 q-23 18 -41 82l-226 753l-226 -753q-18 -64 -41 -82q-18 -15 -44 -15t-44 15q-23 18 -41 82l-248 821q-6 21 -6 36q0 11 3 18z" />
<glyph unicode="x" horiz-adv-x="884" d="M98 44q0 16 19 46l255 404l-254 403q-19 30 -19 46q0 27 26 44q12 8 28 8q30 0 55 -42l234 -386l235 386q25 42 55 42q16 0 28 -8q25 -16 25 -44q0 -17 -18 -46l-254 -403l255 -404q18 -28 18 -46q0 -28 -25 -44q-12 -8 -28 -8q-30 0 -55 42l-236 385l-235 -385 q-25 -42 -55 -42q-16 0 -28 8q-26 17 -26 44z" />
<glyph unicode="y" horiz-adv-x="880" d="M67 963q12 32 48 32q38 0 55 -53l270 -812l271 812q17 53 55 53q36 0 48 -32q2 -6 2 -15q0 -16 -7 -39l-409 -1177q-26 -77 -67 -116q-67 -62 -174 -62q-34 0 -49 10q-19 13 -19 37t19 37q13 10 43 10q63 0 101 29.5t63 103.5l73 219l-318 909q-7 23 -7 39q0 9 2 15z" />
<glyph unicode="z" horiz-adv-x="919" d="M102 51q0 23 22 53l560 789h-489q-34 0 -48 10q-18 13 -18 37q0 23 18 37q14 10 48 10h546q40 0 54 -12q18 -15 18 -39t-21 -53l-561 -789h521q33 0 47 -10q18 -14 18 -37t-18 -37q-14 -10 -47 -10h-578q-39 0 -53 12q-19 16 -19 39z" />
<glyph unicode="{" horiz-adv-x="647" d="M98 729q0 20 13 33q12 12 41 14q41 3 75 37q37 37 37 123v424q0 82 11.5 123t41.5 71q54 54 164 54h4q32 0 50 -9q20 -10 20 -36q0 -25 -18 -37q-14 -10 -52 -10q-37 0 -54.5 -5.5t-31.5 -19.5q-16 -16 -22 -45.5t-6 -87.5v-424q0 -78 -29.5 -125t-95.5 -80 q66 -33 95.5 -80t29.5 -125v-422q0 -58 6 -87.5t22 -45.5q14 -14 31.5 -19t54.5 -5q36 0 52 -11q18 -12 18 -36q0 -27 -20 -37q-16 -8 -50 -8h-4q-111 0 -164 53q-30 30 -41.5 71t-11.5 123v422q0 86 -37 123q-34 34 -75 37q-29 2 -41 14q-13 13 -13 33z" />
<glyph unicode="|" horiz-adv-x="649" d="M272 -88v1634q0 33 12 51q14 21 42 21t42 -21q11 -17 11 -51v-1634q0 -34 -11 -51q-14 -21 -42 -21t-42 21q-12 18 -12 51z" />
<glyph unicode="}" horiz-adv-x="647" d="M92 -102q0 23 19 36q16 11 51 11q37 0 54.5 5t31.5 19q16 16 22 45.5t6 87.5v422q0 78 29.5 125t95.5 80q-66 33 -95.5 80t-29.5 125v424q0 58 -6 87.5t-22 45.5q-14 14 -31.5 19.5t-54.5 5.5t-51 10q-19 13 -19 37q0 25 21 36q18 9 49 9h4q110 0 164 -54 q30 -30 41.5 -71t11.5 -123v-424q0 -86 37 -123q34 -34 76 -37q29 -2 41 -14t12 -33t-12 -33t-41 -14q-42 -3 -76 -37q-37 -37 -37 -123v-422q0 -82 -11.5 -123t-41.5 -71q-53 -53 -164 -53h-4q-33 0 -49 8q-21 11 -21 37z" />
<glyph unicode="~" d="M117 504q0 25 30 55q52 52 98 71t101 19q14 0 28 -1.5t31 -6t27.5 -7.5t31.5 -11t28.5 -11t32 -13.5t30.5 -12.5q90 -39 127 -45q15 -2 29 -2q41 0 69.5 13t67.5 50q25 25 47 25q16 0 29 -13q12 -12 12 -28q0 -25 -31 -56q-52 -52 -97.5 -71t-100.5 -19q-16 0 -35 3 t-32 6t-36 11.5t-33 12.5t-38 16l-35 15q-90 39 -127 45q-15 2 -29 2q-40 0 -69 -13t-68 -51q-24 -24 -47 -24q-17 0 -29 12t-12 29z" />
<glyph unicode="&#xa1;" horiz-adv-x="622" d="M201 911q0 34 24 58t58 24t58 -24t24 -58t-24 -58t-58 -24t-58 24t-24 58zM227 -402v927q0 37 13 57q14 20 43 20t43 -20q12 -19 12 -57v-927q0 -38 -12 -57q-14 -20 -43 -20t-43 20q-13 20 -13 57z" />
<glyph unicode="&#xa2;" horiz-adv-x="1006" d="M141 750q0 215 97 347t271 154v150q0 33 10 47q13 18 37 18t37 -18q10 -14 10 -47v-147q129 -7 230 -92q30 -26 41 -41.5t11 -34.5q0 -18 -17 -33q-15 -13 -32 -13q-13 0 -26 8t-39 31q-84 74 -168 81v-821q84 7 168 81q26 23 39 31t26 8q17 0 32 -13q17 -15 17 -33 q0 -19 -11 -34.5t-41 -41.5q-99 -85 -230 -92v-188q0 -33 -10 -47q-13 -18 -37 -18t-37 18q-10 14 -10 47v191q-174 22 -271 154t-97 348zM248 750q0 -100 15 -164.5t52 -118.5q70 -103 194 -124v812q-124 -21 -194 -123q-37 -54 -52 -118t-15 -164z" />
<glyph unicode="&#xa3;" horiz-adv-x="1099" d="M94 737q0 20 16 32q12 9 42 9h81v250q0 200 118.5 321t316.5 121q167 0 270 -84q35 -28 35 -55q0 -18 -12 -33q-14 -18 -37 -18q-21 0 -55 27q-83 65 -201 65q-156 0 -240 -95.5t-84 -270.5v-228h274q30 0 42 -9q16 -12 16 -32q0 -19 -16 -31q-13 -10 -42 -10h-274v-598 h584q36 0 49 -10q18 -15 18 -39t-18 -39q-13 -10 -49 -10h-629q-35 0 -50 15q-16 16 -16 51v630h-81q-29 0 -42 10q-16 12 -16 31z" />
<glyph unicode="&#xa4;" horiz-adv-x="1345" d="M182 109q3 17 29 43l112 111q-96 120 -96 280q0 159 96 279l-112 112q-26 26 -29 43q-3 24 14 41t42 14q18 -3 43 -28l111 -112q115 95 280 95q164 0 279 -95l112 112q25 25 43 28q25 3 42 -14q16 -16 13 -41q-3 -18 -28 -43l-112 -112q95 -118 95 -279q0 -162 -95 -280 l112 -111q25 -25 28 -43q3 -25 -13 -41q-18 -18 -42 -15q-17 3 -43 29l-112 112q-116 -96 -279 -96q-164 0 -280 96l-111 -112q-26 -26 -43 -29q-24 -3 -42 15q-17 17 -14 41zM326 543q0 -145 100.5 -245.5t245.5 -100.5t245.5 100.5t100.5 245.5t-100.5 245.5t-245.5 100.5 t-245.5 -100.5t-100.5 -245.5z" />
<glyph unicode="&#xa5;" horiz-adv-x="1011" d="M50 1423q3 24 29 37q12 6 24 6q13 0 22 -5q19 -12 34 -43l347 -694l347 694q15 31 34 43q9 5 21 5q13 0 25 -6q26 -13 29 -37q2 -16 -15 -52l-291 -580h171q29 0 42 -10q16 -12 16 -31q0 -20 -16 -32q-12 -9 -42 -9h-212l-54 -110v-103h266q29 0 42 -10q16 -12 16 -31 q0 -20 -16 -32q-12 -9 -42 -9h-266v-345q0 -38 -12 -57q-14 -20 -43 -20t-43 20q-12 19 -12 57v345h-269q-30 0 -42 9q-15 11 -15 32q0 20 15 31q13 10 42 10h269v103l-56 110h-213q-30 0 -42 9q-15 11 -15 32q0 20 15 31q13 10 42 10h172l-289 580q-17 36 -15 52z" />
<glyph unicode="&#xa6;" horiz-adv-x="671" d="M272 -88v590q0 33 12 51q13 20 42 20t42 -20q11 -17 11 -51v-590q0 -34 -11 -51q-14 -21 -42 -21t-42 21q-12 18 -12 51zM272 956v590q0 33 12 51q14 21 42 21t42 -21q11 -17 11 -51v-590q0 -35 -11 -51q-13 -20 -42 -20t-42 20q-12 18 -12 51z" />
<glyph unicode="&#xa7;" horiz-adv-x="1159" d="M199 506q0 123 63.5 213t161.5 135q-100 43 -151.5 112t-51.5 177q0 149 103 238t256 89q118 0 202.5 -42.5t124.5 -120.5q33 -66 33 -119q0 -28 -14 -45t-39 -17q-26 0 -41 21q-10 14 -15 45q-15 96 -76.5 139t-174.5 43q-117 0 -183.5 -58.5t-66.5 -172.5 q0 -166 186 -219l170 -47q129 -36 202 -136.5t73 -234.5q0 -123 -64 -213t-162 -135q97 -33 154 -112.5t57 -186.5q0 -150 -102.5 -246t-263.5 -96q-122 0 -210.5 44.5t-128.5 123.5q-32 64 -32 117q0 32 16 48q15 15 37 15q21 0 36 -15q13 -13 19 -51q28 -184 263 -184 q119 0 187.5 63.5t68.5 180.5q0 81 -52.5 142.5t-140.5 86.5l-170 47q-129 35 -201.5 136t-72.5 235zM309 506q0 -67 16 -115.5t56 -91.5q78 -84 199 -84q120 0 198 84q40 43 56 91.5t16 115.5t-16 115.5t-56 91.5q-78 84 -198 84q-121 0 -199 -84q-40 -43 -56 -91.5 t-16 -115.5z" />
<glyph unicode="&#xa8;" horiz-adv-x="1024" d="M252 1305q0 31 22 53t54 22t53.5 -22t21.5 -53q0 -32 -22 -54t-53 -22q-32 0 -54 22.5t-22 53.5zM678 1305q0 31 22 53t54 22t53.5 -22t21.5 -53q0 -32 -22 -54t-53 -22q-32 0 -54 22.5t-22 53.5z" />
<glyph unicode="&#xa9;" horiz-adv-x="1830" d="M174 729q0 151 58.5 288.5t157.5 236.5t236.5 157.5t288.5 58.5q202 0 372.5 -99t270 -269.5t99.5 -372.5t-99.5 -372.5t-270 -269.5t-372.5 -99q-151 0 -288.5 58.5t-236.5 157.5t-157.5 236.5t-58.5 288.5zM260 729q0 -177 88 -329.5t239.5 -243t327.5 -90.5 q132 0 253.5 53.5t209.5 143t140.5 212t52.5 254.5q0 177 -88.5 330t-240 243.5t-327.5 90.5q-132 0 -253.5 -53.5t-209 -143.5t-140 -212.5t-52.5 -254.5zM611 729q0 162 80 264.5t238 102.5q114 0 189 -66q37 -34 37 -56q0 -15 -9 -24q-11 -11 -26 -11q-16 0 -51 29 q-37 32 -68 43.5t-72 11.5q-66 0 -113.5 -23.5t-73.5 -65.5t-37.5 -92.5t-11.5 -112.5t11.5 -112.5t37.5 -92.5t73.5 -65.5t113.5 -23.5q41 0 72 11.5t68 43.5q35 29 51 29q15 0 26 -11q9 -9 9 -24q0 -22 -37 -56q-75 -66 -189 -66q-158 0 -238 102.5t-80 264.5z" />
<glyph unicode="&#xaa;" horiz-adv-x="917" d="M119 885q0 107 73 167t201 60h248v86q0 95 -50.5 140.5t-164.5 45.5q-67 0 -112 -22t-87 -71q-15 -18 -38 -18q-16 0 -27 11t-11 31q0 38 75 94q73 55 200 55q152 0 228.5 -66.5t76.5 -191.5v-482q0 -32 -9 -44q-14 -18 -36 -18t-36 18q-9 12 -9 44v21 q-50 -49 -101 -67.5t-132 -18.5q-87 0 -140 16.5t-91 55.5q-58 58 -58 154zM209 887q0 -76 48 -112t151 -36q69 0 114 13.5t79 47.5q40 40 40 144v96h-238q-194 0 -194 -153z" />
<glyph unicode="&#xab;" horiz-adv-x="1123" d="M85 509l352 352q26 26 43 29q25 3 42 -14t14 -41q-3 -17 -29 -43l-283 -283l283 -283q26 -26 29 -43q3 -24 -14 -41t-42 -14q-17 3 -43 29zM512 509l352 352q26 26 43 29q25 3 42 -14t14 -41q-3 -17 -29 -43l-283 -283l283 -283q26 -26 29 -43q3 -24 -14 -41t-42 -14 q-17 3 -43 29z" />
<glyph unicode="&#xac;" d="M100 539q0 22 19 36q16 11 47 11h713q34 0 49 -15q14 -14 14 -49v-246q0 -33 -10 -47q-14 -18 -37 -18t-37 18q-10 14 -10 47v216h-682q-33 0 -47 10q-19 14 -19 37z" />
<glyph unicode="&#xad;" horiz-adv-x="872" d="M160 541q0 23 18 37q14 10 47 10h422q33 0 47 -10q19 -14 19 -37t-19 -37q-14 -10 -47 -10h-422q-33 0 -47 10q-18 14 -18 37z" />
<glyph unicode="&#xae;" horiz-adv-x="1830" d="M174 729q0 151 58.5 288.5t157.5 236.5t236.5 157.5t288.5 58.5q202 0 372.5 -99t270 -269.5t99.5 -372.5t-99.5 -372.5t-270 -269.5t-372.5 -99q-151 0 -288.5 58.5t-236.5 157.5t-157.5 236.5t-58.5 288.5zM260 729q0 -177 88 -329.5t239.5 -243t327.5 -90.5 q132 0 253.5 53.5t209.5 143t140.5 212t52.5 254.5q0 177 -88.5 330t-240 243.5t-327.5 90.5q-132 0 -253.5 -53.5t-209 -143.5t-140 -212.5t-52.5 -254.5zM714 423v614q0 28 11 40q13 12 40 12h178q91 0 156 -58.5t65 -151.5q0 -79 -43.5 -129.5t-118.5 -70.5l140 -237 q14 -23 14 -40q0 -19 -19 -30q-11 -6 -22 -6q-24 0 -43 35l-159 271h-117v-249q0 -29 -10 -42q-11 -15 -31 -15q-21 0 -32 15q-9 12 -9 42zM796 744h137q66 0 107.5 36.5t41.5 98.5t-41.5 98.5t-107.5 36.5h-137v-270z" />
<glyph unicode="&#xaf;" horiz-adv-x="1024" d="M241 1296q0 24 18 37q14 10 47 10h469q33 0 47 -10q19 -14 19 -37q0 -22 -19 -36q-16 -11 -47 -11h-469q-31 0 -47 11q-18 14 -18 36z" />
<glyph unicode="&#xb0;" horiz-adv-x="937" d="M147 1151q0 133 94.5 227.5t227.5 94.5t227.5 -94.5t94.5 -227.5t-94.5 -227.5t-227.5 -94.5t-227.5 94.5t-94.5 227.5zM240 1151q0 -101 65.5 -168.5t163.5 -67.5t163.5 67.5t65.5 168.5t-65.5 168t-163.5 67t-163.5 -67t-65.5 -168z" />
<glyph unicode="&#xb1;" d="M100 47q0 23 19 37q14 10 47 10h721q33 0 47 -10q18 -14 18 -37t-18 -37q-14 -10 -47 -10h-721q-33 0 -47 10q-19 14 -19 37zM100 602q0 23 19 37q14 10 47 10h313v314q0 33 10 47q13 18 37 18t37 -18q10 -14 10 -47v-314h314q33 0 47 -10q18 -13 18 -37t-18 -37 q-14 -10 -47 -10h-314v-313q0 -33 -10 -47q-14 -19 -37 -19t-37 19q-10 14 -10 47v313h-313q-33 0 -47 10q-19 14 -19 37z" />
<glyph unicode="&#xb2;" horiz-adv-x="641" d="M82 625q0 13 26 50l323 431q46 61 46 124q0 71 -39.5 112.5t-110.5 41.5q-53 0 -94 -28t-51 -83q-8 -35 -14 -45q-13 -18 -35 -18t-34 17q-8 9 -8 29q0 40 27 96q27 54 81.5 84t127.5 30q108 0 174 -64.5t66 -171.5q0 -89 -63 -171l-300 -393h320q29 0 42 -10 q16 -12 16 -31q0 -20 -16 -32q-12 -9 -42 -9h-376q-42 0 -56 14q-10 12 -10 27z" />
<glyph unicode="&#xb3;" horiz-adv-x="641" d="M72 776q0 32 13 45t29 13q17 0 30 -13t16 -39q8 -61 52 -93t110 -32q71 0 118 46t47 122q0 79 -43 122.5t-129 43.5q-20 0 -30 10q-13 13 -13 30t13 30q10 10 30 10q75 0 115.5 41.5t40.5 114.5t-44.5 115t-107.5 42q-107 0 -139 -79q-6 -15 -12 -52q-6 -36 -43 -36 q-43 0 -43 53q0 46 30 94q35 54 83.5 78t123.5 24q109 0 175.5 -64.5t66.5 -172.5q0 -141 -117 -193q134 -50 134 -211q0 -118 -72.5 -184t-183.5 -66q-72 0 -129 27t-88 70q-33 47 -33 104z" />
<glyph unicode="&#xb4;" horiz-adv-x="1024" d="M487 1257q0 17 19 47l110 177q12 20 26 31t30 11q14 0 27 -9q26 -17 26 -44q0 -18 -18 -46l-111 -177q-15 -24 -26 -32q-13 -10 -29 -10t-28 8q-26 17 -26 44z" />
<glyph unicode="&#xb5;" horiz-adv-x="1161" d="M199 -408v1332q0 34 11 51q13 20 42 20t42 -20q11 -17 11 -51v-547q0 -143 70 -219t203 -76t205.5 77t72.5 218v547q0 34 11 51q13 20 42 20t42 -20q12 -18 12 -51v-861q0 -33 -12 -51q-13 -20 -42 -20t-42 20q-11 16 -11 51v54q-111 -129 -291 -129q-164 0 -260 90v-486 q0 -34 -12 -53q-12 -18 -41 -18q-26 0 -41 18q-12 15 -12 53z" />
<glyph unicode="&#xb6;" horiz-adv-x="1185" d="M92 1069q0 76 28.5 145.5t81.5 124t136.5 87t185.5 32.5h375q35 0 49 -14q15 -15 15 -49v-1803q0 -33 -12 -51q-13 -20 -42 -20t-42 20q-11 17 -11 51v1768h-250v-1768q0 -34 -11 -51q-13 -20 -42 -20t-42 20q-11 17 -11 51v1088q-94 0 -173 33.5t-129 89t-78 124.5 t-28 142z" />
<glyph unicode="&#xb7;" horiz-adv-x="612" d="M212 541q0 39 27.5 66.5t66.5 27.5t66.5 -27.5t27.5 -66.5t-27.5 -67t-66.5 -28t-66.5 28t-27.5 67z" />
<glyph unicode="&#xb8;" horiz-adv-x="1081" d="M345 -400q0 16 19 46l110 177q13 22 26 32t29 10t28 -8q26 -17 26 -44q0 -16 -19 -46l-110 -178q-14 -22 -26 -31q-14 -11 -30 -11q-14 0 -27 9q-26 17 -26 44z" />
<glyph unicode="&#xb9;" horiz-adv-x="641" d="M132 1268q2 14 24 36l131 131q31 31 63 31q26 0 38 -14q13 -16 13 -46v-768q0 -32 -9 -44q-14 -19 -36 -19q-21 0 -35 19q-10 13 -10 44v703l-97 -96q-20 -20 -36 -23q-19 -3 -34 12t-12 34z" />
<glyph unicode="&#xba;" horiz-adv-x="929" d="M147 1063q0 216 99 315q86 86 219 86t219 -86q57 -57 77.5 -135.5t20.5 -179.5t-20.5 -179.5t-77.5 -135.5q-86 -86 -219 -86t-219 86q-99 99 -99 315zM238 1063q0 -56 3 -93.5t19 -85.5t45 -77q66 -66 160 -66t160 66q42 42 54.5 105.5t12.5 150.5q0 56 -3 93.5 t-19 85.5t-45 77q-65 65 -160 65t-160 -65q-42 -42 -54.5 -105.5t-12.5 -150.5z" />
<glyph unicode="&#xbb;" horiz-adv-x="1123" d="M161 184q3 18 28 43l283 283l-283 283q-25 25 -28 43q-3 25 13 41q17 17 42 14q17 -3 43 -29l352 -352l-352 -352q-26 -26 -43 -29q-25 -3 -42 14q-16 16 -13 41zM588 184q3 18 28 43l283 283l-283 283q-25 25 -28 43q-3 25 13 41q17 17 42 14q17 -3 43 -29l352 -352 l-352 -352q-26 -26 -43 -29q-25 -3 -42 14q-16 16 -13 41z" />
<glyph unicode="&#xbc;" horiz-adv-x="1644" d="M132 1268q2 14 24 36l131 131q31 31 63 31q26 0 38 -14q13 -16 13 -46v-768q0 -32 -9 -44q-14 -19 -36 -19q-21 0 -35 19q-10 13 -10 44v703l-97 -96q-20 -20 -36 -23q-19 -3 -34 12t-12 34zM435 25q-3 17 10 42l681 1361q13 27 27 34q7 4 16 4q10 0 20 -5q18 -10 21 -27 t-10 -42l-681 -1362q-13 -27 -26 -34q-7 -4 -17 -4q-9 0 -19 5q-19 11 -22 28zM1042 178q0 10 12 36l313 629q19 40 46 40q15 0 28.5 -11t13.5 -27t-12 -40l-293 -586h254v197q0 30 9 42q11 15 32 15t32 -15q9 -12 9 -42v-197h61q30 0 42 -9q16 -12 16 -32t-16 -32 q-12 -9 -42 -9h-61v-88q0 -30 -9 -42q-11 -15 -32 -15t-32 15q-9 12 -9 42v88h-307q-23 0 -36 7q-19 12 -19 34z" />
<glyph unicode="&#xbd;" horiz-adv-x="1644" d="M132 1268q2 14 24 36l131 131q31 31 63 31q26 0 38 -14q13 -16 13 -46v-768q0 -32 -9 -44q-14 -19 -36 -19q-21 0 -35 19q-10 13 -10 44v703l-97 -96q-20 -20 -36 -23q-19 -3 -34 12t-12 34zM435 25q-3 17 10 42l681 1361q13 27 27 34q7 4 16 4q10 0 20 -5q18 -10 21 -27 t-10 -42l-681 -1362q-13 -27 -26 -34q-7 -4 -17 -4q-9 0 -19 5q-19 11 -22 28zM1091 41q0 15 25 50l324 431q46 61 46 124q0 71 -40 113t-111 42q-53 0 -93.5 -28.5t-50.5 -83.5q-8 -35 -14 -45q-12 -17 -35 -17t-34 16q-8 9 -8 30q0 41 26 95q27 54 81.5 84.5t127.5 30.5 q108 0 174.5 -65t66.5 -172q0 -88 -64 -171l-300 -393h321q30 0 42 -9q15 -11 15 -32t-15 -32q-12 -9 -42 -9h-376q-42 0 -56 14q-10 12 -10 27z" />
<glyph unicode="&#xbe;" horiz-adv-x="1644" d="M72 776q0 32 13 45t29 13q17 0 30 -13t16 -39q8 -61 52 -93t110 -32q71 0 118 46t47 122q0 79 -43 122.5t-129 43.5q-20 0 -30 10q-13 13 -13 30t13 30q10 10 30 10q75 0 115.5 41.5t40.5 114.5t-44.5 115t-107.5 42q-107 0 -139 -79q-6 -15 -12 -52q-6 -36 -43 -36 q-43 0 -43 53q0 46 30 94q35 54 83.5 78t123.5 24q109 0 175.5 -64.5t66.5 -172.5q0 -141 -117 -193q134 -50 134 -211q0 -118 -72.5 -184t-183.5 -66q-72 0 -129 27t-88 70q-33 47 -33 104zM435 25q-3 17 10 42l681 1361q13 27 27 34q7 4 16 4q10 0 20 -5q18 -10 21 -27 t-10 -42l-681 -1362q-13 -27 -26 -34q-7 -4 -17 -4q-9 0 -19 5q-19 11 -22 28zM1042 178q0 10 12 36l313 629q19 40 46 40q15 0 28.5 -11t13.5 -27t-12 -40l-293 -586h254v197q0 30 9 42q11 15 32 15t32 -15q9 -12 9 -42v-197h61q30 0 42 -9q16 -12 16 -32t-16 -32 q-12 -9 -42 -9h-61v-88q0 -30 -9 -42q-11 -15 -32 -15t-32 15q-9 12 -9 42v88h-307q-23 0 -36 7q-19 12 -19 34z" />
<glyph unicode="&#xbf;" horiz-adv-x="999" d="M100 -123q0 65 22.5 121t67.5 123l172 254q39 56 39 157q0 34 12 52q13 20 42 20t42 -20q11 -17 11 -52q0 -74 -10.5 -115.5t-48.5 -97.5l-173 -253q-36 -53 -52.5 -94t-16.5 -95q0 -114 75 -191t187 -77q114 0 184 69q63 61 77 164q4 34 13 49q14 21 45 21q25 0 37 -18 q11 -16 11 -39q0 -61 -28 -124.5t-72 -109.5q-102 -104 -267 -104q-157 0 -263 103t-106 257zM373 911q0 34 24 58t58 24t58 -24t24 -58t-24 -58t-58 -24t-58 24t-24 58z" />
<glyph unicode="&#xc0;" horiz-adv-x="1232" d="M62 87l490 1311q12 33 21 46q15 22 43 22t43 -22q11 -16 22 -46l489 -1311q21 -54 -4 -79q-16 -16 -42 -16q-13 0 -26 8q-17 12 -31 48l-116 306h-669l-116 -306q-14 -36 -31 -48q-13 -8 -26 -8q-26 0 -42 16q-25 25 -5 79zM316 453h600l-300 826zM432 1854q0 27 26 44 q14 9 27 9q16 0 30 -11t26 -31l110 -177q19 -30 19 -47q0 -27 -26 -44q-12 -8 -28 -8t-29 10q-11 8 -26 32l-110 177q-19 30 -19 46z" />
<glyph unicode="&#xc1;" horiz-adv-x="1232" d="M62 87l490 1311q12 33 21 46q15 22 43 22t43 -22q11 -16 22 -46l489 -1311q21 -54 -4 -79q-16 -16 -42 -16q-13 0 -26 8q-17 12 -31 48l-116 306h-669l-116 -306q-14 -36 -31 -48q-13 -8 -26 -8q-26 0 -42 16q-25 25 -5 79zM316 453h600l-300 826zM563 1647q0 16 19 46 l110 177q13 22 26 32t30 10q15 0 27 -8q26 -17 26 -44q0 -16 -19 -46l-110 -178q-14 -22 -26 -31q-14 -11 -30 -11q-14 0 -27 9q-26 17 -26 44z" />
<glyph unicode="&#xc2;" horiz-adv-x="1232" d="M62 87l490 1311q12 33 21 46q15 22 43 22t43 -22q11 -16 22 -46l489 -1311q21 -54 -4 -79q-16 -16 -42 -16q-13 0 -26 8q-17 12 -31 48l-116 306h-669l-116 -306q-14 -36 -31 -48q-13 -8 -26 -8q-26 0 -42 16q-25 25 -5 79zM316 453h600l-300 826zM352 1640q3 18 26 41 l193 194q25 25 45 25q21 0 46 -25l193 -194q23 -23 26 -41q3 -21 -14 -38t-39 -14q-18 3 -41 26l-171 171l-171 -171q-23 -23 -41 -26q-21 -3 -38 14t-14 38z" />
<glyph unicode="&#xc3;" horiz-adv-x="1232" d="M62 87l490 1311q12 33 21 46q15 22 43 22t43 -22q11 -16 22 -46l489 -1311q21 -54 -4 -79q-16 -16 -42 -16q-13 0 -26 8q-17 12 -31 48l-116 306h-669l-116 -306q-14 -36 -31 -48q-13 -8 -26 -8q-26 0 -42 16q-25 25 -5 79zM310 1681q0 25 31 52q71 63 147 63 q41 0 70.5 -11t71.5 -37q71 -44 114 -44q24 0 43 7t48 32q29 26 47 26q16 0 27 -11q14 -14 14 -29q0 -25 -31 -52q-71 -63 -148 -63q-41 0 -69.5 11t-71.5 37q-71 44 -115 44q-24 0 -42.5 -7t-47.5 -32q-31 -27 -47 -27q-15 0 -27 12q-14 14 -14 29zM316 453h600l-300 826z " />
<glyph unicode="&#xc4;" horiz-adv-x="1232" d="M62 87l490 1311q12 33 21 46q15 22 43 22t43 -22q11 -16 22 -46l489 -1311q21 -54 -4 -79q-16 -16 -42 -16q-13 0 -26 8q-17 12 -31 48l-116 306h-669l-116 -306q-14 -36 -31 -48q-13 -8 -26 -8q-26 0 -42 16q-25 25 -5 79zM316 453h600l-300 826zM328 1694q0 32 22 53.5 t53 21.5q32 0 54 -22t22 -53q0 -32 -22.5 -54t-53.5 -22t-53 22t-22 54zM754 1694q0 32 22 53.5t53 21.5q32 0 54 -22t22 -53q0 -32 -22.5 -54t-53.5 -22t-53 22t-22 54z" />
<glyph unicode="&#xc5;" horiz-adv-x="1232" d="M62 87l490 1311q12 33 21 46q15 22 43 22t43 -22q11 -16 22 -46l489 -1311q21 -54 -4 -79q-16 -16 -42 -16q-13 0 -26 8q-17 12 -31 48l-116 306h-669l-116 -306q-14 -36 -31 -48q-13 -8 -26 -8q-26 0 -42 16q-25 25 -5 79zM316 453h600l-300 826zM383 1761 q0 97 68 165.5t165 68.5t165.5 -68.5t68.5 -165.5t-68.5 -165t-165.5 -68t-165 68t-68 165zM467 1761q0 -62 43.5 -105.5t105.5 -43.5t106 43.5t44 105.5t-44 106t-106 44t-105.5 -44t-43.5 -106z" />
<glyph unicode="&#xc6;" horiz-adv-x="1811" d="M52 35q-2 16 15 52l653 1308q16 34 35 49q17 14 43 14h836q38 0 52 -10q19 -15 19 -39t-19 -39q-14 -10 -52 -10h-711v-576h597q37 0 51 -10q19 -15 19 -39t-19 -39q-14 -10 -51 -10h-597v-588h711q38 0 52 -10q19 -15 19 -39t-19 -39q-14 -10 -52 -10h-756q-36 0 -51 15 t-15 51v288h-497l-154 -314q-15 -31 -34 -43q-9 -5 -22 -5q-12 0 -24 6q-26 13 -29 37zM365 453h447v907z" />
<glyph unicode="&#xc7;" horiz-adv-x="1318" d="M168 729q0 119 2.5 187t10 137t23.5 111.5t42 84t67 82.5q139 139 355 139q253 0 400 -190q36 -47 59.5 -105.5t23.5 -92.5q0 -26 -14 -40t-36 -14t-36 14q-16 16 -27 53q-40 130 -137 203.5t-233 73.5q-165 0 -277 -112q-74 -74 -93 -178t-19 -353t19 -352.5t93 -177.5 q113 -113 277 -113q136 0 233 74t137 204q11 36 27 52q14 14 36 14t36 -14t14 -40q0 -34 -23.5 -92.5t-59.5 -105.5q-147 -190 -400 -190q-216 0 -355 139q-41 41 -67 82.5t-42 84t-23.5 111.5t-10 137t-2.5 187zM497 -400q0 18 18 46l111 177q13 23 25 32q13 10 30 10 q16 0 28 -8q25 -16 25 -44q0 -18 -18 -46l-111 -178q-15 -23 -25 -31q-14 -11 -30 -11q-14 0 -28 9q-25 16 -25 44z" />
<glyph unicode="&#xc8;" horiz-adv-x="1224" d="M225 66v1327q0 34 16 50q15 15 50 15h757q37 0 51 -10q19 -15 19 -39t-19 -39q-14 -10 -51 -10h-712v-576h597q37 0 51 -10q20 -15 20 -39t-20 -39q-14 -10 -51 -10h-597v-588h712q37 0 51 -10q19 -15 19 -39t-19 -39q-14 -10 -51 -10h-757q-35 0 -50 15q-16 16 -16 51z M457 1854q0 28 25 44q13 9 28 9q16 0 30 -11q13 -10 25 -31l111 -177q18 -29 18 -47q0 -28 -25 -44q-12 -8 -28 -8q-17 0 -30 10q-9 7 -25 32l-111 177q-18 28 -18 46z" />
<glyph unicode="&#xc9;" horiz-adv-x="1224" d="M225 66v1327q0 34 16 50q15 15 50 15h757q37 0 51 -10q19 -15 19 -39t-19 -39q-14 -10 -51 -10h-712v-576h597q37 0 51 -10q20 -15 20 -39t-20 -39q-14 -10 -51 -10h-597v-588h712q37 0 51 -10q19 -15 19 -39t-19 -39q-14 -10 -51 -10h-757q-35 0 -50 15q-16 16 -16 51z M588 1647q0 18 18 46l111 177q13 23 25 32q13 10 30 10q16 0 28 -8q25 -16 25 -44q0 -17 -18 -46l-111 -178q-15 -23 -25 -31q-14 -11 -30 -11q-15 0 -28 9q-25 16 -25 44z" />
<glyph unicode="&#xca;" horiz-adv-x="1224" d="M225 66v1327q0 34 16 50q15 15 50 15h757q37 0 51 -10q19 -15 19 -39t-19 -39q-14 -10 -51 -10h-712v-576h597q37 0 51 -10q20 -15 20 -39t-20 -39q-14 -10 -51 -10h-597v-588h712q37 0 51 -10q19 -15 19 -39t-19 -39q-14 -10 -51 -10h-757q-35 0 -50 15q-16 16 -16 51z M377 1640q3 19 25 41l194 194q25 25 45 25t45 -25l194 -194q22 -22 25 -41q3 -22 -13 -38q-17 -17 -39 -14q-18 3 -41 26l-171 171l-171 -171q-23 -23 -41 -26q-22 -3 -39 14q-16 16 -13 38z" />
<glyph unicode="&#xcb;" horiz-adv-x="1224" d="M225 66v1327q0 34 16 50q15 15 50 15h757q37 0 51 -10q19 -15 19 -39t-19 -39q-14 -10 -51 -10h-712v-576h597q37 0 51 -10q20 -15 20 -39t-20 -39q-14 -10 -51 -10h-597v-588h712q37 0 51 -10q19 -15 19 -39t-19 -39q-14 -10 -51 -10h-757q-35 0 -50 15q-16 16 -16 51z M352 1694q0 31 22 53t54 22t54 -22t22 -53q0 -32 -22 -54t-54 -22t-54 22t-22 54zM778 1694q0 31 22 53t54 22t54 -22t22 -53q0 -32 -22 -54t-54 -22t-54 22t-22 54z" />
<glyph unicode="&#xcc;" horiz-adv-x="561" d="M96 1854q0 27 26 44q13 9 28 9t29 -11t26 -31l110 -177q19 -30 19 -47q0 -27 -26 -44q-12 -8 -27 -8q-17 0 -30 10q-11 8 -26 32l-110 177q-19 30 -19 46zM225 69v1321q0 36 13 56q14 20 43 20t43 -20q12 -19 12 -56v-1321q0 -38 -12 -57q-14 -20 -43 -20t-43 20 q-13 20 -13 57z" />
<glyph unicode="&#xcd;" horiz-adv-x="561" d="M225 69v1321q0 36 13 56q14 20 43 20t43 -20q12 -19 12 -56v-1321q0 -38 -12 -57q-14 -20 -43 -20t-43 20q-13 20 -13 57zM227 1647q0 16 19 46l110 177q13 22 26 32t30 10q15 0 27 -8q26 -17 26 -44q0 -16 -19 -46l-110 -178q-14 -22 -26 -31q-14 -11 -29 -11t-28 9 q-26 17 -26 44z" />
<glyph unicode="&#xce;" horiz-adv-x="561" d="M16 1640q3 18 26 41l194 194q25 25 45 25t45 -25l193 -194q23 -23 26 -41q3 -21 -14 -38t-38 -14q-18 3 -41 26l-171 171l-171 -171q-23 -23 -41 -26q-22 -3 -39 14t-14 38zM225 69v1321q0 36 13 56q14 20 43 20t43 -20q12 -19 12 -56v-1321q0 -38 -12 -57 q-14 -20 -43 -20t-43 20q-13 20 -13 57z" />
<glyph unicode="&#xcf;" horiz-adv-x="561" d="M17 1694q0 31 22 53t54 22t54 -22t22 -53q0 -32 -22.5 -54t-53.5 -22t-53.5 22t-22.5 54zM225 69v1321q0 36 13 56q14 20 43 20t43 -20q12 -19 12 -56v-1321q0 -38 -12 -57q-14 -20 -43 -20t-43 20q-13 20 -13 57zM392 1694q0 31 22 53t54 22t54 -22t22 -53 q0 -32 -22 -54t-54 -22t-54 22t-22 54z" />
<glyph unicode="&#xd0;" horiz-adv-x="1411" d="M74 735q0 23 18 37q14 10 47 10h109v611q0 35 15 50t50 15h424q232 0 365 -133q40 -40 68 -96.5t42 -108.5t21.5 -130t8.5 -127t1 -134t-1 -134t-8.5 -127t-21.5 -130t-42 -108.5t-68 -96.5q-133 -133 -365 -133h-424q-35 0 -50 15t-15 51v622h-109q-33 0 -47 10 q-18 14 -18 37zM358 98h353q205 0 313 113q31 33 53 81.5t32.5 92.5t16 113.5t6.5 111t1 119.5t-1 119.5t-6.5 111t-16 113.5t-32.5 92.5t-53 81.5q-108 113 -313 113h-353v-578h308q33 0 47 -10q18 -14 18 -37t-18 -37q-14 -10 -47 -10h-308v-590z" />
<glyph unicode="&#xd1;" horiz-adv-x="1513" d="M225 69v1321q0 39 20 59q17 17 43 17q36 0 61 -39l829 -1224v1187q0 37 12 56q14 20 43 20t43 -20q12 -19 12 -56v-1321q0 -41 -19 -60q-17 -17 -43 -17q-37 0 -62 39l-828 1224v-1186q0 -38 -12 -57q-14 -20 -43 -20t-43 20q-13 20 -13 57zM451 1681q0 26 30 52 q71 63 148 63q41 0 69.5 -11t71.5 -37q71 -44 115 -44q24 0 42.5 7t47.5 32q29 26 47 26q17 0 28 -11q13 -13 13 -29q0 -25 -31 -52q-71 -63 -147 -63q-41 0 -70.5 11t-71.5 37q-71 44 -114 44q-24 0 -42.5 -7t-47.5 -32q-31 -27 -47 -27t-28 12q-13 13 -13 29z" />
<glyph unicode="&#xd2;" horiz-adv-x="1335" d="M168 729q0 119 2.5 187t10 137t23.5 111.5t42 84t67 82.5q139 139 355 139q215 0 354 -139q41 -41 67 -82.5t42 -84t23.5 -111.5t10 -137t2.5 -187t-2.5 -187t-10 -137t-23.5 -111.5t-42 -84t-67 -82.5q-139 -139 -354 -139q-216 0 -355 139q-41 41 -67 82.5t-42 84 t-23.5 111.5t-10 137t-2.5 187zM279 729q0 -249 19 -352.5t93 -177.5q113 -113 277 -113q163 0 276 113q74 74 93.5 178t19.5 352t-19.5 352.5t-93.5 178.5q-112 112 -276 112q-165 0 -277 -112q-74 -74 -93 -178t-19 -353zM483 1854q0 27 26 44q13 9 28 9t29 -11t26 -31 l110 -177q19 -30 19 -47q0 -27 -26 -44q-12 -8 -27 -8q-17 0 -30 10q-11 8 -26 32l-110 177q-19 30 -19 46z" />
<glyph unicode="&#xd3;" horiz-adv-x="1335" d="M168 729q0 119 2.5 187t10 137t23.5 111.5t42 84t67 82.5q139 139 355 139q215 0 354 -139q41 -41 67 -82.5t42 -84t23.5 -111.5t10 -137t2.5 -187t-2.5 -187t-10 -137t-23.5 -111.5t-42 -84t-67 -82.5q-139 -139 -354 -139q-216 0 -355 139q-41 41 -67 82.5t-42 84 t-23.5 111.5t-10 137t-2.5 187zM279 729q0 -249 19 -352.5t93 -177.5q113 -113 277 -113q163 0 276 113q74 74 93.5 178t19.5 352t-19.5 352.5t-93.5 178.5q-112 112 -276 112q-165 0 -277 -112q-74 -74 -93 -178t-19 -353zM614 1647q0 16 19 46l110 177q13 22 26 32t30 10 q15 0 27 -8q26 -17 26 -44q0 -17 -18 -46l-111 -178q-14 -22 -26 -31q-14 -11 -29 -11q-14 0 -28 9q-26 17 -26 44z" />
<glyph unicode="&#xd4;" horiz-adv-x="1335" d="M168 729q0 119 2.5 187t10 137t23.5 111.5t42 84t67 82.5q139 139 355 139q215 0 354 -139q41 -41 67 -82.5t42 -84t23.5 -111.5t10 -137t2.5 -187t-2.5 -187t-10 -137t-23.5 -111.5t-42 -84t-67 -82.5q-139 -139 -354 -139q-216 0 -355 139q-41 41 -67 82.5t-42 84 t-23.5 111.5t-10 137t-2.5 187zM279 729q0 -249 19 -352.5t93 -177.5q113 -113 277 -113q163 0 276 113q74 74 93.5 178t19.5 352t-19.5 352.5t-93.5 178.5q-112 112 -276 112q-165 0 -277 -112q-74 -74 -93 -178t-19 -353zM403 1640q3 18 26 41l194 194q25 25 45 25t45 -25 l193 -194q23 -23 26 -41q3 -22 -13 -38q-17 -17 -39 -14q-18 3 -41 26l-171 171l-171 -171q-23 -23 -41 -26q-22 -3 -39 14t-14 38z" />
<glyph unicode="&#xd5;" horiz-adv-x="1335" d="M168 729q0 119 2.5 187t10 137t23.5 111.5t42 84t67 82.5q139 139 355 139q215 0 354 -139q41 -41 67 -82.5t42 -84t23.5 -111.5t10 -137t2.5 -187t-2.5 -187t-10 -137t-23.5 -111.5t-42 -84t-67 -82.5q-139 -139 -354 -139q-216 0 -355 139q-41 41 -67 82.5t-42 84 t-23.5 111.5t-10 137t-2.5 187zM279 729q0 -249 19 -352.5t93 -177.5q113 -113 277 -113q163 0 276 113q74 74 93.5 178t19.5 352t-19.5 352.5t-93.5 178.5q-112 112 -276 112q-165 0 -277 -112q-74 -74 -93 -178t-19 -353zM361 1681q0 25 31 52q71 63 148 63q41 0 69.5 -11 t71.5 -37q71 -44 115 -44q24 0 42.5 7t47.5 32q29 26 47 26q17 0 28 -11q13 -13 13 -29q0 -25 -31 -52q-71 -63 -147 -63q-41 0 -70.5 11t-71.5 37q-71 44 -114 44q-24 0 -42.5 -7t-47.5 -32q-31 -27 -48 -27q-15 0 -27 12q-14 14 -14 29z" />
<glyph unicode="&#xd6;" horiz-adv-x="1335" d="M168 729q0 119 2.5 187t10 137t23.5 111.5t42 84t67 82.5q139 139 355 139q215 0 354 -139q41 -41 67 -82.5t42 -84t23.5 -111.5t10 -137t2.5 -187t-2.5 -187t-10 -137t-23.5 -111.5t-42 -84t-67 -82.5q-139 -139 -354 -139q-216 0 -355 139q-41 41 -67 82.5t-42 84 t-23.5 111.5t-10 137t-2.5 187zM279 729q0 -249 19 -352.5t93 -177.5q113 -113 277 -113q163 0 276 113q74 74 93.5 178t19.5 352t-19.5 352.5t-93.5 178.5q-112 112 -276 112q-165 0 -277 -112q-74 -74 -93 -178t-19 -353zM379 1694q0 31 22 53t54 22q31 0 53 -21.5 t22 -53.5t-22 -54t-53 -22t-53.5 22t-22.5 54zM805 1694q0 31 22 53t54 22q31 0 53 -21.5t22 -53.5t-22 -54t-53 -22t-53.5 22t-22.5 54z" />
<glyph unicode="&#xd7;" d="M172 241q3 17 29 43l256 256l-256 256q-26 26 -29 43q-3 25 13 41q17 17 42 14q17 -3 43 -29l256 -256l256 256q26 26 43 29q25 3 41 -13q18 -18 15 -42q-3 -17 -29 -43l-256 -256l256 -256q26 -26 29 -43q3 -24 -14 -41q-18 -18 -42 -15q-17 3 -43 29l-256 256 l-256 -256q-26 -26 -43 -29q-24 -3 -41 14t-14 42z" />
<glyph unicode="&#xd8;" horiz-adv-x="1335" d="M168 729q0 119 2.5 187t10 137t23.5 111.5t42 84t67 82.5q139 139 355 139q149 0 266 -70l55 109q15 31 33 41q21 11 43 0t26 -34q3 -16 -14 -51l-63 -127q44 -43 71 -85t44.5 -85.5t25 -113t10 -137.5t2.5 -188q0 -119 -2.5 -187t-10 -137t-23.5 -111.5t-42 -84 t-67 -82.5q-139 -139 -354 -139q-150 0 -267 70l-55 -109q-15 -31 -33 -41q-21 -11 -43 0q-20 10 -25 35q-3 17 13 50l64 127q-44 43 -71.5 85t-44.5 86t-25 113t-10.5 137.5t-2.5 187.5zM279 729q0 -234 16 -335.5t76 -172.5l518 1085q-95 66 -221 66q-165 0 -277 -112 q-74 -74 -93 -178t-19 -353zM446 153q97 -67 222 -67q163 0 276 113q74 74 93.5 178t19.5 352q0 234 -16 335.5t-76 172.5z" />
<glyph unicode="&#xd9;" horiz-adv-x="1409" d="M205 473v917q0 37 12 56q14 20 43 20t43 -20q12 -19 12 -56v-903q0 -181 107.5 -291t282.5 -110t282 110t107 291v903q0 37 12 56q14 20 43 20t43 -20q12 -19 12 -56v-917q0 -214 -139.5 -349.5t-359.5 -135.5t-360 135.5t-140 349.5zM519 1854q0 27 26 44q13 9 27 9 q16 0 30 -11t26 -31l110 -177q19 -30 19 -47q0 -27 -26 -44q-12 -8 -28 -8t-29 10q-11 8 -26 32l-110 177q-19 30 -19 46z" />
<glyph unicode="&#xda;" horiz-adv-x="1409" d="M205 473v917q0 37 12 56q14 20 43 20t43 -20q12 -19 12 -56v-903q0 -181 107.5 -291t282.5 -110t282 110t107 291v903q0 37 12 56q14 20 43 20t43 -20q12 -19 12 -56v-917q0 -214 -139.5 -349.5t-359.5 -135.5t-360 135.5t-140 349.5zM650 1647q0 16 19 46l110 177 q13 22 26 32t30 10q15 0 27 -8q26 -17 26 -44q0 -16 -19 -46l-110 -178q-14 -22 -26 -31q-14 -11 -30 -11q-13 0 -27 9q-26 17 -26 44z" />
<glyph unicode="&#xdb;" horiz-adv-x="1409" d="M205 473v917q0 37 12 56q14 20 43 20t43 -20q12 -19 12 -56v-903q0 -181 107.5 -291t282.5 -110t282 110t107 291v903q0 37 12 56q14 20 43 20t43 -20q12 -19 12 -56v-917q0 -214 -139.5 -349.5t-359.5 -135.5t-360 135.5t-140 349.5zM439 1640q3 18 26 41l193 194 q25 25 45 25q21 0 46 -25l193 -194q23 -23 26 -41q3 -21 -14 -38t-39 -14q-18 3 -41 26l-171 171l-171 -171q-23 -23 -40 -26q-22 -3 -39 14t-14 38z" />
<glyph unicode="&#xdc;" horiz-adv-x="1409" d="M205 473v917q0 37 12 56q14 20 43 20t43 -20q12 -19 12 -56v-903q0 -181 107.5 -291t282.5 -110t282 110t107 291v903q0 37 12 56q14 20 43 20t43 -20q12 -19 12 -56v-917q0 -214 -139.5 -349.5t-359.5 -135.5t-360 135.5t-140 349.5zM415 1694q0 32 21.5 53.5t53.5 21.5 t54 -22t22 -53q0 -32 -22 -54t-54 -22q-31 0 -53 22t-22 54zM841 1694q0 32 21.5 53.5t53.5 21.5t54 -22t22 -53q0 -32 -22 -54t-54 -22q-31 0 -53 22t-22 54z" />
<glyph unicode="&#xdd;" horiz-adv-x="1011" d="M50 1423q3 24 29 37q12 6 24 6q13 0 22 -5q19 -12 34 -43l347 -694l347 694q15 31 34 43q9 5 21 5q13 0 25 -6q26 -13 29 -37q2 -16 -15 -52l-386 -772v-530q0 -38 -12 -57q-14 -20 -43 -20t-43 20q-12 19 -12 57v530l-386 772q-17 36 -15 52zM453 1647q0 18 18 46 l111 177q13 23 25 32q13 10 30 10q16 0 28 -8q25 -16 25 -44q0 -17 -18 -46l-111 -178q-15 -23 -25 -31q-14 -11 -30 -11q-15 0 -28 9q-25 16 -25 44z" />
<glyph unicode="&#xde;" horiz-adv-x="1323" d="M225 69v1321q0 36 13 56q14 20 43 20t43 -20q12 -19 12 -56v-235h424q194 0 317 -112t123 -308q0 -195 -123 -307.5t-317 -112.5h-424v-246q0 -38 -12 -57q-14 -20 -43 -20t-43 20q-13 20 -13 57zM336 414h412q158 0 250 81t92 240t-92 240.5t-250 81.5h-412v-643z" />
<glyph unicode="&#xdf;" horiz-adv-x="1126" d="M199 63v1010q0 185 105 291t290 106q78 0 145 -20t119.5 -59t82.5 -104t30 -148q0 -164 -129 -250q77 -42 104 -96.5t27 -157.5v-361q0 -131 -80 -204q-42 -37 -86.5 -53.5t-108.5 -16.5h-51q-37 0 -51 10q-18 14 -18 37t18 37q14 10 47 10h40q87 0 135 48q48 45 48 142 v365q0 97 -47 141q-48 48 -133 48h-46q-32 0 -45 10q-17 13 -17 35t17 35q13 10 45 10h26q90 0 145 58t55 153q0 106 -71 174q-69 65 -213 65q-142 0 -209.5 -81.5t-67.5 -223.5v-1010q0 -35 -11 -51q-13 -20 -42 -20t-42 20q-11 16 -11 51z" />
<glyph unicode="&#xe0;" horiz-adv-x="1073" d="M113 272q0 133 92 209t249 76h324v94q0 128 -63.5 192t-204.5 64q-86 0 -139.5 -23t-109.5 -79q-27 -27 -54 -27q-20 0 -33 13q-14 14 -14 34q0 44 94 108q98 66 256 66q185 0 280 -82.5t95 -240.5v-613q0 -33 -12 -51q-13 -20 -42 -20q-28 0 -41 20q-12 18 -12 51v35 q-62 -62 -129.5 -86t-171.5 -24q-111 0 -178 20.5t-114 69.5q-72 75 -72 194zM219 272q0 -97 63.5 -144.5t194.5 -47.5q81 0 139.5 15t106.5 61q55 52 55 188v126h-317q-120 0 -181 -50.5t-61 -147.5zM326 1465q0 28 25 44q13 9 28 9q16 0 30 -11q13 -10 25 -31l111 -178 q18 -29 18 -46q0 -28 -25 -44q-12 -8 -28 -8q-17 0 -30 10q-9 7 -25 32l-111 177q-18 29 -18 46z" />
<glyph unicode="&#xe1;" horiz-adv-x="1073" d="M113 272q0 133 92 209t249 76h324v94q0 128 -63.5 192t-204.5 64q-86 0 -139.5 -23t-109.5 -79q-27 -27 -54 -27q-20 0 -33 13q-14 14 -14 34q0 44 94 108q98 66 256 66q185 0 280 -82.5t95 -240.5v-613q0 -33 -12 -51q-13 -20 -42 -20q-28 0 -41 20q-12 18 -12 51v35 q-62 -62 -129.5 -86t-171.5 -24q-111 0 -178 20.5t-114 69.5q-72 75 -72 194zM219 272q0 -97 63.5 -144.5t194.5 -47.5q81 0 139.5 15t106.5 61q55 52 55 188v126h-317q-120 0 -181 -50.5t-61 -147.5zM457 1257q0 19 18 47l111 177q12 21 25 31q14 11 30 11q15 0 28 -9 q25 -16 25 -44q0 -18 -18 -46l-111 -177q-16 -25 -25 -32q-13 -10 -30 -10q-16 0 -28 8q-25 16 -25 44z" />
<glyph unicode="&#xe2;" horiz-adv-x="1073" d="M113 272q0 133 92 209t249 76h324v94q0 128 -63.5 192t-204.5 64q-86 0 -139.5 -23t-109.5 -79q-27 -27 -54 -27q-20 0 -33 13q-14 14 -14 34q0 44 94 108q98 66 256 66q185 0 280 -82.5t95 -240.5v-613q0 -33 -12 -51q-13 -20 -42 -20q-28 0 -41 20q-12 18 -12 51v35 q-62 -62 -129.5 -86t-171.5 -24q-111 0 -178 20.5t-114 69.5q-72 75 -72 194zM219 272q0 -97 63.5 -144.5t194.5 -47.5q81 0 139.5 15t106.5 61q55 52 55 188v126h-317q-120 0 -181 -50.5t-61 -147.5zM246 1251q3 19 25 41l194 194q24 24 45 24t45 -24l194 -194 q22 -22 25 -41q3 -23 -13 -39t-39 -13q-18 3 -41 26l-171 171l-171 -171q-23 -23 -41 -26q-23 -3 -39 13t-13 39z" />
<glyph unicode="&#xe3;" horiz-adv-x="1073" d="M113 272q0 133 92 209t249 76h324v94q0 128 -63.5 192t-204.5 64q-86 0 -139.5 -23t-109.5 -79q-27 -27 -54 -27q-20 0 -33 13q-14 14 -14 34q0 44 94 108q98 66 256 66q185 0 280 -82.5t95 -240.5v-613q0 -33 -12 -51q-13 -20 -42 -20q-28 0 -41 20q-12 18 -12 51v35 q-62 -62 -129.5 -86t-171.5 -24q-111 0 -178 20.5t-114 69.5q-72 75 -72 194zM204 1307q0 25 30 51q71 63 148 63q41 0 69.5 -11t71.5 -37q71 -44 115 -44q24 0 42.5 7t47.5 32q31 27 47 27t28 -12q13 -13 13 -29q0 -24 -31 -51q-73 -64 -147 -64q-41 0 -69.5 11t-71.5 37 q-72 44 -115 44q-24 0 -42.5 -7t-47.5 -32q-29 -26 -47 -26q-17 0 -28 11q-13 13 -13 30zM219 272q0 -97 63.5 -144.5t194.5 -47.5q81 0 139.5 15t106.5 61q55 52 55 188v126h-317q-120 0 -181 -50.5t-61 -147.5z" />
<glyph unicode="&#xe4;" horiz-adv-x="1073" d="M113 272q0 133 92 209t249 76h324v94q0 128 -63.5 192t-204.5 64q-86 0 -139.5 -23t-109.5 -79q-27 -27 -54 -27q-20 0 -33 13q-14 14 -14 34q0 44 94 108q98 66 256 66q185 0 280 -82.5t95 -240.5v-613q0 -33 -12 -51q-13 -20 -42 -20q-28 0 -41 20q-12 18 -12 51v35 q-62 -62 -129.5 -86t-171.5 -24q-111 0 -178 20.5t-114 69.5q-72 75 -72 194zM219 272q0 -97 63.5 -144.5t194.5 -47.5q81 0 139.5 15t106.5 61q55 52 55 188v126h-317q-120 0 -181 -50.5t-61 -147.5zM221 1305q0 31 22 53t54 22t54 -22t22 -53t-22.5 -53.5t-53.5 -22.5 t-53.5 22.5t-22.5 53.5zM647 1305q0 31 22 53t54 22t54 -22t22 -53t-22.5 -53.5t-53.5 -22.5t-53.5 22.5t-22.5 53.5z" />
<glyph unicode="&#xe5;" horiz-adv-x="1073" d="M113 272q0 133 92 209t249 76h324v94q0 128 -63.5 192t-204.5 64q-86 0 -139.5 -23t-109.5 -79q-27 -27 -54 -27q-20 0 -33 13q-14 14 -14 34q0 44 94 108q98 66 256 66q185 0 280 -82.5t95 -240.5v-613q0 -33 -12 -51q-13 -20 -42 -20q-28 0 -41 20q-12 18 -12 51v35 q-62 -62 -129.5 -86t-171.5 -24q-111 0 -178 20.5t-114 69.5q-72 75 -72 194zM219 272q0 -97 63.5 -144.5t194.5 -47.5q81 0 139.5 15t106.5 61q55 52 55 188v126h-317q-120 0 -181 -50.5t-61 -147.5zM276 1386q0 97 68.5 165.5t165.5 68.5t165 -68.5t68 -165.5t-68 -165 t-165 -68t-165.5 68t-68.5 165zM360 1386q0 -62 44 -105.5t106 -43.5t105.5 43.5t43.5 105.5t-43.5 106t-105.5 44t-106 -44t-44 -106z" />
<glyph unicode="&#xe6;" horiz-adv-x="1707" d="M113 272q0 133 92 209t249 76h324v94q0 128 -63.5 192t-204.5 64q-86 0 -139.5 -23t-109.5 -79q-27 -27 -54 -27q-20 0 -33 13q-14 14 -14 34q0 44 94 108q98 66 256 66q267 0 345 -172q104 172 320 172q183 0 289 -125.5t106 -339.5q0 -35 -15 -50q-14 -14 -49 -14h-622 q0 -188 82.5 -288t238.5 -100q139 0 228 78q24 21 35 28t24 7q18 0 32.5 -15t14.5 -33q0 -49 -104 -106q-91 -53 -236 -53q-252 0 -355 184q-61 -100 -145.5 -142t-221.5 -42q-111 0 -178 20.5t-114 69.5q-72 75 -72 194zM219 272q0 -97 63.5 -144.5t194.5 -47.5 q81 0 139.5 15t106.5 61q55 52 55 188v126h-317q-120 0 -181 -50.5t-61 -147.5zM884 557h581q-3 65 -9.5 102t-24.5 81q-31 76 -99.5 120.5t-156.5 44.5t-156.5 -44.5t-99.5 -120.5q-30 -72 -35 -183z" />
<glyph unicode="&#xe7;" horiz-adv-x="1006" d="M141 494q0 236 115 370.5t318 134.5q151 0 259 -93q30 -26 41 -41.5t11 -34.5q0 -18 -17 -33q-15 -13 -32 -13q-13 0 -26 8t-39 31q-52 45 -96.5 63.5t-100.5 18.5q-170 0 -259 -129q-37 -54 -52 -118t-15 -164t15 -164.5t52 -118.5q89 -129 259 -129q56 0 100.5 18.5 t96.5 63.5q26 23 39 31t26 8q17 0 32 -13q17 -15 17 -33q0 -19 -11 -34.5t-41 -41.5q-108 -93 -259 -93q-203 0 -318 135t-115 371zM381 -400q0 18 18 46l111 177q13 22 26 32t29 10t28 -8q25 -16 25 -44q0 -18 -18 -46l-111 -178q-15 -23 -25 -31q-14 -11 -30 -11 q-14 0 -27 9q-26 17 -26 44z" />
<glyph unicode="&#xe8;" horiz-adv-x="1071" d="M141 494q0 242 105.5 373.5t292.5 131.5q183 0 289 -125t106 -339q0 -36 -14 -50t-50 -14h-622q0 -188 82.5 -288.5t238.5 -100.5q139 0 228 78q24 21 35 28t24 7q18 0 32.5 -15t14.5 -33q0 -49 -104 -106q-91 -53 -236 -53q-205 0 -313.5 129.5t-108.5 376.5zM248 559 h581q-5 111 -34 181q-31 76 -99.5 120.5t-156.5 44.5t-156.5 -44.5t-99.5 -120.5q-30 -72 -35 -181zM354 1465q0 27 26 44q13 9 28 9t29 -11t26 -31l110 -178q19 -30 19 -46q0 -27 -26 -44q-12 -8 -27 -8q-17 0 -30 10q-11 8 -26 32l-110 177q-19 30 -19 46z" />
<glyph unicode="&#xe9;" horiz-adv-x="1071" d="M141 494q0 242 105.5 373.5t292.5 131.5q183 0 289 -125t106 -339q0 -36 -14 -50t-50 -14h-622q0 -188 82.5 -288.5t238.5 -100.5q139 0 228 78q24 21 35 28t24 7q18 0 32.5 -15t14.5 -33q0 -49 -104 -106q-91 -53 -236 -53q-205 0 -313.5 129.5t-108.5 376.5zM248 559 h581q-5 111 -34 181q-31 76 -99.5 120.5t-156.5 44.5t-156.5 -44.5t-99.5 -120.5q-30 -72 -35 -181zM485 1257q0 17 19 47l110 177q12 20 26 31t30 11q14 0 27 -9q26 -17 26 -44q0 -18 -18 -46l-111 -177q-15 -24 -26 -32q-13 -10 -29 -10t-28 8q-26 17 -26 44z" />
<glyph unicode="&#xea;" horiz-adv-x="1071" d="M141 494q0 242 105.5 373.5t292.5 131.5q183 0 289 -125t106 -339q0 -36 -14 -50t-50 -14h-622q0 -188 82.5 -288.5t238.5 -100.5q139 0 228 78q24 21 35 28t24 7q18 0 32.5 -15t14.5 -33q0 -49 -104 -106q-91 -53 -236 -53q-205 0 -313.5 129.5t-108.5 376.5zM248 559 h581q-5 111 -34 181q-31 76 -99.5 120.5t-156.5 44.5t-156.5 -44.5t-99.5 -120.5q-30 -72 -35 -181zM274 1251q3 18 26 41l194 194q24 24 45 24t45 -24l193 -194q23 -23 26 -41q3 -23 -13 -39t-39 -13q-18 3 -41 26l-171 171l-171 -171q-23 -23 -41 -26q-23 -3 -39 13 q-17 17 -14 39z" />
<glyph unicode="&#xeb;" horiz-adv-x="1071" d="M141 494q0 242 105.5 373.5t292.5 131.5q183 0 289 -125t106 -339q0 -36 -14 -50t-50 -14h-622q0 -188 82.5 -288.5t238.5 -100.5q139 0 228 78q24 21 35 28t24 7q18 0 32.5 -15t14.5 -33q0 -49 -104 -106q-91 -53 -236 -53q-205 0 -313.5 129.5t-108.5 376.5zM248 559 h581q-5 111 -34 181q-31 76 -99.5 120.5t-156.5 44.5t-156.5 -44.5t-99.5 -120.5q-30 -72 -35 -181zM250 1305q0 31 22 53t54 22t53.5 -22t21.5 -53q0 -32 -22 -54t-53 -22q-32 0 -54 22.5t-22 53.5zM676 1305q0 31 22 53t54 22t53.5 -22t21.5 -53q0 -32 -22 -54t-53 -22 q-32 0 -54 22.5t-22 53.5z" />
<glyph unicode="&#xec;" horiz-adv-x="503" d="M68 1466q0 28 25 44q13 9 28 9q16 0 30 -11q13 -10 25 -31l111 -178q18 -29 18 -46q0 -28 -25 -44q-12 -8 -28 -8q-17 0 -30 10q-9 7 -25 32l-111 177q-18 28 -18 46zM199 63v861q0 34 11 51q13 20 42 20t42 -20q11 -17 11 -51v-861q0 -35 -11 -51q-13 -20 -42 -20 t-42 20q-11 16 -11 51z" />
<glyph unicode="&#xed;" horiz-adv-x="503" d="M199 63v861q0 34 11 51q13 20 42 20t42 -20q11 -17 11 -51v-861q0 -35 -11 -51q-13 -20 -42 -20t-42 20q-11 16 -11 51zM199 1257q0 19 18 47l111 177q12 21 25 31q14 11 30 11q15 0 28 -9q25 -16 25 -44q0 -18 -18 -46l-111 -177q-16 -25 -25 -32q-13 -10 -30 -10 q-16 0 -28 8q-25 16 -25 44z" />
<glyph unicode="&#xee;" horiz-adv-x="503" d="M-12 1251q3 19 25 41l194 194q24 24 45 24t45 -24l193 -194q23 -23 26 -41q3 -23 -13 -39t-39 -13q-18 3 -41 26l-171 171l-171 -171q-23 -23 -41 -26q-23 -3 -39 13t-13 39zM199 63v861q0 34 11 51q13 20 42 20t42 -20q11 -17 11 -51v-861q0 -35 -11 -51 q-13 -20 -42 -20t-42 20q-11 16 -11 51z" />
<glyph unicode="&#xef;" horiz-adv-x="503" d="M-11 1305q0 31 22 53t54 22q31 0 53 -22t22 -53q0 -32 -22 -54t-53 -22t-53.5 22.5t-22.5 53.5zM199 63v861q0 34 11 51q13 20 42 20t42 -20q11 -17 11 -51v-861q0 -35 -11 -51q-13 -20 -42 -20t-42 20q-11 16 -11 51zM364 1305q0 31 22 53t53 22q32 0 54 -22t22 -53 t-22.5 -53.5t-53.5 -22.5t-53 22t-22 54z" />
<glyph unicode="&#xf0;" horiz-adv-x="1077" d="M139 494q0 272 125 397q108 108 275 108q97 0 153 -34l-105 211h-198q-30 0 -42 9q-15 11 -15 32q0 20 15 31q12 9 42 9h157l-59 118q-14 28 -14 45q0 20 14 33t32 13q15 0 25 -6q16 -9 31 -41l81 -162h118q30 0 42 -9q15 -11 15 -31q0 -21 -15 -32q-12 -9 -42 -9h-77 l154 -308q52 -103 69.5 -181.5t17.5 -192.5q0 -273 -125 -398q-108 -108 -274 -108q-167 0 -275 108q-125 125 -125 398zM246 494q0 -112 16.5 -193.5t71.5 -136.5q84 -84 205 -84q120 0 204 84q55 55 71.5 136.5t16.5 193.5t-16.5 193t-71.5 136q-84 84 -204 84 q-121 0 -205 -84q-55 -55 -71.5 -136t-16.5 -193z" />
<glyph unicode="&#xf1;" horiz-adv-x="1148" d="M199 63v861q0 34 11 51q13 20 42 20t42 -20q11 -17 11 -51v-54q111 129 291 129q167 0 264 -94q103 -97 103 -274v-568q0 -33 -12 -51q-13 -20 -42 -20t-42 20q-11 16 -11 51v547q0 143 -69.5 219t-202.5 76t-206 -77t-73 -218v-547q0 -35 -11 -51q-13 -20 -42 -20 t-42 20q-11 16 -11 51zM283 1307q0 25 30 51q71 63 148 63q41 0 69.5 -11t71.5 -37q72 -44 115 -44q24 0 42.5 7t47.5 32q31 27 47 27t28 -12q13 -13 13 -29q0 -24 -31 -51q-73 -64 -147 -64q-41 0 -70.5 11t-71.5 37q-72 44 -114 44q-24 0 -42.5 -7t-47.5 -32 q-29 -26 -47 -26q-17 0 -28 11q-13 13 -13 30z" />
<glyph unicode="&#xf2;" horiz-adv-x="1081" d="M141 494q0 126 25.5 224.5t99.5 172.5q108 108 275 108q166 0 274 -108q74 -74 99.5 -172.5t25.5 -224.5q0 -127 -25.5 -225.5t-99.5 -172.5q-108 -108 -274 -108q-167 0 -275 108q-74 74 -99.5 172.5t-25.5 225.5zM248 494q0 -239 90 -329q83 -83 203 -83q119 0 202 83 q91 91 91 329q0 237 -91 328q-83 83 -202 83q-120 0 -203 -83q-90 -90 -90 -328zM356 1465q0 27 26 44q14 9 28 9q15 0 29 -11t26 -31l110 -178q19 -30 19 -46q0 -27 -26 -44q-12 -8 -27 -8q-17 0 -30 10q-11 8 -26 32l-110 177q-19 30 -19 46z" />
<glyph unicode="&#xf3;" horiz-adv-x="1081" d="M141 494q0 126 25.5 224.5t99.5 172.5q108 108 275 108q166 0 274 -108q74 -74 99.5 -172.5t25.5 -224.5q0 -127 -25.5 -225.5t-99.5 -172.5q-108 -108 -274 -108q-167 0 -275 108q-74 74 -99.5 172.5t-25.5 225.5zM248 494q0 -239 90 -329q83 -83 203 -83q119 0 202 83 q91 91 91 329q0 237 -91 328q-83 83 -202 83q-120 0 -203 -83q-90 -90 -90 -328zM487 1257q0 17 19 47l110 177q12 20 26 31t30 11q14 0 27 -9q26 -17 26 -44q0 -18 -18 -46l-111 -177q-15 -24 -26 -32q-13 -10 -29 -10t-28 8q-26 17 -26 44z" />
<glyph unicode="&#xf4;" horiz-adv-x="1081" d="M141 494q0 126 25.5 224.5t99.5 172.5q108 108 275 108q166 0 274 -108q74 -74 99.5 -172.5t25.5 -224.5q0 -127 -25.5 -225.5t-99.5 -172.5q-108 -108 -274 -108q-167 0 -275 108q-74 74 -99.5 172.5t-25.5 225.5zM248 494q0 -239 90 -329q83 -83 203 -83q119 0 202 83 q91 91 91 329q0 237 -91 328q-83 83 -202 83q-120 0 -203 -83q-90 -90 -90 -328zM276 1251q3 18 26 41l194 194q24 24 45 24t45 -24l193 -194q23 -23 26 -41q3 -23 -13 -39t-39 -13q-18 3 -41 26l-171 171l-171 -171q-23 -23 -41 -26q-23 -3 -39 13q-17 17 -14 39z" />
<glyph unicode="&#xf5;" horiz-adv-x="1081" d="M141 494q0 126 25.5 224.5t99.5 172.5q108 108 275 108q166 0 274 -108q74 -74 99.5 -172.5t25.5 -224.5q0 -127 -25.5 -225.5t-99.5 -172.5q-108 -108 -274 -108q-167 0 -275 108q-74 74 -99.5 172.5t-25.5 225.5zM234 1307q0 24 31 51q71 63 148 63q41 0 69.5 -11 t71.5 -37q71 -44 115 -44q24 0 42.5 7t47.5 32q31 27 47 27t28 -12q13 -13 13 -29q0 -24 -31 -51q-73 -64 -147 -64q-41 0 -70.5 11t-71.5 37q-71 44 -114 44q-24 0 -42.5 -7t-47.5 -32q-29 -26 -48 -26q-16 0 -27 11q-14 14 -14 30zM248 494q0 -239 90 -329q83 -83 203 -83 q119 0 202 83q91 91 91 329q0 237 -91 328q-83 83 -202 83q-120 0 -203 -83q-90 -90 -90 -328z" />
<glyph unicode="&#xf6;" horiz-adv-x="1081" d="M141 494q0 126 25.5 224.5t99.5 172.5q108 108 275 108q166 0 274 -108q74 -74 99.5 -172.5t25.5 -224.5q0 -127 -25.5 -225.5t-99.5 -172.5q-108 -108 -274 -108q-167 0 -275 108q-74 74 -99.5 172.5t-25.5 225.5zM248 494q0 -239 90 -329q83 -83 203 -83q119 0 202 83 q91 91 91 329q0 237 -91 328q-83 83 -202 83q-120 0 -203 -83q-90 -90 -90 -328zM252 1305q0 31 22 53t54 22t53.5 -22t21.5 -53q0 -32 -22 -54t-53 -22q-32 0 -54 22.5t-22 53.5zM678 1305q0 31 22 53t54 22t53.5 -22t21.5 -53q0 -32 -22 -54t-53 -22q-32 0 -54 22.5 t-22 53.5z" />
<glyph unicode="&#xf7;" d="M100 540q0 23 19 37q14 10 47 10h721q33 0 47 -10q18 -13 18 -37t-18 -37q-14 -10 -47 -10h-721q-33 0 -47 10q-19 14 -19 37zM432 193q0 38 28 66t66 28t66.5 -28t28.5 -66t-28.5 -66.5t-66.5 -28.5t-66 28.5t-28 66.5zM432 887q0 38 28 66t66 28t66.5 -28t28.5 -66 t-28.5 -66t-66.5 -28t-66 28t-28 66z" />
<glyph unicode="&#xf8;" horiz-adv-x="1081" d="M141 494q0 272 125 397q108 108 275 108q122 0 214 -60l64 110q20 36 45 36q12 0 23 -6q20 -12 20 -35q0 -13 -14 -36l-73 -122q120 -125 120 -392q0 -273 -125 -398q-108 -108 -274 -108q-124 0 -216 60l-67 -111q-21 -37 -45 -37q-13 0 -23 6q-20 12 -20 35q0 13 14 36 l75 126q-118 124 -118 391zM248 494q0 -99 12 -173.5t52 -129.5l393 666q-73 50 -164 50q-121 0 -205 -84q-55 -55 -71.5 -136t-16.5 -193zM373 132q73 -52 168 -52q120 0 204 84q55 55 72 137t17 193q0 98 -13 173.5t-54 131.5z" />
<glyph unicode="&#xf9;" horiz-adv-x="1148" d="M186 356v568q0 33 12 51q13 20 42 20t42 -20q11 -17 11 -51v-547q0 -143 69.5 -219t202.5 -76t206 77t73 218v547q0 34 11 51q13 20 42 20t42 -20q11 -17 11 -51v-861q0 -35 -11 -51q-13 -20 -42 -20t-42 20q-11 16 -11 51v54q-111 -129 -291 -129q-167 0 -264 94 q-103 97 -103 274zM384 1465q0 27 26 44q14 9 27 9q16 0 30 -11t26 -31l110 -178q19 -30 19 -46q0 -27 -26 -44q-12 -8 -28 -8t-29 10q-11 8 -26 32l-111 177q-18 29 -18 46z" />
<glyph unicode="&#xfa;" horiz-adv-x="1148" d="M186 356v568q0 33 12 51q13 20 42 20t42 -20q11 -17 11 -51v-547q0 -143 69.5 -219t202.5 -76t206 77t73 218v547q0 34 11 51q13 20 42 20t42 -20q11 -17 11 -51v-861q0 -35 -11 -51q-13 -20 -42 -20t-42 20q-11 16 -11 51v54q-111 -129 -291 -129q-167 0 -264 94 q-103 97 -103 274zM515 1257q0 17 19 47l110 177q12 20 26 31t29 11t28 -9q26 -17 26 -44q0 -16 -19 -46l-110 -177q-15 -24 -26 -32q-13 -10 -30 -10q-15 0 -27 8q-26 17 -26 44z" />
<glyph unicode="&#xfb;" horiz-adv-x="1148" d="M186 356v568q0 33 12 51q13 20 42 20t42 -20q11 -17 11 -51v-547q0 -143 69.5 -219t202.5 -76t206 77t73 218v547q0 34 11 51q13 20 42 20t42 -20q11 -17 11 -51v-861q0 -35 -11 -51q-13 -20 -42 -20t-42 20q-11 16 -11 51v54q-111 -129 -291 -129q-167 0 -264 94 q-103 97 -103 274zM304 1251q3 18 26 41l193 194q24 24 45 24t45 -24l194 -194q23 -23 26 -41q3 -22 -14 -39q-16 -16 -39 -13q-18 3 -41 26l-171 171l-171 -171q-23 -23 -41 -26q-23 -3 -39 13t-13 39z" />
<glyph unicode="&#xfc;" horiz-adv-x="1148" d="M186 356v568q0 33 12 51q13 20 42 20t42 -20q11 -17 11 -51v-547q0 -143 69.5 -219t202.5 -76t206 77t73 218v547q0 34 11 51q13 20 42 20t42 -20q11 -17 11 -51v-861q0 -35 -11 -51q-13 -20 -42 -20t-42 20q-11 16 -11 51v54q-111 -129 -291 -129q-167 0 -264 94 q-103 97 -103 274zM280 1305q0 31 22 53t53 22q32 0 54 -22t22 -53t-22.5 -53.5t-53.5 -22.5t-53 22t-22 54zM706 1305q0 31 22 53t53 22q32 0 54 -22t22 -53t-22.5 -53.5t-53.5 -22.5t-53 22t-22 54z" />
<glyph unicode="&#xfd;" horiz-adv-x="880" d="M67 963q12 32 48 32q38 0 55 -53l270 -812l271 812q17 53 55 53q36 0 48 -32q6 -18 -5 -54l-409 -1177q-26 -77 -67 -116q-67 -62 -174 -62q-34 0 -49 10q-19 13 -19 37t19 37q13 10 43 10q63 0 101 29.5t63 103.5l73 219l-318 909q-11 36 -5 54zM387 1257q0 17 19 47 l110 177q12 20 26 31t29 11t28 -9q26 -17 26 -44q0 -16 -19 -46l-110 -177q-15 -24 -26 -32q-13 -10 -30 -10q-15 0 -27 8q-26 17 -26 44z" />
<glyph unicode="&#xfe;" horiz-adv-x="1110" d="M199 -408v1803q0 35 11 51q13 20 42 20t42 -20q11 -16 11 -51v-535q60 80 130 109.5t163 29.5q75 0 139 -23.5t103 -62.5q129 -129 129 -419q0 -291 -129 -420q-39 -39 -103 -62.5t-139 -23.5q-93 0 -163 29.5t-130 109.5v-535q0 -34 -11 -51q-13 -20 -42 -20t-42 20 q-11 17 -11 51zM305 494q0 -69 5.5 -122.5t23 -110t47.5 -94t81.5 -61.5t121.5 -24t121.5 24t81 61t47 94t23 110.5t5.5 122.5t-5.5 122.5t-23 110t-47 93.5t-81 61t-121.5 24t-121.5 -24t-81.5 -61t-47.5 -93.5t-23 -110.5t-5.5 -122z" />
<glyph unicode="&#xff;" horiz-adv-x="880" d="M67 963q12 32 48 32q38 0 55 -53l270 -812l271 812q17 53 55 53q36 0 48 -32q6 -18 -5 -54l-409 -1177q-26 -77 -67 -116q-67 -62 -174 -62q-34 0 -49 10q-19 13 -19 37t19 37q13 10 43 10q63 0 101 29.5t63 103.5l73 219l-318 909q-11 36 -5 54zM152 1305q0 31 22 53 t53 22q32 0 54 -22t22 -53t-22.5 -53.5t-53.5 -22.5t-53 22t-22 54zM578 1305q0 31 22 53t53 22q32 0 54 -22t22 -53t-22.5 -53.5t-53.5 -22.5t-53 22t-22 54z" />
<glyph unicode="&#x152;" horiz-adv-x="2056" d="M168 729q0 119 2.5 187t10 137t23.5 111.5t42 84t67 82.5q139 139 355 139q241 0 389 -177v100q0 35 15 50t50 15h757q37 0 51 -10q20 -15 20 -39t-20 -39q-14 -10 -51 -10h-712v-576h597q38 0 52 -10q19 -15 19 -39t-19 -39q-14 -10 -52 -10h-597v-588h712q37 0 51 -10 q20 -15 20 -39t-20 -39q-14 -10 -51 -10h-757q-35 0 -50 15t-15 51v98q-150 -176 -389 -176q-216 0 -355 139q-41 41 -67 82.5t-42 84t-23.5 111.5t-10 137t-2.5 187zM279 729q0 -249 19 -352.5t93 -177.5q113 -113 277 -113q163 0 276 113q74 74 93.5 178t19.5 352 t-19.5 352.5t-93.5 178.5q-112 112 -276 112q-165 0 -277 -112q-74 -74 -93 -178t-19 -353z" />
<glyph unicode="&#x153;" horiz-adv-x="1763" d="M141 494q0 126 25.5 224.5t99.5 172.5q108 108 275 108q116 0 207 -55.5t141 -158.5q49 105 136 159.5t206 54.5q183 0 289 -125t106 -339q0 -36 -14 -50t-49 -14h-623q0 -188 83 -288.5t239 -100.5q138 0 227 78q17 15 24 20.5t16 10t19 4.5q18 0 32.5 -15t14.5 -33 q0 -49 -104 -106q-91 -53 -236 -53q-266 0 -366 214q-48 -102 -140 -158t-208 -56q-167 0 -275 108q-74 74 -99.5 172.5t-25.5 225.5zM248 494q0 -239 90 -329q83 -83 203 -83q119 0 202 83q91 91 91 329q0 237 -91 328q-83 83 -202 83q-120 0 -203 -83q-90 -90 -90 -328z M940 559h582q-5 109 -35 181q-31 76 -99.5 120.5t-156.5 44.5t-156.5 -44.5t-99.5 -120.5q-30 -72 -35 -181z" />
<glyph unicode="&#x178;" horiz-adv-x="1011" d="M50 1423q3 24 29 37q12 6 24 6q13 0 22 -5q19 -12 34 -43l347 -694l347 694q15 31 34 43q9 5 21 5q13 0 25 -6q26 -13 29 -37q2 -16 -15 -52l-386 -772v-530q0 -38 -12 -57q-14 -20 -43 -20t-43 20q-12 19 -12 57v530l-386 772q-17 36 -15 52zM217 1694q0 31 22 53t54 22 t54 -22t22 -53q0 -32 -22.5 -54t-53.5 -22t-53.5 22t-22.5 54zM643 1694q0 31 22 53t54 22t54 -22t22 -53q0 -32 -22.5 -54t-53.5 -22t-53.5 22t-22.5 54z" />
<glyph unicode="&#x2c6;" horiz-adv-x="1024" d="M276 1251q3 18 26 41l194 194q24 24 45 24t45 -24l193 -194q23 -23 26 -41q3 -23 -13 -39t-39 -13q-18 3 -41 26l-171 171l-171 -171q-23 -23 -41 -26q-23 -3 -39 13q-17 17 -14 39z" />
<glyph unicode="&#x2dc;" horiz-adv-x="1024" d="M234 1307q0 24 31 51q71 63 148 63q41 0 69.5 -11t71.5 -37q71 -44 115 -44q24 0 42.5 7t47.5 32q31 27 47 27t28 -12q13 -13 13 -29q0 -24 -31 -51q-73 -64 -147 -64q-41 0 -70.5 11t-71.5 37q-71 44 -114 44q-24 0 -42.5 -7t-47.5 -32q-29 -26 -48 -26q-16 0 -27 11 q-14 14 -14 30z" />
<glyph unicode="&#x2000;" horiz-adv-x="997" />
<glyph unicode="&#x2001;" horiz-adv-x="1995" />
<glyph unicode="&#x2002;" horiz-adv-x="997" />
<glyph unicode="&#x2003;" horiz-adv-x="1995" />
<glyph unicode="&#x2004;" horiz-adv-x="665" />
<glyph unicode="&#x2005;" horiz-adv-x="498" />
<glyph unicode="&#x2006;" horiz-adv-x="332" />
<glyph unicode="&#x2007;" horiz-adv-x="332" />
<glyph unicode="&#x2008;" horiz-adv-x="249" />
<glyph unicode="&#x2009;" horiz-adv-x="399" />
<glyph unicode="&#x200a;" horiz-adv-x="110" />
<glyph unicode="&#x2010;" horiz-adv-x="872" d="M160 540q0 24 18 37q14 10 47 10h422q33 0 47 -10q19 -14 19 -37t-19 -37q-14 -10 -47 -10h-422q-33 0 -47 10q-18 13 -18 37z" />
<glyph unicode="&#x2011;" horiz-adv-x="872" d="M160 540q0 24 18 37q14 10 47 10h422q33 0 47 -10q19 -14 19 -37t-19 -37q-14 -10 -47 -10h-422q-33 0 -47 10q-18 13 -18 37z" />
<glyph unicode="&#x2012;" horiz-adv-x="872" d="M160 540q0 24 18 37q14 10 47 10h422q33 0 47 -10q19 -14 19 -37t-19 -37q-14 -10 -47 -10h-422q-33 0 -47 10q-18 13 -18 37z" />
<glyph unicode="&#x2013;" d="M100 540q0 23 19 37q14 10 47 10h721q33 0 47 -10q18 -13 18 -37t-18 -37q-14 -10 -47 -10h-721q-33 0 -47 10q-19 14 -19 37z" />
<glyph unicode="&#x2014;" horiz-adv-x="1787" d="M100 541q0 23 19 37q14 10 47 10h1456q33 0 47 -10q19 -14 19 -37t-19 -37q-14 -10 -47 -10h-1456q-33 0 -47 10q-19 14 -19 37z" />
<glyph unicode="&#x2018;" horiz-adv-x="475" d="M143 1140q-5 16 7 52l74 224q10 32 25 44q13 10 32 10q18 0 32 -10t19 -25q5 -18 -6 -53l-75 -224q-10 -32 -25 -44q-13 -10 -31 -10t-32.5 10.5t-19.5 25.5z" />
<glyph unicode="&#x2019;" horiz-adv-x="475" d="M143 1140q-5 16 7 52l74 224q10 32 25 44q13 10 32 10q18 0 32 -10t19 -25q5 -18 -6 -53l-75 -224q-10 -32 -25 -44q-13 -10 -31 -10t-32.5 10.5t-19.5 25.5z" />
<glyph unicode="&#x201a;" horiz-adv-x="475" d="M143 -195q-5 16 7 53l74 224q10 32 25 44q13 10 32 10q18 0 32 -10.5t19 -25.5q5 -18 -6 -52l-75 -224q-10 -32 -25 -44q-13 -10 -31 -10q-19 0 -33 10t-19 25z" />
<glyph unicode="&#x201c;" horiz-adv-x="792" d="M143 1140q-5 16 7 52l74 224q10 32 25 44q13 10 32 10q18 0 32 -10t19 -25q5 -18 -6 -53l-75 -224q-10 -32 -25 -44q-13 -10 -31 -10t-32.5 10.5t-19.5 25.5zM461 1140q-5 18 6 52l75 224q11 33 24 44q13 10 32 10q40 0 51 -35q5 -18 -6 -53l-75 -224q-11 -33 -24 -44 q-13 -10 -32 -10q-18 0 -32 10.5t-19 25.5z" />
<glyph unicode="&#x201d;" horiz-adv-x="792" d="M143 1140q-5 16 7 52l74 224q10 32 25 44q13 10 32 10q18 0 32 -10t19 -25q5 -18 -6 -53l-75 -224q-10 -32 -25 -44q-13 -10 -31 -10t-32.5 10.5t-19.5 25.5zM461 1140q-5 18 6 52l75 224q11 33 24 44q13 10 32 10q40 0 51 -35q5 -18 -6 -53l-75 -224q-11 -33 -24 -44 q-13 -10 -32 -10q-18 0 -32 10.5t-19 25.5z" />
<glyph unicode="&#x201e;" horiz-adv-x="792" d="M143 -195q-5 16 7 53l74 224q10 32 25 44q13 10 32 10q18 0 32 -10.5t19 -25.5q5 -18 -6 -52l-75 -224q-10 -32 -25 -44q-13 -10 -31 -10q-19 0 -33 10t-19 25zM461 -195q-5 18 6 53l75 224q11 33 24 44q13 10 32 10q18 0 32 -10.5t19 -25.5q5 -18 -6 -52l-75 -224 q-11 -33 -24 -44q-13 -10 -32 -10q-40 0 -51 35z" />
<glyph unicode="&#x2022;" d="M194 540q0 137 97.5 234.5t234.5 97.5t235 -97.5t98 -234.5t-98 -235t-235 -98t-234.5 98t-97.5 235z" />
<glyph unicode="&#x2026;" horiz-adv-x="1482" d="M176 88q0 39 27.5 66.5t66.5 27.5t67 -27.5t28 -66.5t-28 -66.5t-67 -27.5t-66.5 27.5t-27.5 66.5zM647 88q0 39 27.5 66.5t66.5 27.5t67 -27.5t28 -66.5t-28 -66.5t-67 -27.5t-66.5 27.5t-27.5 66.5zM1118 88q0 39 27.5 66.5t66.5 27.5t67 -27.5t28 -66.5t-28 -66.5 t-67 -27.5t-66.5 27.5t-27.5 66.5z" />
<glyph unicode="&#x202f;" horiz-adv-x="399" />
<glyph unicode="&#x2039;" horiz-adv-x="696" d="M85 509l352 352q26 26 43 29q25 3 42 -14t14 -41q-3 -17 -29 -43l-283 -283l283 -283q26 -26 29 -43q3 -24 -14 -41t-42 -14q-17 3 -43 29z" />
<glyph unicode="&#x203a;" horiz-adv-x="696" d="M161 184q3 18 28 43l283 283l-283 283q-25 25 -28 43q-3 25 13 41q17 17 42 14q17 -3 43 -29l352 -352l-352 -352q-26 -26 -43 -29q-25 -3 -42 14q-16 16 -13 41z" />
<glyph unicode="&#x205f;" horiz-adv-x="498" />
<glyph unicode="&#x20ac;" horiz-adv-x="1431" d="M141 588q0 20 16 32q12 9 42 9h82v213h-82q-30 0 -42 9q-16 12 -16 32q0 19 16 31q13 10 42 10h84q6 158 35.5 243.5t107.5 163.5q139 139 354 139q254 0 401 -190q36 -47 59.5 -105.5t23.5 -92.5q0 -25 -15 -40q-14 -14 -36 -14q-21 0 -35 14q-16 16 -27 53 q-40 130 -137 203.5t-234 73.5q-164 0 -276 -112q-58 -58 -82 -132t-29 -204h451q29 0 42 -10q15 -11 15 -31q0 -21 -15 -32q-12 -9 -42 -9h-453v-213h453q30 0 42 -9q15 -11 15 -32t-15 -32q-12 -9 -42 -9h-451q5 -137 28.5 -213t82.5 -135q113 -113 276 -113 q136 0 233.5 74t137.5 204q11 36 27 52q14 14 35 14q22 0 36 -14q15 -15 15 -40q0 -34 -23.5 -92.5t-59.5 -105.5q-147 -190 -401 -190q-215 0 -354 139q-81 81 -109.5 168t-33.5 252h-84q-30 0 -42 9q-16 12 -16 32z" />
<glyph unicode="&#x2122;" horiz-adv-x="1656" d="M57 1417q0 20 16 32q12 9 42 9h491q30 0 42 -9q16 -12 16 -32t-16 -32q-12 -9 -42 -9h-200v-738q0 -31 -10 -44q-14 -19 -36 -19q-21 0 -35 19q-10 13 -10 44v738h-200q-30 0 -42 9q-16 12 -16 32zM817 638v736q0 55 14 70q12 14 39 14q23 0 37 -14q15 -15 37 -60 l236 -479l235 479q22 45 37 60q14 14 37 14q27 0 39 -14q14 -15 14 -70v-736q0 -32 -9 -44q-14 -19 -36 -19t-36 19q-9 12 -9 44v617l-207 -409q-23 -47 -65 -47t-66 47l-207 409v-617q0 -32 -9 -44q-14 -19 -36 -19t-36 19q-9 12 -9 44z" />
<glyph unicode="&#x25fc;" horiz-adv-x="993" d="M0 0v993h993v-993h-993z" />
<glyph unicode="&#xfb01;" horiz-adv-x="1121" d="M84 944q0 22 16 34q13 9 44 9h83v213q0 116 62 187t176 71h31q37 0 51 -10q18 -14 18 -37t-18 -37q-14 -10 -47 -10h-17q-75 0 -112 -43t-37 -121v-213h171q31 0 44 -9q16 -12 16 -34t-16 -34q-13 -9 -44 -9h-171v-838q0 -35 -11 -51q-13 -20 -42 -20t-42 20 q-12 18 -12 51v838h-83q-31 0 -44 9q-16 12 -16 34zM794 1395q0 31 22 53t53 22q32 0 54 -22t22 -53t-22.5 -53.5t-53.5 -22.5t-53 22t-22 54zM816 63v861q0 34 11 51q13 20 42 20t42 -20q12 -18 12 -51v-861q0 -33 -12 -51q-13 -20 -42 -20t-42 20q-11 16 -11 51z" />
<glyph unicode="&#xfb02;" horiz-adv-x="1201" d="M84 944q0 22 16 34q13 9 44 9h83v213q0 116 62 187t176 71h31q37 0 51 -10q18 -14 18 -37t-18 -37q-14 -10 -47 -10h-17q-75 0 -112 -43t-37 -121v-213h171q31 0 44 -9q16 -12 16 -34t-16 -34q-13 -9 -44 -9h-171v-838q0 -35 -11 -51q-13 -20 -42 -20t-42 20 q-12 18 -12 51v838h-83q-31 0 -44 9q-16 12 -16 34zM808 258v1137q0 35 11 51q13 20 42 20t42 -20q11 -16 11 -51v-1137q0 -78 37.5 -121t112.5 -43h16q33 0 47 -10q19 -14 19 -37t-19 -37q-14 -10 -51 -10h-30q-114 0 -176 71t-62 187z" />
</font>
</defs>
</svg>
